SplineFontDB: 3.0
FontName: Archivo Narrow Devanagari-Regular
FullName: Archivo Narrow Devanagari Regular
FamilyName: Archivo Narrow Devanagari
Weight: Regular
Copyright: Copyright (c) 2012-2014, Omnibus-Type (www.omnibus-type.com omnibus.type@gmail.com) with Reserved Font Name 'Archivo'
ItalicAngle: 0
UnderlinePosition: 0
UnderlineWidth: 0
Ascent: 800
Descent: 200
UFOAscent: 936
UFODescent: -210
LayerCount: 2
Layer: 0 0 "Back"  1
Layer: 1 0 "Fore"  0
OS2Version: 0
OS2_WeightWidthSlopeOnly: 0
OS2_UseTypoMetrics: 0
CreationTime: 1404414751
ModificationTime: 1404414751
PfmFamily: 0
TTFWeight: 400
TTFWidth: 5
LineGap: 0
VLineGap: 0
OS2TypoAscent: 0
OS2TypoAOffset: 1
OS2TypoDescent: 0
OS2TypoDOffset: 1
OS2TypoLinegap: 0
OS2WinAscent: 0
OS2WinAOffset: 1
OS2WinDescent: 0
OS2WinDOffset: 1
HheadAscent: 936
HheadAOffset: 0
HheadDescent: -210
HheadDOffset: 0
OS2Vendor: 'PfEd'
Lookup: 258 0 0 "'kern' Horizontal Kerning lookup 0"  {"'kern' Horizontal Kerning lookup 0 subtable"  } ['kern' ('DFLT' <'dflt' > ) ]
Lookup: 258 0 0 "'kern' Horizontal Kerning in Latin lookup 0"  {"'kern' Horizontal Kerning in Latin lookup 0 subtable"  } ['kern' ('latn' <'dflt' > ) ]
DEI: 91125
LangName: 1033 "" "" "" "" "" "" "" "" "Omnibus-Type" "Hector Gatti, Marcela Romero, Pablo Cosgaya and Nicolas Silva" "Archivo Narrow was designed to be used simultaneously in print and digital platforms. The technical and aesthetic characteristics of the font are both crafted for high performance typography." "http://www.omnibus-type.com" "" "This Font Software is licensed under the SIL Open Font License, Version 1.1. This license is available with a FAQ at: http://scripts.sil.org/OFL" "http://scripts.sil.org/OFL" 
Encoding: UnicodeBmp
Compacted: 1
UnicodeInterp: none
NameList: AGL For New Fonts
DisplaySize: -72
AntiAlias: 1
FitToEm: 1
WinInfo: 329 7 6
BeginPrivate: 4
BlueValues 31 [-12 0 526 538 686 698 723 731]
OtherBlues 11 [-182 -173]
StemSnapH 13 [101 110 114]
StemSnapV 17 [120 125 128 132]
EndPrivate

StartChar: .notdef
Encoding: 65536 -1 0
Width: 500
VWidth: 0
Flags: W
LayerCount: 2
Fore
SplineSet
500 700 m 1
 0 700 l 1
 0 0 l 1
 500 0 l 1
 500 700 l 1
250 305 m 1
 420 50 l 1
 80 50 l 1
 250 305 l 1
50 605 m 1
 220 350 l 1
 50 95 l 1
 50 605 l 1
450 605 m 1
 450 95 l 1
 280 350 l 1
 450 605 l 1
420 650 m 1
 250 395 l 1
 80 650 l 1
 420 650 l 1
EndSplineSet
EndChar

StartChar: A
Encoding: 65 65 1
Width: 592
VWidth: 0
Flags: W
LayerCount: 2
Fore
SplineSet
221 686 m 1
 0 0 l 1
 124 0 l 1
 165 135 l 1
 418 135 l 1
 460 0 l 1
 591 0 l 1
 370 686 l 1
 221 686 l 1
314 478 m 2
 383 249 l 1
 200 249 l 1
 270 478 l 2
 280 510 290 571 290 571 c 1
 294 571 l 1
 294 571 303 514 314 478 c 2
533 10 m 0
296 686 m 0
EndSplineSet
EndChar

StartChar: AE
Encoding: 198 198 2
Width: 820
VWidth: 0
Flags: W
LayerCount: 2
Fore
SplineSet
255 686 m 1
 -8 0 l 1
 111 0 l 1
 161 135 l 1
 414 135 l 1
 447 0 l 1
 777 0 l 1
 777 114 l 1
 550 114 l 1
 506 294 l 1
 727 294 l 1
 727 408 l 1
 478 408 l 1
 438 572 l 1
 771 572 l 1
 771 686 l 1
 255 686 l 1
326 509 m 2
 387 249 l 1
 203 249 l 1
 299 509 l 2
 304 521 308 534 313 546 c 1
 317 546 l 1
 320 534 323 521 326 509 c 2
410 686 m 0
EndSplineSet
EndChar

StartChar: AEacute
Encoding: 508 508 3
Width: 820
VWidth: 0
Flags: W
LayerCount: 2
Fore
SplineSet
255 686 m 1
 -8 0 l 1
 111 0 l 1
 161 135 l 1
 414 135 l 1
 447 0 l 1
 777 0 l 1
 777 114 l 1
 550 114 l 1
 506 294 l 1
 727 294 l 1
 727 408 l 1
 478 408 l 1
 438 572 l 1
 771 572 l 1
 771 686 l 1
 255 686 l 1
328 500 m 2
 387 249 l 1
 203 249 l 1
 295 497 l 2
 301 513 307 530 313 546 c 1
 317 546 l 1
 321 531 324 515 328 500 c 2
427 883 m 1
 341 751 l 1
 440 751 l 1
 548 880 l 1
 547 883 l 1
 427 883 l 1
EndSplineSet
EndChar

StartChar: Aacute
Encoding: 193 193 4
Width: 592
VWidth: 0
Flags: W
LayerCount: 2
Fore
SplineSet
221 686 m 1
 0 0 l 1
 124 0 l 1
 165 135 l 1
 418 135 l 1
 460 0 l 1
 591 0 l 1
 370 686 l 1
 221 686 l 1
314 478 m 2
 383 249 l 1
 200 249 l 1
 270 478 l 2
 280 510 290 571 290 571 c 1
 294 571 l 1
 294 571 303 514 314 478 c 2
313 883 m 1
 227 751 l 1
 326 751 l 1
 434 880 l 1
 433 883 l 1
 313 883 l 1
EndSplineSet
EndChar

StartChar: Abreve
Encoding: 258 258 5
Width: 592
VWidth: 0
Flags: W
LayerCount: 2
Fore
SplineSet
221 686 m 1
 0 0 l 1
 124 0 l 1
 165 135 l 1
 418 135 l 1
 460 0 l 1
 591 0 l 1
 370 686 l 1
 221 686 l 1
314 478 m 2
 383 249 l 1
 200 249 l 1
 270 478 l 2
 280 510 290 571 290 571 c 1
 294 571 l 1
 294 571 303 514 314 478 c 2
355 883 m 1
 354 869 330 850 295 850 c 0
 263 850 240 869 237 883 c 1
 163 883 l 1
 163 833 213 776 295 776 c 0
 378 776 430 833 430 883 c 1
 355 883 l 1
EndSplineSet
EndChar

StartChar: Acircumflex
Encoding: 194 194 6
Width: 592
VWidth: 0
Flags: W
LayerCount: 2
Fore
SplineSet
221 686 m 1
 0 0 l 1
 124 0 l 1
 165 135 l 1
 418 135 l 1
 460 0 l 1
 591 0 l 1
 370 686 l 1
 221 686 l 1
314 478 m 2
 383 249 l 1
 200 249 l 1
 270 478 l 2
 280 510 290 571 290 571 c 1
 294 571 l 1
 294 571 303 514 314 478 c 2
248 883 m 1
 162 748 l 1
 251 748 l 1
 296 817 l 1
 341 748 l 1
 431 748 l 1
 346 883 l 1
 248 883 l 1
EndSplineSet
EndChar

StartChar: Adieresis
Encoding: 196 196 7
Width: 592
VWidth: 0
Flags: W
LayerCount: 2
Fore
SplineSet
221 686 m 1
 0 0 l 1
 124 0 l 1
 165 135 l 1
 418 135 l 1
 460 0 l 1
 591 0 l 1
 370 686 l 1
 221 686 l 1
314 478 m 2
 383 249 l 1
 200 249 l 1
 270 478 l 2
 280 510 290 571 290 571 c 1
 294 571 l 1
 294 571 303 514 314 478 c 2
159 883 m 1
 159 774 l 1
 259 774 l 1
 259 883 l 1
 159 883 l 1
333 883 m 1
 333 774 l 1
 434 774 l 1
 434 883 l 1
 333 883 l 1
EndSplineSet
EndChar

StartChar: Agrave
Encoding: 192 192 8
Width: 592
VWidth: 0
Flags: W
LayerCount: 2
Fore
SplineSet
221 686 m 1
 0 0 l 1
 124 0 l 1
 165 135 l 1
 418 135 l 1
 460 0 l 1
 591 0 l 1
 370 686 l 1
 221 686 l 1
314 478 m 2
 383 249 l 1
 200 249 l 1
 270 478 l 2
 280 510 290 571 290 571 c 1
 294 571 l 1
 294 571 303 514 314 478 c 2
159 883 m 1
 158 880 l 1
 266 751 l 1
 365 751 l 1
 279 883 l 1
 159 883 l 1
EndSplineSet
EndChar

StartChar: Amacron
Encoding: 256 256 9
Width: 592
VWidth: 0
Flags: W
LayerCount: 2
Fore
SplineSet
221 686 m 1
 0 0 l 1
 124 0 l 1
 165 135 l 1
 418 135 l 1
 460 0 l 1
 591 0 l 1
 370 686 l 1
 221 686 l 1
314 478 m 2
 383 249 l 1
 200 249 l 1
 270 478 l 2
 280 510 290 571 290 571 c 1
 294 571 l 1
 294 571 303 514 314 478 c 2
168 846 m 1
 168 759 l 1
 424 759 l 1
 424 846 l 1
 168 846 l 1
EndSplineSet
EndChar

StartChar: Aogonek
Encoding: 260 260 10
Width: 592
VWidth: 0
Flags: W
LayerCount: 2
Fore
SplineSet
591 0 m 1
 370 686 l 1
 221 686 l 1
 0 0 l 1
 124 0 l 1
 165 135 l 1
 418 135 l 1
 460 0 l 1
 591 0 l 1
314 478 m 2
 383 249 l 1
 200 249 l 1
 270 478 l 2
 280 510 290 571 290 571 c 1
 294 571 l 1
 294 571 303 514 314 478 c 2
508 0 m 1
 486 -27 463 -50 463 -100 c 0
 463 -169 516 -190 562 -190 c 0
 584 -190 605 -185 628 -176 c 1
 628 -121 l 1
 606 -121 l 2
 573 -121 561 -96 561 -70 c 0
 561 -38 579 -11 591 0 c 1
 508 0 l 1
EndSplineSet
EndChar

StartChar: Aring
Encoding: 197 197 11
Width: 592
VWidth: 0
Flags: W
LayerCount: 2
Fore
SplineSet
221 686 m 1
 0 0 l 1
 124 0 l 1
 165 135 l 1
 418 135 l 1
 460 0 l 1
 591 0 l 1
 370 686 l 1
 221 686 l 1
314 478 m 2
 383 249 l 1
 200 249 l 1
 270 478 l 2
 280 510 290 571 290 571 c 1
 294 571 l 1
 294 571 303 514 314 478 c 2
200 817 m 0
 200 763 244 721 296 721 c 0
 349 721 392 764 392 817 c 0
 392 869 350 913 296 913 c 0
 243 913 200 870 200 817 c 0
342 817 m 0
 342 791 321 771 296 771 c 0
 270 771 250 791 250 817 c 0
 250 843 270 863 296 863 c 0
 321 863 342 843 342 817 c 0
EndSplineSet
EndChar

StartChar: Aringacute
Encoding: 506 506 12
Width: 592
VWidth: 0
Flags: W
LayerCount: 2
Fore
SplineSet
200 728 m 0
 200 708 206 689 217 674 c 1
 0 0 l 1
 124 0 l 1
 165 135 l 1
 418 135 l 1
 460 0 l 1
 591 0 l 1
 374 673 l 1
 385 689 392 708 392 728 c 0
 392 778 350 821 296 821 c 0
 243 821 200 779 200 728 c 0
294 571 m 1
 294 571 303 514 314 478 c 2
 383 249 l 1
 200 249 l 1
 270 478 l 2
 280 510 290 571 290 571 c 1
 294 571 l 1
443 957 m 1
 323 957 l 1
 253 848 l 1
 352 848 l 1
 444 954 l 1
 443 957 l 1
342 728 m 0
 342 702 321 683 296 683 c 0
 270 683 250 702 250 728 c 0
 250 753 270 772 296 772 c 0
 321 772 342 753 342 728 c 0
EndSplineSet
EndChar

StartChar: Atilde
Encoding: 195 195 13
Width: 592
VWidth: 0
Flags: W
LayerCount: 2
Fore
SplineSet
221 686 m 1
 0 0 l 1
 124 0 l 1
 165 135 l 1
 418 135 l 1
 460 0 l 1
 591 0 l 1
 370 686 l 1
 221 686 l 1
314 478 m 2
 383 249 l 1
 200 249 l 1
 270 478 l 2
 280 510 290 571 290 571 c 1
 294 571 l 1
 294 571 303 514 314 478 c 2
398 883 m 1
 394 855 380 846 359 846 c 0
 314 846 275 883 226 883 c 0
 156 883 128 816 128 761 c 1
 194 761 l 1
 198 788 212 798 233 798 c 0
 278 798 317 761 365 761 c 0
 436 761 464 828 464 883 c 1
 398 883 l 1
EndSplineSet
EndChar

StartChar: B
Encoding: 66 66 14
Width: 592
VWidth: 0
Flags: W
LayerCount: 2
Fore
SplineSet
60 0 m 1
 355 0 l 2
 465 0 558 69 558 184 c 0
 558 272 505 335 437 356 c 1
 437 360 l 1
 496 381 542 437 542 516 c 0
 542 617 463 686 355 686 c 2
 60 686 l 1
 60 0 l 1
328 295 m 2
 395 295 427 253 427 200 c 0
 427 144 387 114 334 114 c 2
 188 114 l 1
 188 295 l 1
 328 295 l 2
326 572 m 2
 377 572 411 545 411 493 c 0
 411 447 381 408 320 408 c 2
 188 408 l 1
 188 572 l 1
 326 572 l 2
EndSplineSet
EndChar

StartChar: C
Encoding: 67 67 15
Width: 592
VWidth: 0
Flags: W
LayerCount: 2
Fore
SplineSet
34 343 m 0
 34 101 135 -12 307 -12 c 0
 452 -12 559 74 559 254 c 1
 434 254 l 1
 434 148 385 98 311 98 c 0
 213 98 166 181 166 318 c 2
 166 368 l 2
 166 505 212 588 307 588 c 0
 379 588 428 537 428 431 c 1
 559 431 l 1
 559 617 450 698 307 698 c 0
 135 698 34 585 34 343 c 0
296 686 m 0
296 0 m 0
EndSplineSet
EndChar

StartChar: Cacute
Encoding: 262 262 17
Width: 592
VWidth: 0
Flags: W
LayerCount: 2
Fore
SplineSet
34 343 m 0
 34 101 135 -12 307 -12 c 0
 452 -12 559 74 559 254 c 1
 434 254 l 1
 434 148 385 98 311 98 c 0
 213 98 166 181 166 318 c 2
 166 368 l 2
 166 505 212 588 307 588 c 0
 379 588 428 537 428 431 c 1
 559 431 l 1
 559 617 450 698 307 698 c 0
 135 698 34 585 34 343 c 0
324 883 m 1
 238 751 l 1
 337 751 l 1
 445 880 l 1
 444 883 l 1
 324 883 l 1
EndSplineSet
EndChar

StartChar: Ccaron
Encoding: 268 268 18
Width: 592
VWidth: 0
Flags: W
LayerCount: 2
Fore
SplineSet
34 343 m 0
 34 101 135 -12 307 -12 c 0
 452 -12 559 74 559 254 c 1
 434 254 l 1
 434 148 385 98 311 98 c 0
 213 98 166 181 166 318 c 2
 166 368 l 2
 166 505 212 588 307 588 c 0
 379 588 428 537 428 431 c 1
 559 431 l 1
 559 617 450 698 307 698 c 0
 135 698 34 585 34 343 c 0
441 883 m 1
 352 883 l 1
 307 814 l 1
 262 883 l 1
 172 883 l 1
 258 748 l 1
 356 748 l 1
 441 883 l 1
EndSplineSet
EndChar

StartChar: Ccedilla
Encoding: 199 199 19
Width: 592
VWidth: 0
Flags: W
LayerCount: 2
Fore
SplineSet
34 343 m 0
 34 122 117 9 262 -9 c 1
 254 -77 l 1
 287 -77 l 2
 313 -77 321 -85 321 -101 c 0
 321 -120 307 -125 285 -125 c 2
 214 -125 l 1
 214 -174 l 1
 238 -179 270 -182 298 -182 c 0
 341 -182 407 -168 407 -101 c 0
 407 -55 371 -36 328 -33 c 1
 330 -11 l 1
 463 -2 559 84 559 254 c 1
 434 254 l 1
 434 148 385 98 311 98 c 0
 213 98 166 181 166 318 c 2
 166 368 l 2
 166 505 212 588 307 588 c 0
 379 588 428 537 428 431 c 1
 559 431 l 1
 559 617 450 698 307 698 c 0
 135 698 34 585 34 343 c 0
EndSplineSet
EndChar

StartChar: Ccircumflex
Encoding: 264 264 20
Width: 592
VWidth: 0
Flags: W
LayerCount: 2
Fore
SplineSet
34 343 m 0
 34 101 135 -12 307 -12 c 0
 452 -12 559 74 559 254 c 1
 434 254 l 1
 434 148 385 98 311 98 c 0
 213 98 166 181 166 318 c 2
 166 368 l 2
 166 505 212 588 307 588 c 0
 379 588 428 537 428 431 c 1
 559 431 l 1
 559 617 450 698 307 698 c 0
 135 698 34 585 34 343 c 0
356 883 m 1
 258 883 l 1
 172 748 l 1
 262 748 l 1
 307 817 l 1
 352 748 l 1
 441 748 l 1
 356 883 l 1
EndSplineSet
EndChar

StartChar: Cdotaccent
Encoding: 266 266 21
Width: 592
VWidth: 0
Flags: W
LayerCount: 2
Fore
SplineSet
34 343 m 0
 34 101 135 -12 307 -12 c 0
 452 -12 559 74 559 254 c 1
 434 254 l 1
 434 148 385 98 311 98 c 0
 213 98 166 181 166 318 c 2
 166 368 l 2
 166 505 212 588 307 588 c 0
 379 588 428 537 428 431 c 1
 559 431 l 1
 559 617 450 698 307 698 c 0
 135 698 34 585 34 343 c 0
360 883 m 1
 253 883 l 1
 253 768 l 1
 360 768 l 1
 360 883 l 1
EndSplineSet
EndChar

StartChar: D
Encoding: 68 68 22
Width: 592
VWidth: 0
Flags: W
LayerCount: 2
Fore
SplineSet
283 0 m 2
 454 0 558 118 558 353 c 0
 558 574 454 686 283 686 c 2
 60 686 l 1
 60 0 l 1
 283 0 l 2
271 572 m 2
 366 572 426 507 426 378 c 2
 426 328 l 2
 426 185 366 114 271 114 c 2
 188 114 l 1
 188 572 l 1
 271 572 l 2
296 343 m 0
296 686 m 0
EndSplineSet
EndChar

StartChar: Dcaron
Encoding: 270 270 23
Width: 592
VWidth: 0
Flags: W
LayerCount: 2
Fore
SplineSet
388 883 m 1
 298 883 l 1
 254 814 l 1
 209 883 l 1
 119 883 l 1
 205 748 l 1
 303 748 l 1
 388 883 l 1
283 0 m 2
 454 0 558 118 558 353 c 0
 558 574 454 686 283 686 c 2
 60 686 l 1
 60 0 l 1
 283 0 l 2
271 572 m 2
 366 572 426 507 426 378 c 2
 426 328 l 2
 426 185 366 114 271 114 c 2
 188 114 l 1
 188 572 l 1
 271 572 l 2
EndSplineSet
EndChar

StartChar: Dcroat
Encoding: 272 272 24
Width: 592
VWidth: 0
Flags: W
LayerCount: 2
Fore
SplineSet
10 312 m 1
 60 312 l 1
 60 0 l 1
 283 0 l 2
 454 0 558 118 558 353 c 0
 558 574 454 686 283 686 c 2
 60 686 l 1
 60 397 l 1
 10 397 l 1
 10 312 l 1
271 572 m 2
 366 572 426 507 426 378 c 2
 426 328 l 2
 426 185 366 114 271 114 c 2
 188 114 l 1
 188 312 l 1
 313 312 l 1
 313 397 l 1
 188 397 l 1
 188 572 l 1
 271 572 l 2
EndSplineSet
EndChar

StartChar: Delta
Encoding: 916 916 25
Width: 589
VWidth: 0
Flags: W
LayerCount: 2
Fore
SplineSet
216 686 m 1
 13 55 l 1
 13 0 l 1
 568 0 l 1
 568 55 l 1
 365 686 l 1
 216 686 l 1
420 114 m 1
 154 114 l 1
 285 541 l 1
 289 541 l 1
 420 114 l 1
EndSplineSet
EndChar

StartChar: E
Encoding: 69 69 26
Width: 547
VWidth: 0
Flags: W
LayerCount: 2
Fore
SplineSet
503 0 m 1
 503 114 l 1
 188 114 l 1
 188 294 l 1
 453 294 l 1
 453 408 l 1
 188 408 l 1
 188 572 l 1
 497 572 l 1
 497 686 l 1
 60 686 l 1
 60 0 l 1
 503 0 l 1
492 10 m 0
274 0 m 0
274 686 m 0
EndSplineSet
EndChar

StartChar: Eacute
Encoding: 201 201 27
Width: 547
VWidth: 0
Flags: W
LayerCount: 2
Fore
SplineSet
60 686 m 1
 60 0 l 1
 503 0 l 1
 503 114 l 1
 188 114 l 1
 188 294 l 1
 453 294 l 1
 453 408 l 1
 188 408 l 1
 188 572 l 1
 497 572 l 1
 497 686 l 1
 60 686 l 1
291 883 m 1
 205 751 l 1
 304 751 l 1
 412 880 l 1
 411 883 l 1
 291 883 l 1
EndSplineSet
EndChar

StartChar: Ebreve
Encoding: 276 276 28
Width: 547
VWidth: 0
Flags: W
LayerCount: 2
Fore
SplineSet
333 883 m 1
 331 869 307 850 273 850 c 0
 240 850 217 869 214 883 c 1
 140 883 l 1
 140 833 191 776 273 776 c 0
 356 776 407 833 407 883 c 1
 333 883 l 1
503 0 m 1
 503 114 l 1
 188 114 l 1
 188 294 l 1
 453 294 l 1
 453 408 l 1
 188 408 l 1
 188 572 l 1
 497 572 l 1
 497 686 l 1
 60 686 l 1
 60 0 l 1
 503 0 l 1
EndSplineSet
EndChar

StartChar: Ecaron
Encoding: 282 282 29
Width: 547
VWidth: 0
Flags: W
LayerCount: 2
Fore
SplineSet
408 883 m 1
 318 883 l 1
 274 814 l 1
 229 883 l 1
 139 883 l 1
 225 748 l 1
 323 748 l 1
 408 883 l 1
503 0 m 1
 503 114 l 1
 188 114 l 1
 188 294 l 1
 453 294 l 1
 453 408 l 1
 188 408 l 1
 188 572 l 1
 497 572 l 1
 497 686 l 1
 60 686 l 1
 60 0 l 1
 503 0 l 1
EndSplineSet
EndChar

StartChar: Ecircumflex
Encoding: 202 202 30
Width: 547
VWidth: 0
Flags: W
LayerCount: 2
Fore
SplineSet
323 883 m 1
 225 883 l 1
 139 748 l 1
 229 748 l 1
 274 817 l 1
 318 748 l 1
 408 748 l 1
 323 883 l 1
503 0 m 1
 503 114 l 1
 188 114 l 1
 188 294 l 1
 453 294 l 1
 453 408 l 1
 188 408 l 1
 188 572 l 1
 497 572 l 1
 497 686 l 1
 60 686 l 1
 60 0 l 1
 503 0 l 1
EndSplineSet
EndChar

StartChar: Edieresis
Encoding: 203 203 31
Width: 547
VWidth: 0
Flags: W
LayerCount: 2
Fore
SplineSet
60 686 m 1
 60 0 l 1
 503 0 l 1
 503 114 l 1
 188 114 l 1
 188 294 l 1
 453 294 l 1
 453 408 l 1
 188 408 l 1
 188 572 l 1
 497 572 l 1
 497 686 l 1
 60 686 l 1
136 883 m 1
 136 774 l 1
 236 774 l 1
 236 883 l 1
 136 883 l 1
311 883 m 1
 311 774 l 1
 411 774 l 1
 411 883 l 1
 311 883 l 1
EndSplineSet
EndChar

StartChar: Edotaccent
Encoding: 278 278 32
Width: 547
VWidth: 0
Flags: W
LayerCount: 2
Fore
SplineSet
327 883 m 1
 220 883 l 1
 220 768 l 1
 327 768 l 1
 327 883 l 1
503 0 m 1
 503 114 l 1
 188 114 l 1
 188 294 l 1
 453 294 l 1
 453 408 l 1
 188 408 l 1
 188 572 l 1
 497 572 l 1
 497 686 l 1
 60 686 l 1
 60 0 l 1
 503 0 l 1
EndSplineSet
EndChar

StartChar: Egrave
Encoding: 200 200 33
Width: 547
VWidth: 0
Flags: W
LayerCount: 2
Fore
SplineSet
60 686 m 1
 60 0 l 1
 503 0 l 1
 503 114 l 1
 188 114 l 1
 188 294 l 1
 453 294 l 1
 453 408 l 1
 188 408 l 1
 188 572 l 1
 497 572 l 1
 497 686 l 1
 60 686 l 1
136 883 m 1
 135 880 l 1
 243 751 l 1
 342 751 l 1
 256 883 l 1
 136 883 l 1
EndSplineSet
EndChar

StartChar: Emacron
Encoding: 274 274 34
Width: 547
VWidth: 0
Flags: W
LayerCount: 2
Fore
SplineSet
401 846 m 1
 146 846 l 1
 146 759 l 1
 401 759 l 1
 401 846 l 1
503 0 m 1
 503 114 l 1
 188 114 l 1
 188 294 l 1
 453 294 l 1
 453 408 l 1
 188 408 l 1
 188 572 l 1
 497 572 l 1
 497 686 l 1
 60 686 l 1
 60 0 l 1
 503 0 l 1
EndSplineSet
EndChar

StartChar: Eng
Encoding: 330 330 35
Width: 593
VWidth: 0
Flags: W
LayerCount: 2
Fore
SplineSet
418 686 m 1
 418 304 l 2
 418 293 419 247 419 247 c 1
 416 244 l 1
 416 244 396 291 385 308 c 1
 173 686 l 1
 60 686 l 1
 60 0 l 1
 173 0 l 1
 173 382 l 2
 173 400 171 439 171 439 c 1
 175 442 l 1
 175 442 198 392 206 378 c 2
 415 0 l 1
 415 -33 l 2
 415 -64 399 -81 368 -81 c 2
 323 -81 l 1
 323 -170 l 1
 344 -176 380 -182 410 -182 c 0
 506 -182 532 -111 532 -41 c 2
 532 686 l 1
 418 686 l 1
EndSplineSet
EndChar

StartChar: Eogonek
Encoding: 280 280 36
Width: 547
VWidth: 0
Flags: W
LayerCount: 2
Fore
SplineSet
497 686 m 1
 60 686 l 1
 60 0 l 1
 419 0 l 1
 395 -25 375 -53 375 -100 c 0
 375 -169 428 -190 474 -190 c 0
 496 -190 517 -185 540 -176 c 1
 540 -121 l 1
 518 -121 l 2
 485 -121 473 -96 473 -70 c 0
 473 -42 491 -14 503 0 c 1
 503 114 l 1
 188 114 l 1
 188 294 l 1
 453 294 l 1
 453 408 l 1
 188 408 l 1
 188 572 l 1
 497 572 l 1
 497 686 l 1
EndSplineSet
EndChar

StartChar: Eth
Encoding: 208 208 37
Width: 592
VWidth: 0
Flags: W
LayerCount: 2
Fore
SplineSet
10 312 m 1
 60 312 l 1
 60 0 l 1
 283 0 l 2
 454 0 558 118 558 353 c 0
 558 574 454 686 283 686 c 2
 60 686 l 1
 60 397 l 1
 10 397 l 1
 10 312 l 1
271 572 m 2
 366 572 426 507 426 378 c 2
 426 328 l 2
 426 185 366 114 271 114 c 2
 188 114 l 1
 188 312 l 1
 313 312 l 1
 313 397 l 1
 188 397 l 1
 188 572 l 1
 271 572 l 2
EndSplineSet
EndChar

StartChar: Euro
Encoding: 8364 8364 38
Width: 456
VWidth: 0
Flags: W
LayerCount: 2
Fore
SplineSet
70 459 m 1
 10 459 l 1
 10 378 l 1
 59 378 l 1
 58 366 58 355 58 343 c 0
 58 331 58 319 59 308 c 1
 10 308 l 1
 10 227 l 1
 70 227 l 1
 105 79 210 -12 360 -12 c 0
 386 -12 410 -8 434 -1 c 1
 434 98 l 1
 414 92 393 89 370 89 c 0
 283 89 222 141 194 227 c 1
 374 227 l 1
 374 308 l 1
 179 308 l 1
 178 319 178 331 178 343 c 0
 178 355 178 366 179 378 c 1
 374 378 l 1
 374 459 l 1
 194 459 l 1
 222 544 283 597 370 597 c 0
 393 597 414 594 434 588 c 1
 434 688 l 1
 411 695 385 698 360 698 c 0
 210 698 105 607 70 459 c 1
EndSplineSet
EndChar

StartChar: F
Encoding: 70 70 39
Width: 501
VWidth: 0
Flags: W
LayerCount: 2
Fore
SplineSet
188 0 m 1
 188 285 l 1
 423 285 l 1
 423 399 l 1
 188 399 l 1
 188 572 l 1
 463 572 l 1
 463 686 l 1
 60 686 l 1
 60 0 l 1
 188 0 l 1
EndSplineSet
EndChar

StartChar: G
Encoding: 71 71 40
Width: 638
VWidth: 0
Flags: W
LayerCount: 2
Fore
SplineSet
34 343 m 0
 34 99 131 -12 299 -12 c 0
 371 -12 438 18 482 76 c 1
 504 0 l 1
 587 0 l 1
 587 373 l 1
 302 373 l 1
 302 263 l 1
 510 263 l 1
 456 311 l 1
 456 263 l 2
 456 162 400 98 322 98 c 0
 215 98 166 178 166 318 c 2
 166 368 l 2
 166 505 214 588 321 588 c 0
 395 588 456 539 456 446 c 1
 587 446 l 1
 587 610 463 698 325 698 c 0
 140 698 34 585 34 343 c 0
319 686 m 0
319 0 m 0
EndSplineSet
EndChar

StartChar: Gbreve
Encoding: 286 286 41
Width: 638
VWidth: 0
Flags: W
LayerCount: 2
Fore
SplineSet
379 883 m 1
 377 869 353 850 319 850 c 0
 286 850 263 869 260 883 c 1
 186 883 l 1
 186 833 237 776 319 776 c 0
 402 776 453 833 453 883 c 1
 379 883 l 1
34 343 m 0
 34 99 131 -12 299 -12 c 0
 371 -12 438 18 482 76 c 1
 504 0 l 1
 587 0 l 1
 587 373 l 1
 302 373 l 1
 302 263 l 1
 510 263 l 1
 456 311 l 1
 456 263 l 2
 456 162 400 98 322 98 c 0
 215 98 166 178 166 318 c 2
 166 368 l 2
 166 505 214 588 321 588 c 0
 395 588 456 539 456 446 c 1
 587 446 l 1
 587 610 463 698 325 698 c 0
 140 698 34 585 34 343 c 0
EndSplineSet
EndChar

StartChar: Gcircumflex
Encoding: 284 284 42
Width: 638
VWidth: 0
Flags: W
LayerCount: 2
Fore
SplineSet
369 883 m 1
 271 883 l 1
 185 748 l 1
 275 748 l 1
 320 817 l 1
 364 748 l 1
 454 748 l 1
 369 883 l 1
34 343 m 0
 34 99 131 -12 299 -12 c 0
 371 -12 438 18 482 76 c 1
 504 0 l 1
 587 0 l 1
 587 373 l 1
 302 373 l 1
 302 263 l 1
 510 263 l 1
 456 311 l 1
 456 263 l 2
 456 162 400 98 322 98 c 0
 215 98 166 178 166 318 c 2
 166 368 l 2
 166 505 214 588 321 588 c 0
 395 588 456 539 456 446 c 1
 587 446 l 1
 587 610 463 698 325 698 c 0
 140 698 34 585 34 343 c 0
EndSplineSet
EndChar

StartChar: Gcommaaccent
Encoding: 290 290 43
Width: 638
VWidth: 0
Flags: W
LayerCount: 2
Fore
SplineSet
365 -55 m 1
 242 -55 l 1
 242 -178 l 1
 291 -178 l 1
 255 -263 l 1
 320 -263 l 1
 365 -167 l 1
 365 -55 l 1
34 343 m 0
 34 99 131 -12 299 -12 c 0
 371 -12 438 18 482 76 c 1
 504 0 l 1
 587 0 l 1
 587 373 l 1
 302 373 l 1
 302 263 l 1
 510 263 l 1
 456 311 l 1
 456 263 l 2
 456 162 400 98 322 98 c 0
 215 98 166 178 166 318 c 2
 166 368 l 2
 166 505 214 588 321 588 c 0
 395 588 456 539 456 446 c 1
 587 446 l 1
 587 610 463 698 325 698 c 0
 140 698 34 585 34 343 c 0
EndSplineSet
EndChar

StartChar: Gdotaccent
Encoding: 288 288 44
Width: 638
VWidth: 0
Flags: W
LayerCount: 2
Fore
SplineSet
373 883 m 1
 266 883 l 1
 266 768 l 1
 373 768 l 1
 373 883 l 1
34 343 m 0
 34 99 131 -12 299 -12 c 0
 371 -12 438 18 482 76 c 1
 504 0 l 1
 587 0 l 1
 587 373 l 1
 302 373 l 1
 302 263 l 1
 510 263 l 1
 456 311 l 1
 456 263 l 2
 456 162 400 98 322 98 c 0
 215 98 166 178 166 318 c 2
 166 368 l 2
 166 505 214 588 321 588 c 0
 395 588 456 539 456 446 c 1
 587 446 l 1
 587 610 463 698 325 698 c 0
 140 698 34 585 34 343 c 0
EndSplineSet
EndChar

StartChar: H
Encoding: 72 72 45
Width: 592
VWidth: 0
Flags: W
LayerCount: 2
Fore
SplineSet
404 686 m 1
 404 408 l 1
 188 408 l 1
 188 686 l 1
 60 686 l 1
 60 0 l 1
 188 0 l 1
 188 294 l 1
 404 294 l 1
 404 0 l 1
 532 0 l 1
 532 686 l 1
 404 686 l 1
296 343 m 0
296 686 m 0
EndSplineSet
EndChar

StartChar: Hbar
Encoding: 294 294 46
Width: 592
VWidth: 0
Flags: W
LayerCount: 2
Fore
SplineSet
582 577 m 1
 532 577 l 1
 532 686 l 1
 404 686 l 1
 404 577 l 1
 188 577 l 1
 188 686 l 1
 60 686 l 1
 60 577 l 1
 10 577 l 1
 10 490 l 1
 60 490 l 1
 60 0 l 1
 188 0 l 1
 188 287 l 1
 404 287 l 1
 404 0 l 1
 532 0 l 1
 532 490 l 1
 582 490 l 1
 582 577 l 1
188 401 m 1
 188 490 l 1
 404 490 l 1
 404 401 l 1
 188 401 l 1
EndSplineSet
EndChar

StartChar: Hcircumflex
Encoding: 292 292 47
Width: 592
VWidth: 0
Flags: W
LayerCount: 2
Fore
SplineSet
404 686 m 1
 404 408 l 1
 188 408 l 1
 188 686 l 1
 60 686 l 1
 60 0 l 1
 188 0 l 1
 188 294 l 1
 404 294 l 1
 404 0 l 1
 532 0 l 1
 532 686 l 1
 404 686 l 1
248 883 m 1
 162 748 l 1
 251 748 l 1
 296 817 l 1
 341 748 l 1
 431 748 l 1
 346 883 l 1
 248 883 l 1
EndSplineSet
EndChar

StartChar: I
Encoding: 73 73 48
Width: 228
VWidth: 0
Flags: W
LayerCount: 2
Fore
SplineSet
178 686 m 1
 50 686 l 1
 50 0 l 1
 178 0 l 1
 178 686 l 1
205 10 m 0
114 686 m 0
EndSplineSet
EndChar

StartChar: IJ
Encoding: 306 306 49
Width: 684
VWidth: 0
Flags: W
LayerCount: 2
Fore
SplineSet
496 686 m 1
 496 173 l 2
 496 125 474 98 431 98 c 0
 387 98 364 125 364 173 c 2
 364 216 l 1
 237 216 l 1
 237 163 l 2
 237 49 307 -12 431 -12 c 0
 555 -12 624 49 624 163 c 2
 624 686 l 1
 496 686 l 1
50 686 m 1
 50 0 l 1
 178 0 l 1
 178 686 l 1
 50 686 l 1
EndSplineSet
EndChar

StartChar: Iacute
Encoding: 205 205 50
Width: 228
VWidth: 0
Flags: W
LayerCount: 2
Fore
SplineSet
50 686 m 1
 50 0 l 1
 178 0 l 1
 178 686 l 1
 50 686 l 1
131 883 m 1
 45 751 l 1
 145 751 l 1
 252 880 l 1
 251 883 l 1
 131 883 l 1
EndSplineSet
EndChar

StartChar: Ibreve
Encoding: 300 300 51
Width: 228
VWidth: 0
Flags: W
LayerCount: 2
Fore
SplineSet
178 686 m 1
 50 686 l 1
 50 0 l 1
 178 0 l 1
 178 686 l 1
174 883 m 1
 172 869 148 850 114 850 c 0
 81 850 58 869 55 883 c 1
 -20 883 l 1
 -20 833 32 776 114 776 c 0
 197 776 248 833 248 883 c 1
 174 883 l 1
EndSplineSet
EndChar

StartChar: Icircumflex
Encoding: 206 206 52
Width: 228
VWidth: 0
Flags: W
LayerCount: 2
Fore
SplineSet
178 686 m 1
 50 686 l 1
 50 0 l 1
 178 0 l 1
 178 686 l 1
164 883 m 1
 66 883 l 1
 -21 748 l 1
 70 748 l 1
 115 817 l 1
 159 748 l 1
 249 748 l 1
 164 883 l 1
EndSplineSet
EndChar

StartChar: Idieresis
Encoding: 207 207 53
Width: 228
VWidth: 0
Flags: W
LayerCount: 2
Fore
SplineSet
50 686 m 1
 50 0 l 1
 178 0 l 1
 178 686 l 1
 50 686 l 1
-23 883 m 1
 -23 774 l 1
 77 774 l 1
 77 883 l 1
 -23 883 l 1
152 883 m 1
 152 774 l 1
 252 774 l 1
 252 883 l 1
 152 883 l 1
EndSplineSet
EndChar

StartChar: Idotaccent
Encoding: 304 304 54
Width: 228
VWidth: 0
Flags: W
LayerCount: 2
Fore
SplineSet
178 686 m 1
 50 686 l 1
 50 0 l 1
 178 0 l 1
 178 686 l 1
168 883 m 1
 61 883 l 1
 61 768 l 1
 168 768 l 1
 168 883 l 1
EndSplineSet
EndChar

StartChar: Igrave
Encoding: 204 204 55
Width: 228
VWidth: 0
Flags: W
LayerCount: 2
Fore
SplineSet
50 686 m 1
 50 0 l 1
 178 0 l 1
 178 686 l 1
 50 686 l 1
-23 883 m 1
 -24 880 l 1
 84 751 l 1
 183 751 l 1
 97 883 l 1
 -23 883 l 1
EndSplineSet
EndChar

StartChar: Imacron
Encoding: 298 298 56
Width: 228
VWidth: 0
Flags: W
LayerCount: 2
Fore
SplineSet
178 686 m 1
 50 686 l 1
 50 0 l 1
 178 0 l 1
 178 686 l 1
242 846 m 1
 -14 846 l 1
 -14 759 l 1
 242 759 l 1
 242 846 l 1
EndSplineSet
EndChar

StartChar: Iogonek
Encoding: 302 302 57
Width: 228
VWidth: 0
Flags: W
LayerCount: 2
Fore
SplineSet
50 686 m 1
 50 0 l 1
 94 0 l 1
 70 -25 50 -53 50 -100 c 0
 50 -169 104 -190 149 -190 c 0
 171 -190 192 -185 215 -176 c 1
 215 -121 l 1
 193 -121 l 2
 160 -121 148 -96 148 -70 c 0
 148 -42 167 -14 178 0 c 1
 178 686 l 1
 50 686 l 1
EndSplineSet
EndChar

StartChar: Itilde
Encoding: 296 296 58
Width: 228
VWidth: 0
Flags: W
LayerCount: 2
Fore
SplineSet
178 686 m 1
 50 686 l 1
 50 0 l 1
 178 0 l 1
 178 686 l 1
216 883 m 1
 212 855 199 846 178 846 c 0
 132 846 94 883 44 883 c 0
 -26 883 -54 816 -54 761 c 1
 13 761 l 1
 17 788 30 798 52 798 c 0
 97 798 136 761 184 761 c 0
 254 761 283 828 283 883 c 1
 216 883 l 1
EndSplineSet
EndChar

StartChar: J
Encoding: 74 74 59
Width: 456
VWidth: 0
Flags: W
LayerCount: 2
Fore
SplineSet
268 686 m 1
 268 173 l 2
 268 125 246 98 203 98 c 0
 159 98 136 125 136 173 c 2
 136 216 l 1
 9 216 l 1
 9 163 l 2
 9 49 79 -12 203 -12 c 0
 327 -12 396 49 396 163 c 2
 396 686 l 1
 268 686 l 1
228 686 m 0
EndSplineSet
EndChar

StartChar: Jcircumflex
Encoding: 308 308 60
Width: 456
VWidth: 0
Flags: W
LayerCount: 2
Fore
SplineSet
268 686 m 1
 268 173 l 2
 268 125 246 98 203 98 c 0
 159 98 136 125 136 173 c 2
 136 216 l 1
 9 216 l 1
 9 163 l 2
 9 49 79 -12 203 -12 c 0
 327 -12 396 49 396 163 c 2
 396 686 l 1
 268 686 l 1
296 883 m 1
 210 748 l 1
 300 748 l 1
 345 817 l 1
 390 748 l 1
 479 748 l 1
 395 883 l 1
 296 883 l 1
EndSplineSet
EndChar

StartChar: K
Encoding: 75 75 61
Width: 592
VWidth: 0
Flags: W
LayerCount: 2
Fore
SplineSet
189 686 m 1
 60 686 l 1
 60 0 l 1
 189 0 l 1
 189 175 l 1
 296 306 l 1
 445 0 l 1
 589 0 l 1
 380 407 l 1
 583 686 l 1
 440 686 l 1
 189 335 l 1
 189 686 l 1
296 686 m 0
296 0 m 0
EndSplineSet
EndChar

StartChar: Kcommaaccent
Encoding: 310 310 62
Width: 592
VWidth: 0
Flags: W
LayerCount: 2
Fore
SplineSet
358 -55 m 1
 234 -55 l 1
 234 -178 l 1
 283 -178 l 1
 248 -263 l 1
 312 -263 l 1
 358 -167 l 1
 358 -55 l 1
189 686 m 1
 60 686 l 1
 60 0 l 1
 189 0 l 1
 189 175 l 1
 296 306 l 1
 445 0 l 1
 589 0 l 1
 380 407 l 1
 583 686 l 1
 440 686 l 1
 189 335 l 1
 189 686 l 1
EndSplineSet
EndChar

StartChar: L
Encoding: 76 76 63
Width: 501
VWidth: 0
Flags: W
LayerCount: 2
Fore
SplineSet
60 686 m 1
 60 0 l 1
 478 0 l 1
 478 120 l 1
 188 120 l 1
 188 686 l 1
 60 686 l 1
251 686 m 0
251 0 m 0
EndSplineSet
EndChar

StartChar: Lacute
Encoding: 313 313 64
Width: 501
VWidth: 0
Flags: W
LayerCount: 2
Fore
SplineSet
60 686 m 1
 60 0 l 1
 478 0 l 1
 478 120 l 1
 188 120 l 1
 188 686 l 1
 60 686 l 1
144 883 m 1
 58 751 l 1
 157 751 l 1
 265 880 l 1
 264 883 l 1
 144 883 l 1
EndSplineSet
EndChar

StartChar: Lcaron
Encoding: 317 317 65
Width: 501
VWidth: 0
Flags: W
LayerCount: 2
Fore
SplineSet
60 686 m 1
 60 0 l 1
 478 0 l 1
 478 120 l 1
 188 120 l 1
 188 686 l 1
 60 686 l 1
340 686 m 1
 340 549 l 1
 395 549 l 1
 340 393 l 1
 412 393 l 1
 478 561 l 1
 478 686 l 1
 340 686 l 1
EndSplineSet
EndChar

StartChar: Lcommaaccent
Encoding: 315 315 66
Width: 501
VWidth: 0
Flags: W
LayerCount: 2
Fore
SplineSet
60 686 m 1
 60 0 l 1
 478 0 l 1
 478 120 l 1
 188 120 l 1
 188 686 l 1
 60 686 l 1
189 -55 m 1
 189 -178 l 1
 238 -178 l 1
 202 -263 l 1
 267 -263 l 1
 312 -167 l 1
 312 -55 l 1
 189 -55 l 1
EndSplineSet
EndChar

StartChar: Ldot
Encoding: 319 319 67
Width: 501
VWidth: 0
Flags: W
LayerCount: 2
Fore
SplineSet
60 686 m 1
 60 0 l 1
 478 0 l 1
 478 120 l 1
 188 120 l 1
 188 686 l 1
 60 686 l 1
313 524 m 1
 313 409 l 1
 420 409 l 1
 420 524 l 1
 313 524 l 1
EndSplineSet
EndChar

StartChar: Lslash
Encoding: 321 321 68
Width: 501
VWidth: 0
Flags: W
LayerCount: 2
Fore
SplineSet
60 686 m 1
 60 332 l 1
 0 279 l 1
 0 184 l 1
 60 237 l 1
 60 0 l 1
 478 0 l 1
 478 120 l 1
 188 120 l 1
 188 350 l 1
 304 453 l 1
 304 550 l 1
 188 446 l 1
 188 686 l 1
 60 686 l 1
EndSplineSet
EndChar

StartChar: M
Encoding: 77 77 69
Width: 683
VWidth: 0
Flags: W
LayerCount: 2
Fore
SplineSet
456 686 m 1
 372 308 l 2
 363 268 349 153 349 153 c 1
 345 153 l 1
 345 153 328 263 318 308 c 2
 233 686 l 1
 53 686 l 1
 53 0 l 1
 162 0 l 1
 162 437 l 2
 162 464 157 547 157 547 c 1
 161 547 l 1
 169 511 177 476 185 440 c 2
 282 0 l 1
 393 0 l 1
 496 470 l 2
 502 496 507 521 513 547 c 1
 517 547 l 1
 517 547 512 468 512 437 c 2
 512 0 l 1
 630 0 l 1
 630 686 l 1
 456 686 l 1
EndSplineSet
EndChar

StartChar: N
Encoding: 78 78 70
Width: 592
VWidth: 0
Flags: W
LayerCount: 2
Fore
SplineSet
418 686 m 1
 418 304 l 2
 418 293 419 247 419 247 c 1
 416 244 l 1
 416 244 396 291 385 308 c 1
 173 686 l 1
 60 686 l 1
 60 0 l 1
 173 0 l 1
 173 382 l 2
 173 400 171 439 171 439 c 1
 175 442 l 1
 175 442 198 392 206 378 c 2
 418 0 l 1
 532 0 l 1
 532 686 l 1
 418 686 l 1
296 686 m 0
296 0 m 0
EndSplineSet
EndChar

StartChar: Nacute
Encoding: 323 323 72
Width: 592
VWidth: 0
Flags: W
LayerCount: 2
Fore
SplineSet
418 686 m 1
 418 304 l 2
 418 293 419 247 419 247 c 1
 416 244 l 1
 416 244 396 291 385 308 c 1
 173 686 l 1
 60 686 l 1
 60 0 l 1
 173 0 l 1
 173 382 l 2
 173 400 171 439 171 439 c 1
 175 442 l 1
 175 442 198 392 206 378 c 2
 418 0 l 1
 532 0 l 1
 532 686 l 1
 418 686 l 1
313 883 m 1
 227 751 l 1
 326 751 l 1
 434 880 l 1
 433 883 l 1
 313 883 l 1
EndSplineSet
EndChar

StartChar: Ncaron
Encoding: 327 327 73
Width: 592
VWidth: 0
Flags: W
LayerCount: 2
Fore
SplineSet
418 686 m 1
 418 304 l 2
 418 293 419 247 419 247 c 1
 416 244 l 1
 416 244 396 291 385 308 c 1
 173 686 l 1
 60 686 l 1
 60 0 l 1
 173 0 l 1
 173 382 l 2
 173 400 171 439 171 439 c 1
 175 442 l 1
 175 442 198 392 206 378 c 2
 418 0 l 1
 532 0 l 1
 532 686 l 1
 418 686 l 1
341 883 m 1
 296 814 l 1
 251 883 l 1
 162 883 l 1
 248 748 l 1
 346 748 l 1
 431 883 l 1
 341 883 l 1
EndSplineSet
EndChar

StartChar: Ncommaaccent
Encoding: 325 325 74
Width: 592
VWidth: 0
Flags: W
LayerCount: 2
Fore
SplineSet
418 686 m 1
 418 304 l 2
 418 293 419 247 419 247 c 1
 416 244 l 1
 416 244 396 291 385 308 c 1
 173 686 l 1
 60 686 l 1
 60 0 l 1
 173 0 l 1
 173 382 l 2
 173 400 171 439 171 439 c 1
 175 442 l 1
 175 442 198 392 206 378 c 2
 418 0 l 1
 532 0 l 1
 532 686 l 1
 418 686 l 1
234 -55 m 1
 234 -178 l 1
 283 -178 l 1
 248 -263 l 1
 312 -263 l 1
 358 -167 l 1
 358 -55 l 1
 234 -55 l 1
EndSplineSet
EndChar

StartChar: Ntilde
Encoding: 209 209 75
Width: 592
VWidth: 0
Flags: W
LayerCount: 2
Fore
SplineSet
418 686 m 1
 418 304 l 2
 418 293 419 247 419 247 c 1
 416 244 l 1
 416 244 396 291 385 308 c 1
 173 686 l 1
 60 686 l 1
 60 0 l 1
 173 0 l 1
 173 382 l 2
 173 400 171 439 171 439 c 1
 175 442 l 1
 175 442 198 392 206 378 c 2
 418 0 l 1
 532 0 l 1
 532 686 l 1
 418 686 l 1
398 883 m 1
 394 855 380 846 359 846 c 0
 314 846 275 883 226 883 c 0
 156 883 128 816 128 761 c 1
 194 761 l 1
 198 788 212 798 233 798 c 0
 278 798 317 761 365 761 c 0
 436 761 464 828 464 883 c 1
 398 883 l 1
EndSplineSet
EndChar

StartChar: O
Encoding: 79 79 76
Width: 638
VWidth: 0
Flags: W
LayerCount: 2
Fore
SplineSet
34 343 m 0
 34 101 142 -12 319 -12 c 0
 496 -12 604 101 604 343 c 0
 604 585 496 698 319 698 c 0
 142 698 34 585 34 343 c 0
472 368 m 2
 472 318 l 2
 472 181 421 98 319 98 c 0
 217 98 166 181 166 318 c 2
 166 368 l 2
 166 505 217 588 319 588 c 0
 421 588 472 505 472 368 c 2
319 686 m 0
EndSplineSet
EndChar

StartChar: OE
Encoding: 338 338 77
Width: 820
VWidth: 0
Flags: W
LayerCount: 2
Fore
SplineSet
30 343 m 0
 30 101 117 -12 258 -12 c 0
 319 -12 370 11 408 61 c 1
 408 0 l 1
 792 0 l 1
 792 114 l 1
 536 114 l 1
 536 294 l 1
 742 294 l 1
 742 408 l 1
 536 408 l 1
 536 572 l 1
 785 572 l 1
 785 686 l 1
 408 686 l 1
 408 624 l 1
 370 674 319 698 258 698 c 0
 117 698 30 585 30 343 c 0
407 368 m 2
 407 318 l 2
 407 161 366 98 284 98 c 0
 203 98 162 161 162 318 c 2
 162 368 l 2
 162 525 203 588 284 588 c 0
 366 588 407 525 407 368 c 2
410 686 m 0
EndSplineSet
EndChar

StartChar: Oacute
Encoding: 211 211 78
Width: 638
VWidth: 0
Flags: W
LayerCount: 2
Fore
SplineSet
34 343 m 0
 34 101 142 -12 319 -12 c 0
 496 -12 604 101 604 343 c 0
 604 585 496 698 319 698 c 0
 142 698 34 585 34 343 c 0
472 368 m 2
 472 318 l 2
 472 181 421 98 319 98 c 0
 217 98 166 181 166 318 c 2
 166 368 l 2
 166 505 217 588 319 588 c 0
 421 588 472 505 472 368 c 2
336 883 m 1
 250 751 l 1
 350 751 l 1
 458 880 l 1
 457 883 l 1
 336 883 l 1
EndSplineSet
EndChar

StartChar: Obreve
Encoding: 334 334 79
Width: 638
VWidth: 0
Flags: W
LayerCount: 2
Fore
SplineSet
34 343 m 0
 34 101 142 -12 319 -12 c 0
 496 -12 604 101 604 343 c 0
 604 585 496 698 319 698 c 0
 142 698 34 585 34 343 c 0
472 368 m 2
 472 318 l 2
 472 181 421 98 319 98 c 0
 217 98 166 181 166 318 c 2
 166 368 l 2
 166 505 217 588 319 588 c 0
 421 588 472 505 472 368 c 2
379 883 m 1
 377 869 353 850 319 850 c 0
 286 850 263 869 260 883 c 1
 186 883 l 1
 186 833 237 776 319 776 c 0
 402 776 453 833 453 883 c 1
 379 883 l 1
EndSplineSet
EndChar

StartChar: Ocircumflex
Encoding: 212 212 80
Width: 638
VWidth: 0
Flags: W
LayerCount: 2
Fore
SplineSet
34 343 m 0
 34 101 142 -12 319 -12 c 0
 496 -12 604 101 604 343 c 0
 604 585 496 698 319 698 c 0
 142 698 34 585 34 343 c 0
472 368 m 2
 472 318 l 2
 472 181 421 98 319 98 c 0
 217 98 166 181 166 318 c 2
 166 368 l 2
 166 505 217 588 319 588 c 0
 421 588 472 505 472 368 c 2
369 883 m 1
 271 883 l 1
 185 748 l 1
 275 748 l 1
 320 817 l 1
 364 748 l 1
 454 748 l 1
 369 883 l 1
EndSplineSet
EndChar

StartChar: Odieresis
Encoding: 214 214 81
Width: 638
VWidth: 0
Flags: W
LayerCount: 2
Fore
SplineSet
34 343 m 0
 34 101 142 -12 319 -12 c 0
 496 -12 604 101 604 343 c 0
 604 585 496 698 319 698 c 0
 142 698 34 585 34 343 c 0
472 368 m 2
 472 318 l 2
 472 181 421 98 319 98 c 0
 217 98 166 181 166 318 c 2
 166 368 l 2
 166 505 217 588 319 588 c 0
 421 588 472 505 472 368 c 2
182 883 m 1
 182 774 l 1
 282 774 l 1
 282 883 l 1
 182 883 l 1
357 883 m 1
 357 774 l 1
 457 774 l 1
 457 883 l 1
 357 883 l 1
EndSplineSet
EndChar

StartChar: Ograve
Encoding: 210 210 82
Width: 638
VWidth: 0
Flags: W
LayerCount: 2
Fore
SplineSet
34 343 m 0
 34 101 142 -12 319 -12 c 0
 496 -12 604 101 604 343 c 0
 604 585 496 698 319 698 c 0
 142 698 34 585 34 343 c 0
472 368 m 2
 472 318 l 2
 472 181 421 98 319 98 c 0
 217 98 166 181 166 318 c 2
 166 368 l 2
 166 505 217 588 319 588 c 0
 421 588 472 505 472 368 c 2
182 883 m 1
 181 880 l 1
 289 751 l 1
 388 751 l 1
 302 883 l 1
 182 883 l 1
EndSplineSet
EndChar

StartChar: Ohungarumlaut
Encoding: 336 336 84
Width: 638
VWidth: 0
Flags: W
LayerCount: 2
Fore
SplineSet
34 343 m 0
 34 101 142 -12 319 -12 c 0
 496 -12 604 101 604 343 c 0
 604 585 496 698 319 698 c 0
 142 698 34 585 34 343 c 0
472 368 m 2
 472 318 l 2
 472 181 421 98 319 98 c 0
 217 98 166 181 166 318 c 2
 166 368 l 2
 166 505 217 588 319 588 c 0
 421 588 472 505 472 368 c 2
269 883 m 1
 207 751 l 1
 286 751 l 1
 370 880 l 1
 369 883 l 1
 269 883 l 1
409 883 m 1
 347 751 l 1
 426 751 l 1
 510 880 l 1
 509 883 l 1
 409 883 l 1
EndSplineSet
EndChar

StartChar: Omacron
Encoding: 332 332 85
Width: 638
VWidth: 0
Flags: W
LayerCount: 2
Fore
SplineSet
34 343 m 0
 34 101 142 -12 319 -12 c 0
 496 -12 604 101 604 343 c 0
 604 585 496 698 319 698 c 0
 142 698 34 585 34 343 c 0
472 368 m 2
 472 318 l 2
 472 181 421 98 319 98 c 0
 217 98 166 181 166 318 c 2
 166 368 l 2
 166 505 217 588 319 588 c 0
 421 588 472 505 472 368 c 2
447 846 m 1
 192 846 l 1
 192 759 l 1
 447 759 l 1
 447 846 l 1
EndSplineSet
EndChar

StartChar: Omega
Encoding: 937 937 86
Width: 768
VWidth: 0
Flags: W
LayerCount: 2
Fore
SplineSet
98 343 m 0
 98 231 137 151 197 100 c 1
 167 104 138 114 123 114 c 2
 98 114 l 1
 98 0 l 1
 345 0 l 1
 345 82 l 1
 269 103 229 180 229 296 c 2
 229 368 l 2
 229 505 281 588 383 588 c 0
 485 588 536 505 536 368 c 2
 536 296 l 2
 536 179 498 101 421 81 c 1
 421 0 l 1
 667 0 l 1
 667 114 l 1
 643 114 l 2
 627 114 597 104 568 100 c 1
 628 151 667 231 667 343 c 0
 667 585 560 698 383 698 c 0
 206 698 98 585 98 343 c 0
20 686 m 0
EndSplineSet
EndChar

StartChar: Oslash
Encoding: 216 216 87
Width: 638
VWidth: 0
Flags: W
LayerCount: 2
Fore
SplineSet
599 723 m 1
 515 723 l 1
 474 658 l 1
 431 685 379 698 319 698 c 0
 142 698 34 585 34 343 c 0
 34 222 61 133 110 75 c 1
 40 -37 l 1
 124 -37 l 1
 164 27 l 1
 207 1 259 -12 319 -12 c 0
 496 -12 604 101 604 343 c 0
 604 463 577 552 528 610 c 1
 599 723 l 1
453 490 m 1
 466 457 472 415 472 368 c 2
 472 318 l 2
 472 181 421 98 319 98 c 0
 282 98 251 109 228 129 c 1
 453 490 l 1
410 556 m 1
 184 194 l 1
 172 228 166 270 166 318 c 2
 166 368 l 2
 166 505 217 588 319 588 c 0
 356 588 387 577 410 556 c 1
319 686 m 0
EndSplineSet
EndChar

StartChar: Oslashacute
Encoding: 510 510 88
Width: 638
VWidth: 0
Flags: W
LayerCount: 2
Fore
SplineSet
515 723 m 1
 474 658 l 1
 431 685 379 698 319 698 c 0
 142 698 34 585 34 343 c 0
 34 222 61 133 110 75 c 1
 40 -37 l 1
 124 -37 l 1
 164 27 l 1
 207 1 259 -12 319 -12 c 0
 496 -12 604 101 604 343 c 0
 604 463 577 552 528 610 c 1
 599 723 l 1
 515 723 l 1
472 368 m 2
 472 318 l 2
 472 181 421 98 319 98 c 0
 282 98 251 109 228 129 c 1
 453 490 l 1
 466 457 472 415 472 368 c 2
410 556 m 1
 184 194 l 1
 172 228 166 270 166 318 c 2
 166 368 l 2
 166 505 217 588 319 588 c 0
 356 588 387 577 410 556 c 1
336 883 m 1
 250 751 l 1
 350 751 l 1
 458 880 l 1
 457 883 l 1
 336 883 l 1
EndSplineSet
EndChar

StartChar: Otilde
Encoding: 213 213 89
Width: 638
VWidth: 0
Flags: W
LayerCount: 2
Fore
SplineSet
34 343 m 0
 34 101 142 -12 319 -12 c 0
 496 -12 604 101 604 343 c 0
 604 585 496 698 319 698 c 0
 142 698 34 585 34 343 c 0
472 368 m 2
 472 318 l 2
 472 181 421 98 319 98 c 0
 217 98 166 181 166 318 c 2
 166 368 l 2
 166 505 217 588 319 588 c 0
 421 588 472 505 472 368 c 2
421 883 m 1
 417 855 404 846 383 846 c 0
 337 846 299 883 250 883 c 0
 180 883 151 816 151 761 c 1
 218 761 l 1
 222 788 235 798 257 798 c 0
 302 798 341 761 389 761 c 0
 459 761 488 828 488 883 c 1
 421 883 l 1
EndSplineSet
EndChar

StartChar: P
Encoding: 80 80 90
Width: 547
VWidth: 0
Flags: W
LayerCount: 2
Fore
SplineSet
305 266 m 2
 434 266 520 351 520 480 c 0
 520 599 447 686 305 686 c 2
 60 686 l 1
 60 0 l 1
 188 0 l 1
 188 266 l 1
 305 266 l 2
292 572 m 2
 353 572 388 536 388 480 c 0
 388 417 354 379 292 379 c 2
 188 379 l 1
 188 572 l 1
 292 572 l 2
EndSplineSet
EndChar

StartChar: Q
Encoding: 81 81 91
Width: 638
VWidth: 0
Flags: W
LayerCount: 2
Fore
SplineSet
319 -12 m 2
 331 -12 l 1
 430 -124 l 1
 587 -124 l 1
 455 17 l 1
 549 65 604 171 604 343 c 0
 604 585 496 698 319 698 c 0
 142 698 34 585 34 343 c 0
 34 101 142 -12 319 -12 c 2
166 368 m 2
 166 505 217 588 319 588 c 0
 421 588 472 505 472 368 c 2
 472 318 l 2
 472 181 421 98 319 98 c 0
 217 98 166 181 166 318 c 2
 166 368 l 2
EndSplineSet
EndChar

StartChar: R
Encoding: 82 82 92
Width: 592
VWidth: 0
Flags: W
LayerCount: 2
Fore
SplineSet
60 686 m 1
 60 0 l 1
 188 0 l 1
 188 286 l 1
 321 286 l 1
 435 0 l 1
 574 0 l 1
 442 314 l 1
 513 343 557 407 557 490 c 0
 557 603 486 686 347 686 c 2
 60 686 l 1
419 490 m 0
 419 433 391 399 329 399 c 2
 188 399 l 1
 188 572 l 1
 334 572 l 2
 393 572 419 540 419 490 c 0
296 686 m 0
296 0 m 0
EndSplineSet
EndChar

StartChar: Racute
Encoding: 340 340 93
Width: 592
VWidth: 0
Flags: W
LayerCount: 2
Fore
SplineSet
60 686 m 1
 60 0 l 1
 188 0 l 1
 188 286 l 1
 321 286 l 1
 435 0 l 1
 574 0 l 1
 442 314 l 1
 513 343 557 407 557 490 c 0
 557 603 486 686 347 686 c 2
 60 686 l 1
419 490 m 0
 419 433 391 399 329 399 c 2
 188 399 l 1
 188 572 l 1
 334 572 l 2
 393 572 419 540 419 490 c 0
313 883 m 1
 227 751 l 1
 326 751 l 1
 434 880 l 1
 433 883 l 1
 313 883 l 1
EndSplineSet
EndChar

StartChar: Rcaron
Encoding: 344 344 94
Width: 592
VWidth: 0
Flags: W
LayerCount: 2
Fore
SplineSet
60 686 m 1
 60 0 l 1
 188 0 l 1
 188 286 l 1
 321 286 l 1
 435 0 l 1
 574 0 l 1
 442 314 l 1
 513 343 557 407 557 490 c 0
 557 603 486 686 347 686 c 2
 60 686 l 1
419 490 m 0
 419 433 391 399 329 399 c 2
 188 399 l 1
 188 572 l 1
 334 572 l 2
 393 572 419 540 419 490 c 0
341 883 m 1
 296 814 l 1
 251 883 l 1
 162 883 l 1
 248 748 l 1
 346 748 l 1
 431 883 l 1
 341 883 l 1
EndSplineSet
EndChar

StartChar: Rcommaaccent
Encoding: 342 342 95
Width: 592
VWidth: 0
Flags: W
LayerCount: 2
Fore
SplineSet
60 686 m 1
 60 0 l 1
 188 0 l 1
 188 286 l 1
 321 286 l 1
 435 0 l 1
 574 0 l 1
 442 314 l 1
 513 343 557 407 557 490 c 0
 557 603 486 686 347 686 c 2
 60 686 l 1
234 -55 m 1
 234 -178 l 1
 283 -178 l 1
 248 -263 l 1
 312 -263 l 1
 358 -167 l 1
 358 -55 l 1
 234 -55 l 1
419 490 m 0
 419 433 391 399 329 399 c 2
 188 399 l 1
 188 572 l 1
 334 572 l 2
 393 572 419 540 419 490 c 0
EndSplineSet
EndChar

StartChar: S
Encoding: 83 83 96
Width: 547
VWidth: 0
Flags: W
LayerCount: 2
Fore
SplineSet
44 506 m 0
 44 245 377 342 377 179 c 0
 377 139 350 98 273 98 c 0
 203 98 163 142 163 207 c 0
 163 212 164 221 164 223 c 1
 31 223 l 1
 31 218 30 209 30 201 c 0
 30 60 141 -12 267 -12 c 0
 409 -12 509 49 509 206 c 0
 509 458 176 376 176 515 c 0
 176 557 210 588 272 588 c 0
 330 588 365 551 365 493 c 2
 365 484 l 1
 496 484 l 1
 496 496 l 2
 496 637 395 698 273 698 c 0
 152 698 44 636 44 506 c 0
274 686 m 0
274 0 m 0
EndSplineSet
EndChar

StartChar: Sacute
Encoding: 346 346 97
Width: 547
VWidth: 0
Flags: W
LayerCount: 2
Fore
SplineSet
44 506 m 0
 44 245 377 342 377 179 c 0
 377 139 350 98 273 98 c 0
 203 98 163 142 163 207 c 0
 163 212 164 221 164 223 c 1
 31 223 l 1
 31 218 30 209 30 201 c 0
 30 60 141 -12 267 -12 c 0
 409 -12 509 49 509 206 c 0
 509 458 176 376 176 515 c 0
 176 557 210 588 272 588 c 0
 330 588 365 551 365 493 c 2
 365 484 l 1
 496 484 l 1
 496 496 l 2
 496 637 395 698 273 698 c 0
 152 698 44 636 44 506 c 0
291 883 m 1
 205 751 l 1
 304 751 l 1
 412 880 l 1
 411 883 l 1
 291 883 l 1
EndSplineSet
EndChar

StartChar: Scaron
Encoding: 352 352 98
Width: 547
VWidth: 0
Flags: W
LayerCount: 2
Fore
SplineSet
44 506 m 0
 44 245 377 342 377 179 c 0
 377 139 350 98 273 98 c 0
 203 98 163 142 163 207 c 0
 163 212 164 221 164 223 c 1
 31 223 l 1
 31 218 30 209 30 201 c 0
 30 60 141 -12 267 -12 c 0
 409 -12 509 49 509 206 c 0
 509 458 176 376 176 515 c 0
 176 557 210 588 272 588 c 0
 330 588 365 551 365 493 c 2
 365 484 l 1
 496 484 l 1
 496 496 l 2
 496 637 395 698 273 698 c 0
 152 698 44 636 44 506 c 0
408 883 m 1
 318 883 l 1
 274 814 l 1
 229 883 l 1
 139 883 l 1
 225 748 l 1
 323 748 l 1
 408 883 l 1
EndSplineSet
EndChar

StartChar: Scedilla
Encoding: 350 350 99
Width: 547
VWidth: 0
Flags: W
LayerCount: 2
Fore
SplineSet
44 506 m 0
 44 245 377 342 377 179 c 0
 377 139 350 98 273 98 c 0
 203 98 163 142 163 207 c 0
 163 212 164 221 164 223 c 1
 31 223 l 1
 31 218 30 209 30 201 c 0
 30 75 117 4 225 -9 c 1
 217 -77 l 1
 250 -77 l 2
 276 -77 284 -85 284 -101 c 0
 284 -120 270 -125 248 -125 c 2
 177 -125 l 1
 177 -174 l 1
 201 -179 233 -182 261 -182 c 0
 304 -182 370 -168 370 -101 c 0
 370 -55 334 -36 291 -33 c 1
 293 -11 l 1
 421 -3 509 59 509 206 c 0
 509 458 176 376 176 515 c 0
 176 557 210 588 272 588 c 0
 330 588 365 551 365 493 c 2
 365 484 l 1
 496 484 l 1
 496 496 l 2
 496 637 395 698 273 698 c 0
 152 698 44 636 44 506 c 0
EndSplineSet
EndChar

StartChar: Scircumflex
Encoding: 348 348 100
Width: 547
VWidth: 0
Flags: W
LayerCount: 2
Fore
SplineSet
44 506 m 0
 44 245 377 342 377 179 c 0
 377 139 350 98 273 98 c 0
 203 98 163 142 163 207 c 0
 163 212 164 221 164 223 c 1
 31 223 l 1
 31 218 30 209 30 201 c 0
 30 60 141 -12 267 -12 c 0
 409 -12 509 49 509 206 c 0
 509 458 176 376 176 515 c 0
 176 557 210 588 272 588 c 0
 330 588 365 551 365 493 c 2
 365 484 l 1
 496 484 l 1
 496 496 l 2
 496 637 395 698 273 698 c 0
 152 698 44 636 44 506 c 0
323 883 m 1
 225 883 l 1
 139 748 l 1
 229 748 l 1
 274 817 l 1
 318 748 l 1
 408 748 l 1
 323 883 l 1
EndSplineSet
EndChar

StartChar: T
Encoding: 84 84 102
Width: 501
VWidth: 0
Flags: W
LayerCount: 2
Fore
SplineSet
17 686 m 1
 17 572 l 1
 187 572 l 1
 187 0 l 1
 315 0 l 1
 315 572 l 1
 485 572 l 1
 485 686 l 1
 17 686 l 1
251 343 m 0
251 0 m 0
251 686 m 0
EndSplineSet
EndChar

StartChar: Tbar
Encoding: 358 358 103
Width: 501
VWidth: 0
Flags: W
LayerCount: 2
Fore
SplineSet
17 686 m 1
 17 572 l 1
 187 572 l 1
 187 393 l 1
 74 393 l 1
 74 306 l 1
 187 306 l 1
 187 0 l 1
 315 0 l 1
 315 306 l 1
 427 306 l 1
 427 393 l 1
 315 393 l 1
 315 572 l 1
 485 572 l 1
 485 686 l 1
 17 686 l 1
EndSplineSet
EndChar

StartChar: Tcaron
Encoding: 356 356 104
Width: 501
VWidth: 0
Flags: W
LayerCount: 2
Fore
SplineSet
17 686 m 1
 17 572 l 1
 187 572 l 1
 187 0 l 1
 315 0 l 1
 315 572 l 1
 485 572 l 1
 485 686 l 1
 17 686 l 1
295 883 m 1
 251 814 l 1
 206 883 l 1
 116 883 l 1
 202 748 l 1
 300 748 l 1
 385 883 l 1
 295 883 l 1
EndSplineSet
EndChar

StartChar: Thorn
Encoding: 222 222 106
Width: 547
VWidth: 0
Flags: W
LayerCount: 2
Fore
SplineSet
60 686 m 1
 60 0 l 1
 188 0 l 1
 188 144 l 1
 305 144 l 2
 434 144 520 229 520 358 c 0
 520 477 447 564 305 564 c 2
 188 564 l 1
 188 686 l 1
 60 686 l 1
388 358 m 0
 388 295 354 257 292 257 c 2
 188 257 l 1
 188 450 l 1
 292 450 l 2
 353 450 388 414 388 358 c 0
EndSplineSet
EndChar

StartChar: U
Encoding: 85 85 107
Width: 592
VWidth: 0
Flags: W
LayerCount: 2
Fore
SplineSet
404 686 m 1
 404 219 l 2
 404 140 364 98 296 98 c 0
 228 98 189 140 189 219 c 2
 189 686 l 1
 61 686 l 1
 61 215 l 2
 61 66 149 -12 296 -12 c 0
 443 -12 532 66 532 215 c 2
 532 686 l 1
 404 686 l 1
533 10 m 0
296 686 m 0
EndSplineSet
EndChar

StartChar: Uacute
Encoding: 218 218 108
Width: 592
VWidth: 0
Flags: W
LayerCount: 2
Fore
SplineSet
404 686 m 1
 404 219 l 2
 404 140 364 98 296 98 c 0
 228 98 189 140 189 219 c 2
 189 686 l 1
 61 686 l 1
 61 215 l 2
 61 66 149 -12 296 -12 c 0
 443 -12 532 66 532 215 c 2
 532 686 l 1
 404 686 l 1
313 883 m 1
 227 751 l 1
 326 751 l 1
 434 880 l 1
 433 883 l 1
 313 883 l 1
EndSplineSet
EndChar

StartChar: Ubreve
Encoding: 364 364 109
Width: 592
VWidth: 0
Flags: W
LayerCount: 2
Fore
SplineSet
404 686 m 1
 404 219 l 2
 404 140 364 98 296 98 c 0
 228 98 189 140 189 219 c 2
 189 686 l 1
 61 686 l 1
 61 215 l 2
 61 66 149 -12 296 -12 c 0
 443 -12 532 66 532 215 c 2
 532 686 l 1
 404 686 l 1
355 883 m 1
 354 869 330 850 295 850 c 0
 263 850 240 869 237 883 c 1
 163 883 l 1
 163 833 213 776 295 776 c 0
 378 776 430 833 430 883 c 1
 355 883 l 1
EndSplineSet
EndChar

StartChar: Ucircumflex
Encoding: 219 219 110
Width: 592
VWidth: 0
Flags: W
LayerCount: 2
Fore
SplineSet
404 686 m 1
 404 219 l 2
 404 140 364 98 296 98 c 0
 228 98 189 140 189 219 c 2
 189 686 l 1
 61 686 l 1
 61 215 l 2
 61 66 149 -12 296 -12 c 0
 443 -12 532 66 532 215 c 2
 532 686 l 1
 404 686 l 1
248 883 m 1
 162 748 l 1
 251 748 l 1
 296 817 l 1
 341 748 l 1
 431 748 l 1
 346 883 l 1
 248 883 l 1
EndSplineSet
EndChar

StartChar: Udieresis
Encoding: 220 220 111
Width: 592
VWidth: 0
Flags: W
LayerCount: 2
Fore
SplineSet
404 686 m 1
 404 219 l 2
 404 140 364 98 296 98 c 0
 228 98 189 140 189 219 c 2
 189 686 l 1
 61 686 l 1
 61 215 l 2
 61 66 149 -12 296 -12 c 0
 443 -12 532 66 532 215 c 2
 532 686 l 1
 404 686 l 1
159 883 m 1
 159 774 l 1
 259 774 l 1
 259 883 l 1
 159 883 l 1
333 883 m 1
 333 774 l 1
 434 774 l 1
 434 883 l 1
 333 883 l 1
EndSplineSet
EndChar

StartChar: Ugrave
Encoding: 217 217 112
Width: 592
VWidth: 0
Flags: W
LayerCount: 2
Fore
SplineSet
404 686 m 1
 404 219 l 2
 404 140 364 98 296 98 c 0
 228 98 189 140 189 219 c 2
 189 686 l 1
 61 686 l 1
 61 215 l 2
 61 66 149 -12 296 -12 c 0
 443 -12 532 66 532 215 c 2
 532 686 l 1
 404 686 l 1
159 883 m 1
 158 880 l 1
 266 751 l 1
 365 751 l 1
 279 883 l 1
 159 883 l 1
EndSplineSet
EndChar

StartChar: Uhungarumlaut
Encoding: 368 368 113
Width: 592
VWidth: 0
Flags: W
LayerCount: 2
Fore
SplineSet
404 686 m 1
 404 219 l 2
 404 140 364 98 296 98 c 0
 228 98 189 140 189 219 c 2
 189 686 l 1
 61 686 l 1
 61 215 l 2
 61 66 149 -12 296 -12 c 0
 443 -12 532 66 532 215 c 2
 532 686 l 1
 404 686 l 1
245 883 m 1
 183 751 l 1
 262 751 l 1
 346 880 l 1
 345 883 l 1
 245 883 l 1
385 883 m 1
 323 751 l 1
 402 751 l 1
 486 880 l 1
 485 883 l 1
 385 883 l 1
EndSplineSet
EndChar

StartChar: Umacron
Encoding: 362 362 114
Width: 592
VWidth: 0
Flags: W
LayerCount: 2
Fore
SplineSet
404 686 m 1
 404 219 l 2
 404 140 364 98 296 98 c 0
 228 98 189 140 189 219 c 2
 189 686 l 1
 61 686 l 1
 61 215 l 2
 61 66 149 -12 296 -12 c 0
 443 -12 532 66 532 215 c 2
 532 686 l 1
 404 686 l 1
168 846 m 1
 168 759 l 1
 424 759 l 1
 424 846 l 1
 168 846 l 1
EndSplineSet
EndChar

StartChar: Uogonek
Encoding: 370 370 115
Width: 592
VWidth: 0
Flags: W
LayerCount: 2
Fore
SplineSet
404 686 m 1
 404 227 l 2
 404 143 364 98 296 98 c 0
 228 98 189 143 189 227 c 2
 189 686 l 1
 61 686 l 1
 61 223 l 2
 61 69 149 -12 296 -12 c 0
 317 -12 336 -12 357 -8 c 1
 328 11 l 1
 301 -14 277 -45 277 -95 c 0
 277 -164 330 -185 376 -185 c 0
 398 -185 419 -180 442 -171 c 1
 442 -116 l 1
 420 -116 l 2
 387 -116 375 -91 375 -65 c 0
 375 -37 393 -9 405 5 c 1
 486 36 532 110 532 223 c 2
 532 686 l 1
 404 686 l 1
EndSplineSet
EndChar

StartChar: Uring
Encoding: 366 366 116
Width: 592
VWidth: 0
Flags: W
LayerCount: 2
Fore
SplineSet
404 686 m 1
 404 219 l 2
 404 140 364 98 296 98 c 0
 228 98 189 140 189 219 c 2
 189 686 l 1
 61 686 l 1
 61 215 l 2
 61 66 149 -12 296 -12 c 0
 443 -12 532 66 532 215 c 2
 532 686 l 1
 404 686 l 1
200 817 m 0
 200 763 244 721 296 721 c 0
 349 721 392 764 392 817 c 0
 392 869 350 913 296 913 c 0
 243 913 200 870 200 817 c 0
342 817 m 0
 342 791 321 771 296 771 c 0
 270 771 250 791 250 817 c 0
 250 843 270 863 296 863 c 0
 321 863 342 843 342 817 c 0
EndSplineSet
EndChar

StartChar: Utilde
Encoding: 360 360 117
Width: 592
VWidth: 0
Flags: W
LayerCount: 2
Fore
SplineSet
404 686 m 1
 404 219 l 2
 404 140 364 98 296 98 c 0
 228 98 189 140 189 219 c 2
 189 686 l 1
 61 686 l 1
 61 215 l 2
 61 66 149 -12 296 -12 c 0
 443 -12 532 66 532 215 c 2
 532 686 l 1
 404 686 l 1
398 883 m 1
 394 855 380 846 359 846 c 0
 314 846 275 883 226 883 c 0
 156 883 128 816 128 761 c 1
 194 761 l 1
 198 788 212 798 233 798 c 0
 278 798 317 761 365 761 c 0
 436 761 464 828 464 883 c 1
 398 883 l 1
EndSplineSet
EndChar

StartChar: V
Encoding: 86 86 118
Width: 547
VWidth: 0
Flags: W
LayerCount: 2
Fore
SplineSet
547 686 m 1
 422 686 l 1
 280 195 l 1
 276 195 l 1
 132 686 l 1
 0 686 l 1
 209 0 l 1
 338 0 l 1
 547 686 l 1
EndSplineSet
EndChar

StartChar: W
Encoding: 87 87 119
Width: 774
VWidth: 0
Flags: W
LayerCount: 2
Fore
SplineSet
773 686 m 1
 663 686 l 1
 579 264 l 2
 572 230 566 168 566 168 c 1
 562 168 l 1
 562 168 554 237 549 264 c 2
 467 686 l 1
 322 686 l 1
 239 264 l 2
 233 235 226 168 226 168 c 1
 222 168 l 1
 222 168 215 234 209 264 c 2
 127 686 l 1
 0 686 l 1
 149 0 l 1
 278 0 l 1
 370 437 l 2
 376 466 384 534 384 534 c 1
 388 534 l 1
 388 534 394 472 402 437 c 2
 495 0 l 1
 624 0 l 1
 773 686 l 1
387 686 m 0
EndSplineSet
EndChar

StartChar: Wacute
Encoding: 7810 7810 120
Width: 774
VWidth: 0
Flags: W
LayerCount: 2
Fore
SplineSet
663 686 m 1
 579 264 l 2
 572 230 566 168 566 168 c 1
 562 168 l 1
 562 168 554 237 549 264 c 2
 467 686 l 1
 322 686 l 1
 239 264 l 2
 233 235 226 168 226 168 c 1
 222 168 l 1
 222 168 215 234 209 264 c 2
 127 686 l 1
 0 686 l 1
 149 0 l 1
 278 0 l 1
 370 437 l 2
 376 466 384 534 384 534 c 1
 388 534 l 1
 388 534 394 472 402 437 c 2
 495 0 l 1
 624 0 l 1
 773 686 l 1
 663 686 l 1
404 883 m 1
 318 751 l 1
 417 751 l 1
 525 880 l 1
 524 883 l 1
 404 883 l 1
EndSplineSet
EndChar

StartChar: Wcircumflex
Encoding: 372 372 121
Width: 774
VWidth: 0
Flags: W
LayerCount: 2
Fore
SplineSet
773 686 m 1
 663 686 l 1
 579 264 l 2
 572 230 566 168 566 168 c 1
 562 168 l 1
 562 168 554 237 549 264 c 2
 467 686 l 1
 322 686 l 1
 239 264 l 2
 233 235 226 168 226 168 c 1
 222 168 l 1
 222 168 215 234 209 264 c 2
 127 686 l 1
 0 686 l 1
 149 0 l 1
 278 0 l 1
 370 437 l 2
 376 466 384 534 384 534 c 1
 388 534 l 1
 388 534 394 472 402 437 c 2
 495 0 l 1
 624 0 l 1
 773 686 l 1
437 883 m 1
 339 883 l 1
 253 748 l 1
 343 748 l 1
 388 817 l 1
 432 748 l 1
 522 748 l 1
 437 883 l 1
EndSplineSet
EndChar

StartChar: Wdieresis
Encoding: 7812 7812 122
Width: 774
VWidth: 0
Flags: W
LayerCount: 2
Fore
SplineSet
663 686 m 1
 579 264 l 2
 572 230 566 168 566 168 c 1
 562 168 l 1
 562 168 554 237 549 264 c 2
 467 686 l 1
 322 686 l 1
 239 264 l 2
 233 235 226 168 226 168 c 1
 222 168 l 1
 222 168 215 234 209 264 c 2
 127 686 l 1
 0 686 l 1
 149 0 l 1
 278 0 l 1
 370 437 l 2
 376 466 384 534 384 534 c 1
 388 534 l 1
 388 534 394 472 402 437 c 2
 495 0 l 1
 624 0 l 1
 773 686 l 1
 663 686 l 1
250 883 m 1
 250 774 l 1
 350 774 l 1
 350 883 l 1
 250 883 l 1
425 883 m 1
 425 774 l 1
 525 774 l 1
 525 883 l 1
 425 883 l 1
EndSplineSet
EndChar

StartChar: Wgrave
Encoding: 7808 7808 123
Width: 774
VWidth: 0
Flags: W
LayerCount: 2
Fore
SplineSet
663 686 m 1
 579 264 l 2
 572 230 566 168 566 168 c 1
 562 168 l 1
 562 168 554 237 549 264 c 2
 467 686 l 1
 322 686 l 1
 239 264 l 2
 233 235 226 168 226 168 c 1
 222 168 l 1
 222 168 215 234 209 264 c 2
 127 686 l 1
 0 686 l 1
 149 0 l 1
 278 0 l 1
 370 437 l 2
 376 466 384 534 384 534 c 1
 388 534 l 1
 388 534 394 472 402 437 c 2
 495 0 l 1
 624 0 l 1
 773 686 l 1
 663 686 l 1
250 883 m 1
 249 880 l 1
 357 751 l 1
 456 751 l 1
 370 883 l 1
 250 883 l 1
EndSplineSet
EndChar

StartChar: X
Encoding: 88 88 124
Width: 547
VWidth: 0
Flags: W
LayerCount: 2
Fore
SplineSet
395 686 m 1
 280 462 l 1
 276 462 l 1
 161 686 l 1
 18 686 l 1
 194 360 l 1
 0 0 l 1
 133 0 l 1
 266 259 l 1
 270 259 l 1
 404 0 l 1
 546 0 l 1
 351 362 l 1
 528 686 l 1
 395 686 l 1
EndSplineSet
EndChar

StartChar: Y
Encoding: 89 89 125
Width: 547
VWidth: 0
Flags: W
LayerCount: 2
Fore
SplineSet
547 686 m 1
 418 686 l 1
 279 385 l 1
 275 385 l 1
 135 686 l 1
 0 686 l 1
 210 259 l 1
 210 0 l 1
 338 0 l 1
 338 259 l 1
 547 686 l 1
274 686 m 0
EndSplineSet
EndChar

StartChar: Yacute
Encoding: 221 221 126
Width: 547
VWidth: 0
Flags: W
LayerCount: 2
Fore
SplineSet
418 686 m 1
 279 385 l 1
 275 385 l 1
 135 686 l 1
 0 686 l 1
 210 259 l 1
 210 0 l 1
 338 0 l 1
 338 259 l 1
 547 686 l 1
 418 686 l 1
291 883 m 1
 205 751 l 1
 304 751 l 1
 412 880 l 1
 411 883 l 1
 291 883 l 1
EndSplineSet
EndChar

StartChar: Ycircumflex
Encoding: 374 374 127
Width: 547
VWidth: 0
Flags: W
LayerCount: 2
Fore
SplineSet
547 686 m 1
 418 686 l 1
 279 385 l 1
 275 385 l 1
 135 686 l 1
 0 686 l 1
 210 259 l 1
 210 0 l 1
 338 0 l 1
 338 259 l 1
 547 686 l 1
323 883 m 1
 225 883 l 1
 139 748 l 1
 229 748 l 1
 274 817 l 1
 318 748 l 1
 408 748 l 1
 323 883 l 1
EndSplineSet
EndChar

StartChar: Ydieresis
Encoding: 376 376 128
Width: 547
VWidth: 0
Flags: W
LayerCount: 2
Fore
SplineSet
418 686 m 1
 279 385 l 1
 275 385 l 1
 135 686 l 1
 0 686 l 1
 210 259 l 1
 210 0 l 1
 338 0 l 1
 338 259 l 1
 547 686 l 1
 418 686 l 1
136 883 m 1
 136 774 l 1
 236 774 l 1
 236 883 l 1
 136 883 l 1
311 883 m 1
 311 774 l 1
 411 774 l 1
 411 883 l 1
 311 883 l 1
EndSplineSet
EndChar

StartChar: Ygrave
Encoding: 7922 7922 129
Width: 547
VWidth: 0
Flags: W
LayerCount: 2
Fore
SplineSet
418 686 m 1
 279 385 l 1
 275 385 l 1
 135 686 l 1
 0 686 l 1
 210 259 l 1
 210 0 l 1
 338 0 l 1
 338 259 l 1
 547 686 l 1
 418 686 l 1
136 883 m 1
 135 880 l 1
 243 751 l 1
 342 751 l 1
 256 883 l 1
 136 883 l 1
EndSplineSet
EndChar

StartChar: Z
Encoding: 90 90 130
Width: 501
VWidth: 0
Flags: W
LayerCount: 2
Fore
SplineSet
37 686 m 1
 37 572 l 1
 298 572 l 1
 16 49 l 1
 16 0 l 1
 480 0 l 1
 480 114 l 1
 191 114 l 1
 473 636 l 1
 473 686 l 1
 37 686 l 1
251 686 m 0
EndSplineSet
EndChar

StartChar: Zacute
Encoding: 377 377 131
Width: 501
VWidth: 0
Flags: W
LayerCount: 2
Fore
SplineSet
37 686 m 1
 37 572 l 1
 298 572 l 1
 16 49 l 1
 16 0 l 1
 480 0 l 1
 480 114 l 1
 191 114 l 1
 473 636 l 1
 473 686 l 1
 37 686 l 1
268 883 m 1
 182 751 l 1
 281 751 l 1
 389 880 l 1
 388 883 l 1
 268 883 l 1
EndSplineSet
EndChar

StartChar: Zcaron
Encoding: 381 381 132
Width: 501
VWidth: 0
Flags: W
LayerCount: 2
Fore
SplineSet
37 686 m 1
 37 572 l 1
 298 572 l 1
 16 49 l 1
 16 0 l 1
 480 0 l 1
 480 114 l 1
 191 114 l 1
 473 636 l 1
 473 686 l 1
 37 686 l 1
295 883 m 1
 251 814 l 1
 206 883 l 1
 116 883 l 1
 202 748 l 1
 300 748 l 1
 385 883 l 1
 295 883 l 1
EndSplineSet
EndChar

StartChar: Zdotaccent
Encoding: 379 379 133
Width: 501
VWidth: 0
Flags: W
LayerCount: 2
Fore
SplineSet
37 686 m 1
 37 572 l 1
 298 572 l 1
 16 49 l 1
 16 0 l 1
 480 0 l 1
 480 114 l 1
 191 114 l 1
 473 636 l 1
 473 686 l 1
 37 686 l 1
197 883 m 1
 197 768 l 1
 304 768 l 1
 304 883 l 1
 197 883 l 1
EndSplineSet
EndChar

StartChar: a
Encoding: 97 97 134
Width: 456
VWidth: 0
Flags: W
LayerCount: 2
Fore
SplineSet
39 392 m 0
 39 383 39 376 40 370 c 1
 157 370 l 1
 157 385 l 2
 157 410 171 440 220 440 c 0
 266 440 275 411 275 375 c 2
 275 320 l 1
 122 320 14 278 14 136 c 0
 14 14 97 -12 146 -12 c 0
 216 -12 249 15 279 57 c 1
 284 57 l 1
 296 16 329 -12 377 -12 c 0
 413 -12 435 -3 448 4 c 1
 448 89 l 1
 424 89 l 2
 410 89 396 99 396 124 c 2
 396 383 l 2
 396 481 339 538 217 538 c 0
 109 538 39 480 39 392 c 0
275 203 m 2
 275 141 253 88 196 88 c 0
 155 88 137 111 137 147 c 0
 137 215 205 233 275 233 c 1
 275 203 l 2
410 10 m 0
228 526 m 0
EndSplineSet
EndChar

StartChar: aacute
Encoding: 225 225 135
Width: 456
VWidth: 0
Flags: W
LayerCount: 2
Fore
SplineSet
39 392 m 0
 39 383 39 376 40 370 c 1
 157 370 l 1
 157 385 l 2
 157 410 171 440 220 440 c 0
 266 440 275 411 275 375 c 2
 275 320 l 1
 122 320 14 278 14 136 c 0
 14 14 97 -12 146 -12 c 0
 216 -12 249 15 279 57 c 1
 284 57 l 1
 296 16 329 -12 377 -12 c 0
 413 -12 435 -3 448 4 c 1
 448 89 l 1
 424 89 l 2
 410 89 396 99 396 124 c 2
 396 383 l 2
 396 481 339 538 217 538 c 0
 109 538 39 480 39 392 c 0
275 203 m 2
 275 141 253 88 196 88 c 0
 155 88 137 111 137 147 c 0
 137 215 205 233 275 233 c 1
 275 203 l 2
234 723 m 1
 148 591 l 1
 247 591 l 1
 355 720 l 1
 354 723 l 1
 234 723 l 1
EndSplineSet
EndChar

StartChar: abreve
Encoding: 259 259 136
Width: 456
VWidth: 0
Flags: W
LayerCount: 2
Fore
SplineSet
39 392 m 0
 39 383 39 376 40 370 c 1
 157 370 l 1
 157 385 l 2
 157 410 171 440 220 440 c 0
 266 440 275 411 275 375 c 2
 275 320 l 1
 122 320 14 278 14 136 c 0
 14 14 97 -12 146 -12 c 0
 216 -12 249 15 279 57 c 1
 284 57 l 1
 296 16 329 -12 377 -12 c 0
 413 -12 435 -3 448 4 c 1
 448 89 l 1
 424 89 l 2
 410 89 396 99 396 124 c 2
 396 383 l 2
 396 481 339 538 217 538 c 0
 109 538 39 480 39 392 c 0
275 203 m 2
 275 141 253 88 196 88 c 0
 155 88 137 111 137 147 c 0
 137 215 205 233 275 233 c 1
 275 203 l 2
276 723 m 1
 274 709 250 690 216 690 c 0
 184 690 161 709 158 723 c 1
 83 723 l 1
 83 673 134 616 216 616 c 0
 299 616 351 673 351 723 c 1
 276 723 l 1
EndSplineSet
EndChar

StartChar: acircumflex
Encoding: 226 226 137
Width: 456
VWidth: 0
Flags: W
LayerCount: 2
Fore
SplineSet
39 392 m 0
 39 383 39 376 40 370 c 1
 157 370 l 1
 157 385 l 2
 157 410 171 440 220 440 c 0
 266 440 275 411 275 375 c 2
 275 320 l 1
 122 320 14 278 14 136 c 0
 14 14 97 -12 146 -12 c 0
 216 -12 249 15 279 57 c 1
 284 57 l 1
 296 16 329 -12 377 -12 c 0
 413 -12 435 -3 448 4 c 1
 448 89 l 1
 424 89 l 2
 410 89 396 99 396 124 c 2
 396 383 l 2
 396 481 339 538 217 538 c 0
 109 538 39 480 39 392 c 0
275 203 m 2
 275 141 253 88 196 88 c 0
 155 88 137 111 137 147 c 0
 137 215 205 233 275 233 c 1
 275 203 l 2
267 723 m 1
 168 723 l 1
 83 588 l 1
 172 588 l 1
 217 657 l 1
 262 588 l 1
 352 588 l 1
 267 723 l 1
EndSplineSet
EndChar

StartChar: acute
Encoding: 180 180 138
Width: 273
VWidth: 0
Flags: W
LayerCount: 2
Fore
SplineSet
254 723 m 1
 134 723 l 1
 48 591 l 1
 147 591 l 1
 255 720 l 1
 254 723 l 1
151.5 526 m 0
EndSplineSet
EndChar

StartChar: adieresis
Encoding: 228 228 139
Width: 456
VWidth: 0
Flags: W
LayerCount: 2
Fore
SplineSet
39 392 m 0
 39 383 39 376 40 370 c 1
 157 370 l 1
 157 385 l 2
 157 410 171 440 220 440 c 0
 266 440 275 411 275 375 c 2
 275 320 l 1
 122 320 14 278 14 136 c 0
 14 14 97 -12 146 -12 c 0
 216 -12 249 15 279 57 c 1
 284 57 l 1
 296 16 329 -12 377 -12 c 0
 413 -12 435 -3 448 4 c 1
 448 89 l 1
 424 89 l 2
 410 89 396 99 396 124 c 2
 396 383 l 2
 396 481 339 538 217 538 c 0
 109 538 39 480 39 392 c 0
275 203 m 2
 275 141 253 88 196 88 c 0
 155 88 137 111 137 147 c 0
 137 215 205 233 275 233 c 1
 275 203 l 2
80 723 m 1
 80 614 l 1
 180 614 l 1
 180 723 l 1
 80 723 l 1
254 723 m 1
 254 614 l 1
 354 614 l 1
 354 723 l 1
 254 723 l 1
EndSplineSet
EndChar

StartChar: ae
Encoding: 230 230 140
Width: 729
VWidth: 0
Flags: W
LayerCount: 2
Fore
SplineSet
375 488 m 1
 345 520 300 538 240 538 c 0
 132 538 62 480 62 392 c 0
 62 383 62 376 63 370 c 1
 180 370 l 1
 180 385 l 2
 180 410 194 440 243 440 c 0
 289 440 298 411 298 375 c 2
 298 320 l 1
 145 320 37 278 37 136 c 0
 37 14 132 -12 189 -12 c 0
 262 -12 309 17 347 59 c 1
 381 11 434 -12 504 -12 c 0
 611 -12 690 51 690 186 c 1
 571 186 l 1
 571 123 545 86 504 86 c 0
 445 86 424 139 423 233 c 1
 690 233 l 1
 690 263 l 2
 690 452 627 538 500 538 c 0
 449 538 407 522 375 488 c 1
298 203 m 2
 298 141 276 88 219 88 c 0
 178 88 160 111 160 147 c 0
 160 215 228 233 298 233 c 1
 298 203 l 2
564 320 m 1
 424 320 l 1
 428 396 449 440 500 440 c 0
 544 440 564 396 564 320 c 1
365 526 m 0
EndSplineSet
EndChar

StartChar: aeacute
Encoding: 509 509 141
Width: 729
VWidth: 0
Flags: W
LayerCount: 2
Fore
SplineSet
375 488 m 1
 345 520 300 538 240 538 c 0
 132 538 62 480 62 392 c 0
 62 383 62 376 63 370 c 1
 180 370 l 1
 180 385 l 2
 180 410 194 440 243 440 c 0
 289 440 298 411 298 375 c 2
 298 320 l 1
 145 320 37 278 37 136 c 0
 37 14 132 -12 189 -12 c 0
 262 -12 309 17 347 59 c 1
 381 11 434 -12 504 -12 c 0
 611 -12 690 51 690 186 c 1
 571 186 l 1
 571 123 545 86 504 86 c 0
 445 86 424 139 423 233 c 1
 690 233 l 1
 690 263 l 2
 690 452 627 538 500 538 c 0
 449 538 407 522 375 488 c 1
298 203 m 2
 298 141 276 88 219 88 c 0
 178 88 160 111 160 147 c 0
 160 215 228 233 298 233 c 1
 298 203 l 2
564 320 m 1
 424 320 l 1
 428 396 449 440 500 440 c 0
 544 440 564 396 564 320 c 1
382 723 m 1
 296 591 l 1
 395 591 l 1
 503 720 l 1
 502 723 l 1
 382 723 l 1
EndSplineSet
EndChar

StartChar: agrave
Encoding: 224 224 142
Width: 456
VWidth: 0
Flags: W
LayerCount: 2
Fore
SplineSet
39 392 m 0
 39 383 39 376 40 370 c 1
 157 370 l 1
 157 385 l 2
 157 410 171 440 220 440 c 0
 266 440 275 411 275 375 c 2
 275 320 l 1
 122 320 14 278 14 136 c 0
 14 14 97 -12 146 -12 c 0
 216 -12 249 15 279 57 c 1
 284 57 l 1
 296 16 329 -12 377 -12 c 0
 413 -12 435 -3 448 4 c 1
 448 89 l 1
 424 89 l 2
 410 89 396 99 396 124 c 2
 396 383 l 2
 396 481 339 538 217 538 c 0
 109 538 39 480 39 392 c 0
275 203 m 2
 275 141 253 88 196 88 c 0
 155 88 137 111 137 147 c 0
 137 215 205 233 275 233 c 1
 275 203 l 2
80 723 m 1
 79 720 l 1
 187 591 l 1
 286 591 l 1
 200 723 l 1
 80 723 l 1
EndSplineSet
EndChar

StartChar: amacron
Encoding: 257 257 143
Width: 456
VWidth: 0
Flags: W
LayerCount: 2
Fore
SplineSet
39 392 m 0
 39 383 39 376 40 370 c 1
 157 370 l 1
 157 385 l 2
 157 410 171 440 220 440 c 0
 266 440 275 411 275 375 c 2
 275 320 l 1
 122 320 14 278 14 136 c 0
 14 14 97 -12 146 -12 c 0
 216 -12 249 15 279 57 c 1
 284 57 l 1
 296 16 329 -12 377 -12 c 0
 413 -12 435 -3 448 4 c 1
 448 89 l 1
 424 89 l 2
 410 89 396 99 396 124 c 2
 396 383 l 2
 396 481 339 538 217 538 c 0
 109 538 39 480 39 392 c 0
275 203 m 2
 275 141 253 88 196 88 c 0
 155 88 137 111 137 147 c 0
 137 215 205 233 275 233 c 1
 275 203 l 2
345 686 m 1
 89 686 l 1
 89 599 l 1
 345 599 l 1
 345 686 l 1
EndSplineSet
EndChar

StartChar: ampersand
Encoding: 38 38 144
Width: 592
VWidth: 0
Flags: W
LayerCount: 2
Fore
SplineSet
50 510 m 0
 50 429 94 385 153 356 c 1
 153 352 l 1
 86 330 36 275 36 184 c 0
 36 62 133 -12 269 -12 c 0
 418 -12 498 69 498 194 c 2
 498 298 l 1
 577 298 l 1
 577 399 l 1
 378 399 l 1
 378 191 l 2
 378 126 343 89 271 89 c 0
 204 89 161 121 161 190 c 0
 161 276 215 298 276 298 c 2
 314 298 l 1
 314 399 l 1
 273 399 l 2
 216 399 175 439 175 505 c 0
 175 562 213 597 277 597 c 0
 343 597 378 565 378 501 c 2
 378 482 l 1
 498 482 l 1
 498 510 l 2
 498 624 408 698 279 698 c 0
 142 698 50 632 50 510 c 0
EndSplineSet
EndChar

StartChar: aogonek
Encoding: 261 261 145
Width: 456
VWidth: 0
Flags: W
LayerCount: 2
Fore
SplineSet
463 -117 m 2
 430 -117 418 -92 418 -66 c 0
 418 -38 437 -10 448 4 c 1
 448 89 l 1
 424 89 l 2
 410 89 396 99 396 124 c 2
 396 383 l 2
 396 481 339 538 217 538 c 0
 109 538 39 480 39 392 c 0
 39 383 39 376 40 370 c 1
 157 370 l 1
 157 385 l 2
 157 410 171 440 220 440 c 0
 266 440 275 411 275 375 c 2
 275 320 l 1
 122 320 14 278 14 136 c 0
 14 14 97 -12 146 -12 c 0
 216 -12 249 15 279 57 c 1
 284 57 l 1
 293.713 23.8149 317.183 -1 351.229 -9 c 1
 333.464 -31 320 -57 320 -96 c 0
 320 -165 374 -186 419 -186 c 0
 441 -186 462 -181 485 -172 c 1
 485 -117 l 1
 463 -117 l 2
275 203 m 2
 275 141 253 88 196 88 c 0
 155 88 137 111 137 147 c 0
 137 215 205 233 275 233 c 1
 275 203 l 2
EndSplineSet
EndChar

StartChar: approxequal
Encoding: 8776 8776 146
Width: 549
VWidth: 0
Flags: W
LayerCount: 2
Fore
SplineSet
520 430 m 1
 520 430 461 357 377 357 c 0
 301 357 244 418 170 418 c 0
 75 418 27 345 27 345 c 1
 27 225 l 1
 27 225 86 298 170 298 c 0
 246 298 303 237 377 237 c 0
 472 237 520 310 520 310 c 1
 520 430 l 1
520 219 m 1
 520 219 461 146 377 146 c 0
 301 146 244 207 170 207 c 0
 75 207 27 134 27 134 c 1
 27 14 l 1
 27 14 86 87 170 87 c 0
 246 87 303 26 377 26 c 0
 472 26 520 99 520 99 c 1
 520 219 l 1
EndSplineSet
EndChar

StartChar: aring
Encoding: 229 229 147
Width: 456
VWidth: 0
Flags: W
LayerCount: 2
Fore
SplineSet
39 392 m 0
 39 383 39 376 40 370 c 1
 157 370 l 1
 157 385 l 2
 157 410 171 440 220 440 c 0
 266 440 275 411 275 375 c 2
 275 320 l 1
 122 320 14 278 14 136 c 0
 14 14 97 -12 146 -12 c 0
 216 -12 249 15 279 57 c 1
 284 57 l 1
 296 16 329 -12 377 -12 c 0
 413 -12 435 -3 448 4 c 1
 448 89 l 1
 424 89 l 2
 410 89 396 99 396 124 c 2
 396 383 l 2
 396 481 339 538 217 538 c 0
 109 538 39 480 39 392 c 0
275 203 m 2
 275 141 253 88 196 88 c 0
 155 88 137 111 137 147 c 0
 137 215 205 233 275 233 c 1
 275 203 l 2
121 657 m 0
 121 603 165 561 217 561 c 0
 270 561 313 604 313 657 c 0
 313 709 271 753 217 753 c 0
 164 753 121 710 121 657 c 0
263 657 m 0
 263 631 242 611 217 611 c 0
 191 611 171 631 171 657 c 0
 171 683 191 703 217 703 c 0
 242 703 263 683 263 657 c 0
EndSplineSet
EndChar

StartChar: aringacute
Encoding: 507 507 148
Width: 500
VWidth: 0
Flags: W
LayerCount: 2
Fore
SplineSet
39 392 m 0
 39 383 39 376 40 370 c 1
 157 370 l 1
 157 385 l 2
 157 410 171 440 220 440 c 0
 266 440 275 411 275 375 c 2
 275 320 l 1
 122 320 14 278 14 136 c 0
 14 14 97 -12 146 -12 c 0
 216 -12 249 15 279 57 c 1
 284 57 l 1
 296 16 329 -12 377 -12 c 0
 413 -12 435 -3 448 4 c 1
 448 89 l 1
 424 89 l 2
 410 89 396 99 396 124 c 2
 396 383 l 2
 396 481 339 538 217 538 c 0
 109 538 39 480 39 392 c 0
275 203 m 2
 275 141 253 88 196 88 c 0
 155 88 137 111 137 147 c 0
 137 215 205 233 275 233 c 1
 275 203 l 2
263 654 m 0
 263 628 242 609 217 609 c 0
 191 609 171 628 171 654 c 0
 171 679 191 698 217 698 c 0
 242 698 263 679 263 654 c 0
121 654 m 0
 121 602 165 561 217 561 c 0
 270 561 313 603 313 654 c 0
 313 704 271 747 217 747 c 0
 164 747 121 705 121 654 c 0
249 883 m 1
 174 768 l 1
 273 768 l 1
 370 880 l 1
 369 883 l 1
 249 883 l 1
EndSplineSet
EndChar

StartChar: arrowboth
Encoding: 8596 8596 149
Width: 1000
VWidth: 0
Flags: W
LayerCount: 2
Fore
SplineSet
763 436 m 1
 711 436 l 1
 764 307 l 1
 238 307 l 1
 291 436 l 1
 239 436 l 1
 42 263 l 1
 42 242 l 1
 239 69 l 1
 291 69 l 1
 238 198 l 1
 764 198 l 1
 711 69 l 1
 763 69 l 1
 960 242 l 1
 960 263 l 1
 763 436 l 1
EndSplineSet
EndChar

StartChar: arrowdown
Encoding: 8595 8595 150
Width: 500
VWidth: 0
Flags: W
LayerCount: 2
Fore
SplineSet
306 711 m 1
 198 711 l 1
 198 -11 l 1
 68 42 l 1
 68 -10 l 1
 241 -207 l 1
 262 -207 l 1
 436 -10 l 1
 436 42 l 1
 306 -11 l 1
 306 711 l 1
EndSplineSet
EndChar

StartChar: arrowleft
Encoding: 8592 8592 151
Width: 1000
VWidth: 0
Flags: W
LayerCount: 2
Fore
SplineSet
291 436 m 1
 239 436 l 1
 42 263 l 1
 42 242 l 1
 239 68 l 1
 291 68 l 1
 238 198 l 1
 960 198 l 1
 960 306 l 1
 238 306 l 1
 291 436 l 1
EndSplineSet
EndChar

StartChar: arrowright
Encoding: 8594 8594 152
Width: 1000
VWidth: 0
Flags: W
LayerCount: 2
Fore
SplineSet
763 436 m 1
 711 436 l 1
 764 306 l 1
 42 306 l 1
 42 198 l 1
 764 198 l 1
 711 68 l 1
 763 68 l 1
 960 241 l 1
 960 262 l 1
 763 436 l 1
EndSplineSet
EndChar

StartChar: arrowup
Encoding: 8593 8593 153
Width: 500
VWidth: 0
Flags: W
LayerCount: 2
Fore
SplineSet
262 711 m 1
 241 711 l 1
 68 514 l 1
 68 462 l 1
 197 515 l 1
 197 -207 l 1
 306 -207 l 1
 306 515 l 1
 435 462 l 1
 435 514 l 1
 262 711 l 1
EndSplineSet
EndChar

StartChar: arrowupdn
Encoding: 8597 8597 154
Width: 500
VWidth: 0
Flags: W
LayerCount: 2
Fore
SplineSet
260 711 m 1
 239 711 l 1
 65 514 l 1
 65 462 l 1
 195 515 l 1
 195 -11 l 1
 65 42 l 1
 65 -10 l 1
 239 -207 l 1
 260 -207 l 1
 433 -10 l 1
 433 42 l 1
 303 -11 l 1
 303 515 l 1
 433 462 l 1
 433 514 l 1
 260 711 l 1
EndSplineSet
EndChar

StartChar: arrowupdnbse
Encoding: 8616 8616 155
Width: 500
VWidth: 0
Flags: W
LayerCount: 2
Fore
SplineSet
260 711 m 1
 239 711 l 1
 65 514 l 1
 65 462 l 1
 195 515 l 1
 195 96 l 1
 65 149 l 1
 65 97 l 1
 239 -100 l 1
 260 -100 l 1
 433 97 l 1
 433 149 l 1
 303 96 l 1
 303 515 l 1
 433 462 l 1
 433 514 l 1
 260 711 l 1
433 -147 m 1
 66 -147 l 1
 66 -233 l 1
 433 -233 l 1
 433 -147 l 1
EndSplineSet
EndChar

StartChar: asciicircum
Encoding: 94 94 156
Width: 479
VWidth: 0
Flags: W
LayerCount: 2
Fore
SplineSet
295 686 m 1
 188 686 l 1
 32 294 l 1
 142 294 l 1
 241 564 l 1
 342 294 l 1
 452 294 l 1
 295 686 l 1
EndSplineSet
EndChar

StartChar: asciitilde
Encoding: 126 126 157
Width: 479
VWidth: 0
Flags: W
LayerCount: 2
Fore
SplineSet
452 402 m 1
 452 402 401 329 329 329 c 0
 263 329 214 390 150 390 c 0
 68 390 27 317 27 317 c 1
 27 197 l 1
 27 197 78 270 150 270 c 0
 216 270 265 209 329 209 c 0
 411 209 452 282 452 282 c 1
 452 402 l 1
EndSplineSet
EndChar

StartChar: asterisk
Encoding: 42 42 158
Width: 319
VWidth: 0
Flags: W
LayerCount: 2
Fore
SplineSet
199 686 m 1
 121 686 l 1
 131 584 l 1
 47 643 l 1
 8 577 l 1
 101 533 l 1
 8 491 l 1
 47 423 l 1
 131 483 l 1
 121 381 l 1
 199 381 l 1
 189 483 l 1
 273 423 l 1
 312 491 l 1
 219 533 l 1
 312 577 l 1
 273 643 l 1
 189 585 l 1
 199 686 l 1
EndSplineSet
EndChar

StartChar: at
Encoding: 64 64 159
Width: 800
VWidth: 0
Flags: W
LayerCount: 2
Fore
SplineSet
25 262 m 0
 25 -27 161 -153 380 -153 c 0
 422 -153 499 -142 540 -126 c 1
 540 -52 l 1
 505 -70 425 -84 380 -84 c 0
 187 -84 98 32 98 261 c 0
 98 509 218 629 411 629 c 0
 583 629 703 539 703 322 c 0
 703 165 651 114 605 114 c 0
 586 114 575 125 575 152 c 2
 575 380 l 2
 575 469 523 521 412 521 c 0
 314 521 251 468 251 389 c 0
 251 380 251 374 252 369 c 1
 358 369 l 1
 358 382 l 2
 358 405 370 432 415 432 c 0
 457 432 465 406 465 373 c 2
 465 323 l 1
 326 323 228 285 228 156 c 0
 228 46 303 22 348 22 c 0
 411 22 441 46 468 85 c 1
 473 85 l 1
 488 48 511 22 577 22 c 0
 660 22 776 94 776 321 c 0
 776 589 621 698 412 698 c 0
 203 698 25 581 25 262 c 0
465 217 m 2
 465 161 445 113 393 113 c 0
 356 113 340 134 340 166 c 0
 340 228 401 244 465 244 c 1
 465 217 l 2
EndSplineSet
EndChar

StartChar: atilde
Encoding: 227 227 160
Width: 456
VWidth: 0
Flags: W
LayerCount: 2
Fore
SplineSet
39 392 m 0
 39 383 39 376 40 370 c 1
 157 370 l 1
 157 385 l 2
 157 410 171 440 220 440 c 0
 266 440 275 411 275 375 c 2
 275 320 l 1
 122 320 14 278 14 136 c 0
 14 14 97 -12 146 -12 c 0
 216 -12 249 15 279 57 c 1
 284 57 l 1
 296 16 329 -12 377 -12 c 0
 413 -12 435 -3 448 4 c 1
 448 89 l 1
 424 89 l 2
 410 89 396 99 396 124 c 2
 396 383 l 2
 396 481 339 538 217 538 c 0
 109 538 39 480 39 392 c 0
275 203 m 2
 275 141 253 88 196 88 c 0
 155 88 137 111 137 147 c 0
 137 215 205 233 275 233 c 1
 275 203 l 2
319 723 m 1
 315 695 301 686 280 686 c 0
 235 686 196 723 147 723 c 0
 77 723 49 656 49 601 c 1
 115 601 l 1
 119 628 133 638 154 638 c 0
 199 638 238 601 286 601 c 0
 357 601 385 668 385 723 c 1
 319 723 l 1
EndSplineSet
EndChar

StartChar: b
Encoding: 98 98 161
Width: 501
VWidth: 0
Flags: W
LayerCount: 2
Fore
SplineSet
55 723 m 1
 55 0 l 1
 155 0 l 1
 167 65 l 1
 172 65 l 1
 198 14 241 -12 291 -12 c 0
 395 -12 460 73 460 264 c 0
 460 455 390 538 297 538 c 0
 244 538 199 514 180 472 c 1
 175 472 l 1
 175 723 l 1
 55 723 l 1
335 282 m 2
 335 244 l 2
 335 149 313 97 255 97 c 0
 197 97 175 149 175 244 c 2
 175 280 l 2
 175 375 197 429 255 429 c 0
 313 429 335 377 335 282 c 2
EndSplineSet
EndChar

StartChar: backslash
Encoding: 92 92 162
Width: 228
VWidth: 0
Flags: W
LayerCount: 2
Fore
SplineSet
86 735 m 1
 1 735 l 1
 142 -49 l 1
 228 -49 l 1
 86 735 l 1
EndSplineSet
EndChar

StartChar: bar
Encoding: 124 124 163
Width: 230
VWidth: 0
Flags: W
LayerCount: 2
Fore
SplineSet
160 723 m 1
 70 723 l 1
 70 -173 l 1
 160 -173 l 1
 160 723 l 1
EndSplineSet
EndChar

StartChar: bhadeva
Encoding: 2349 2349 164
Width: 635
VWidth: 0
Flags: W
LayerCount: 2
Fore
SplineSet
225 292 m 1
 225 208 l 2
 225 185 210 167 181 167 c 0
 152 167 137 181 137 208 c 0
 137 232 151 249 172 249 c 2
 464 249 l 1
 464 355 l 1
 172 355 l 2
 84 355 22 296 22 208 c 0
 22 112 79 61 181 61 c 0
 283 61 345 121 345 208 c 2
 345 292 l 1
 225 292 l 1
448 0 m 1
 568 0 l 1
 568 686 l 1
 448 686 l 1
 448 0 l 1
448 580 m 1
 650 580 l 1
 650 686 l 1
 448 686 l 1
 448 580 l 1
344 331 m 1
 344 547 l 2
 344 645 290 698 187 698 c 0
 93 698 31 640 31 557 c 0
 31 548 32 537 34 531 c 1
 149 531 l 1
 149 550 l 2
 149 576 159 600 188 600 c 0
 217 600 224 576 224 539 c 2
 224 331 l 1
 344 331 l 1
514 686 m 0
509 0 m 0
EndSplineSet
EndChar

StartChar: braceleft
Encoding: 123 123 165
Width: 319
VWidth: 0
Flags: W
LayerCount: 2
Fore
SplineSet
298 735 m 1
 195 735 101 713 101 587 c 2
 101 394 l 2
 101 349 60 334 24 334 c 1
 24 242 l 1
 60 242 101 227 101 182 c 2
 101 -11 l 2
 101 -137 195 -159 298 -159 c 1
 298 -82 l 1
 262 -82 219 -72 219 -21 c 0
 219 45 214 108 212 175 c 0
 209 243 182 283 104 283 c 1
 104 293 l 1
 182 293 210 333 212 401 c 0
 214 468 219 531 219 597 c 0
 219 648 263 658 298 658 c 1
 298 735 l 1
EndSplineSet
EndChar

StartChar: braceright
Encoding: 125 125 166
Width: 319
VWidth: 0
Flags: W
LayerCount: 2
Fore
SplineSet
21 658 m 1
 56 658 100 648 100 597 c 0
 100 531 105 468 107 401 c 0
 109 333 137 293 215 293 c 1
 215 283 l 1
 137 283 110 243 107 175 c 0
 105 108 100 45 100 -21 c 0
 100 -72 57 -82 21 -82 c 1
 21 -159 l 1
 124 -159 218 -137 218 -11 c 2
 218 182 l 2
 218 227 259 242 295 242 c 1
 295 334 l 1
 259 334 218 349 218 394 c 2
 218 587 l 2
 218 713 124 735 21 735 c 1
 21 658 l 1
EndSplineSet
EndChar

StartChar: bracketleft
Encoding: 91 91 167
Width: 273
VWidth: 0
Flags: W
LayerCount: 2
Fore
SplineSet
248 735 m 1
 49 735 l 1
 49 -161 l 1
 248 -161 l 1
 248 -66 l 1
 165 -66 l 1
 165 640 l 1
 248 640 l 1
 248 735 l 1
EndSplineSet
EndChar

StartChar: bracketright
Encoding: 93 93 168
Width: 273
VWidth: 0
Flags: W
LayerCount: 2
Fore
SplineSet
224 735 m 1
 25 735 l 1
 25 640 l 1
 108 640 l 1
 108 -66 l 1
 25 -66 l 1
 25 -161 l 1
 224 -161 l 1
 224 735 l 1
EndSplineSet
EndChar

StartChar: breve
Encoding: 728 728 169
Width: 273
VWidth: 0
Flags: W
LayerCount: 2
Fore
SplineSet
194 723 m 1
 192 709 168 690 134 690 c 0
 101 690 78 709 75 723 c 1
 1 723 l 1
 1 673 52 616 134 616 c 0
 217 616 268 673 268 723 c 1
 194 723 l 1
134.5 526 m 0
EndSplineSet
EndChar

StartChar: brokenbar
Encoding: 166 166 170
Width: 230
VWidth: 0
Flags: W
LayerCount: 2
Fore
SplineSet
160 723 m 1
 70 723 l 1
 70 351 l 1
 160 351 l 1
 160 723 l 1
160 199 m 1
 70 199 l 1
 70 -173 l 1
 160 -173 l 1
 160 199 l 1
EndSplineSet
EndChar

StartChar: bullet
Encoding: 8226 8226 171
Width: 287
VWidth: 0
Flags: W
LayerCount: 2
Fore
SplineSet
23 344 m 0
 23 277 76 220 143 220 c 0
 210 220 264 277 264 344 c 0
 264 411 210 467 143 467 c 0
 76 467 23 411 23 344 c 0
EndSplineSet
EndChar

StartChar: c
Encoding: 99 99 173
Width: 456
VWidth: 0
Flags: W
LayerCount: 2
Fore
SplineSet
41 263 m 0
 41 74 103 -12 240 -12 c 0
 350 -12 420 51 420 198 c 1
 301 198 l 1
 301 126 283 89 240 89 c 0
 186 89 166 143 166 244 c 2
 166 282 l 2
 166 383 185 437 236 437 c 0
 277 437 297 402 297 328 c 1
 420 328 l 1
 420 475 348 538 236 538 c 0
 106 538 41 452 41 263 c 0
228 526 m 0
228 0 m 0
EndSplineSet
EndChar

StartChar: cacute
Encoding: 263 263 174
Width: 456
VWidth: 0
Flags: W
LayerCount: 2
Fore
SplineSet
41 263 m 0
 41 74 103 -12 240 -12 c 0
 350 -12 420 51 420 198 c 1
 301 198 l 1
 301 126 283 89 240 89 c 0
 186 89 166 143 166 244 c 2
 166 282 l 2
 166 383 185 437 236 437 c 0
 277 437 297 402 297 328 c 1
 420 328 l 1
 420 475 348 538 236 538 c 0
 106 538 41 452 41 263 c 0
254 723 m 1
 168 591 l 1
 268 591 l 1
 375 720 l 1
 375 723 l 1
 254 723 l 1
EndSplineSet
EndChar

StartChar: caron
Encoding: 711 711 175
Width: 273
VWidth: 0
Flags: W
LayerCount: 2
Fore
SplineSet
269 723 m 1
 179 723 l 1
 135 654 l 1
 90 723 l 1
 0 723 l 1
 86 588 l 1
 184 588 l 1
 269 723 l 1
134.5 526 m 0
EndSplineSet
EndChar

StartChar: ccaron
Encoding: 269 269 176
Width: 456
VWidth: 0
Flags: W
LayerCount: 2
Fore
SplineSet
41 263 m 0
 41 74 103 -12 240 -12 c 0
 350 -12 420 51 420 198 c 1
 301 198 l 1
 301 126 283 89 240 89 c 0
 186 89 166 143 166 244 c 2
 166 282 l 2
 166 383 185 437 236 437 c 0
 277 437 297 402 297 328 c 1
 420 328 l 1
 420 475 348 538 236 538 c 0
 106 538 41 452 41 263 c 0
372 723 m 1
 282 723 l 1
 238 654 l 1
 193 723 l 1
 103 723 l 1
 189 588 l 1
 287 588 l 1
 372 723 l 1
EndSplineSet
EndChar

StartChar: ccedilla
Encoding: 231 231 177
Width: 456
VWidth: 0
Flags: W
LayerCount: 2
Fore
SplineSet
41 263 m 0
 41 96 89 9 195 -8 c 1
 187 -77 l 1
 219 -77 l 2
 245 -77 253 -85 253 -101 c 0
 253 -120 239 -125 217 -125 c 2
 146 -125 l 1
 146 -174 l 1
 170 -179 202 -182 230 -182 c 0
 273 -182 339 -168 339 -101 c 0
 339 -55 303 -36 260 -33 c 1
 262 -11 l 1
 359 -2 420 61 420 198 c 1
 301 198 l 1
 301 126 283 89 240 89 c 0
 186 89 166 143 166 244 c 2
 166 282 l 2
 166 383 185 437 236 437 c 0
 277 437 297 402 297 328 c 1
 420 328 l 1
 420 475 348 538 236 538 c 0
 106 538 41 452 41 263 c 0
EndSplineSet
EndChar

StartChar: ccircumflex
Encoding: 265 265 178
Width: 456
VWidth: 0
Flags: W
LayerCount: 2
Fore
SplineSet
41 263 m 0
 41 74 103 -12 240 -12 c 0
 350 -12 420 51 420 198 c 1
 301 198 l 1
 301 126 283 89 240 89 c 0
 186 89 166 143 166 244 c 2
 166 282 l 2
 166 383 185 437 236 437 c 0
 277 437 297 402 297 328 c 1
 420 328 l 1
 420 475 348 538 236 538 c 0
 106 538 41 452 41 263 c 0
287 723 m 1
 189 723 l 1
 103 588 l 1
 193 588 l 1
 238 657 l 1
 282 588 l 1
 372 588 l 1
 287 723 l 1
EndSplineSet
EndChar

StartChar: cdotaccent
Encoding: 267 267 179
Width: 456
VWidth: 0
Flags: W
LayerCount: 2
Fore
SplineSet
41 263 m 0
 41 74 103 -12 240 -12 c 0
 350 -12 420 51 420 198 c 1
 301 198 l 1
 301 126 283 89 240 89 c 0
 186 89 166 143 166 244 c 2
 166 282 l 2
 166 383 185 437 236 437 c 0
 277 437 297 402 297 328 c 1
 420 328 l 1
 420 475 348 538 236 538 c 0
 106 538 41 452 41 263 c 0
291 723 m 1
 184 723 l 1
 184 608 l 1
 291 608 l 1
 291 723 l 1
EndSplineSet
EndChar

StartChar: cedilla
Encoding: 184 184 180
Width: 273
VWidth: 0
Flags: W
LayerCount: 2
Fore
SplineSet
155 11 m 1
 87 11 l 1
 76 -77 l 1
 109 -77 l 2
 135 -77 143 -85 143 -101 c 0
 143 -120 129 -125 107 -125 c 2
 36 -125 l 1
 36 -174 l 1
 60 -179 92 -182 120 -182 c 0
 163 -182 229 -168 229 -101 c 0
 229 -55 193 -36 150 -33 c 1
 155 11 l 1
132.5 0 m 0
EndSplineSet
EndChar

StartChar: cent
Encoding: 162 162 181
Width: 456
VWidth: 0
Flags: W
LayerCount: 2
Fore
SplineSet
262 723 m 1
 207 723 l 1
 207 616 l 1
 96 604 41 517 41 343 c 0
 41 170 93 83 207 70 c 1
 207 -49 l 1
 262 -49 l 1
 262 69 l 1
 359 77 420 141 420 278 c 1
 313 278 l 1
 313 215 297 178 262 168 c 1
 262 516 l 1
 293 505 309 469 309 408 c 1
 420 408 l 1
 420 543 359 607 262 617 c 1
 262 723 l 1
207 172 m 1
 170 189 154 241 154 324 c 2
 154 362 l 2
 154 446 169 499 207 515 c 1
 207 172 l 1
EndSplineSet
EndChar

StartChar: circumflex
Encoding: 710 710 182
Width: 273
VWidth: 0
Flags: W
LayerCount: 2
Fore
SplineSet
184 723 m 1
 86 723 l 1
 0 588 l 1
 90 588 l 1
 135 657 l 1
 179 588 l 1
 269 588 l 1
 184 723 l 1
134.5 526 m 0
EndSplineSet
EndChar

StartChar: colon
Encoding: 58 58 183
Width: 273
VWidth: 0
Flags: W
LayerCount: 2
Fore
SplineSet
193 137 m 1
 55 137 l 1
 55 0 l 1
 193 0 l 1
 193 137 l 1
193 526 m 1
 55 526 l 1
 55 389 l 1
 193 389 l 1
 193 526 l 1
EndSplineSet
EndChar

StartChar: comma
Encoding: 44 44 184
Width: 228
VWidth: 0
Flags: W
LayerCount: 2
Fore
SplineSet
183 137 m 1
 45 137 l 1
 45 0 l 1
 100 0 l 1
 45 -156 l 1
 117 -156 l 1
 183 12 l 1
 183 137 l 1
EndSplineSet
EndChar

StartChar: commaaccentcomb
Encoding: 806 806 185
Width: 273
VWidth: 0
Flags: W
LayerCount: 2
Fore
SplineSet
197 -55 m 1
 73 -55 l 1
 73 -178 l 1
 122 -178 l 1
 86 -263 l 1
 151 -263 l 1
 197 -167 l 1
 197 -55 l 1
135 0 m 0
EndSplineSet
EndChar

StartChar: copyright
Encoding: 169 169 186
Width: 604
VWidth: 0
Flags: W
LayerCount: 2
Fore
SplineSet
16 343 m 0
 16 127 124 -12 302 -12 c 0
 480 -12 588 127 588 343 c 0
 588 559 480 698 302 698 c 0
 124 698 16 559 16 343 c 0
143 343 m 0
 143 200 203 134 304 134 c 0
 390 134 453 185 453 291 c 1
 369 291 l 1
 369 235 344 209 307 209 c 0
 256 209 231 254 231 329 c 2
 231 358 l 2
 231 433 255 478 304 478 c 0
 341 478 366 451 366 395 c 1
 453 395 l 1
 453 505 389 553 304 553 c 0
 203 553 143 486 143 343 c 0
532 343 m 0
 532 160 445 43 302 43 c 0
 159 43 72 160 72 343 c 0
 72 526 159 643 302 643 c 0
 445 643 532 526 532 343 c 0
EndSplineSet
EndChar

StartChar: currency
Encoding: 164 164 187
Width: 456
VWidth: 0
Flags: W
LayerCount: 2
Fore
SplineSet
102 528 m 1
 60 570 l 1
 0 508 l 1
 49 458 l 1
 31 423 22 384 22 342 c 0
 22 299 32 258 50 224 c 1
 0 174 l 1
 61 113 l 1
 103 155 l 1
 138 126 181 108 228 108 c 0
 274 108 317 126 352 155 c 1
 394 113 l 1
 455 174 l 1
 405 223 l 1
 423 258 434 298 434 342 c 0
 434 385 424 424 406 459 c 1
 455 508 l 1
 395 570 l 1
 353 528 l 1
 318 558 274 577 228 577 c 0
 180 577 137 558 102 528 c 1
349 342 m 0
 349 262 294 198 228 198 c 0
 161 198 106 262 106 342 c 0
 106 423 161 487 228 487 c 0
 294 487 349 423 349 342 c 0
EndSplineSet
EndChar

StartChar: d
Encoding: 100 100 188
Width: 501
VWidth: 0
Flags: W
LayerCount: 2
Fore
SplineSet
446 723 m 1
 326 723 l 1
 326 472 l 1
 321 472 l 1
 302 514 257 538 204 538 c 0
 111 538 41 455 41 264 c 0
 41 73 106 -12 210 -12 c 0
 260 -12 303 14 329 65 c 1
 334 65 l 1
 346 0 l 1
 446 0 l 1
 446 723 l 1
326 280 m 2
 326 244 l 2
 326 149 304 97 246 97 c 0
 188 97 166 149 166 244 c 2
 166 282 l 2
 166 377 188 429 246 429 c 0
 304 429 326 375 326 280 c 2
251 263 m 0
EndSplineSet
EndChar

StartChar: dadeva
Encoding: 2342 2342 189
Width: 394
VWidth: 0
Flags: W
LayerCount: 2
Fore
SplineSet
205 491 m 2
 94 491 21 420 21 284 c 0
 21 143 80 78 155 78 c 0
 213 78 258 109 272 142 c 1
 238 214 l 1
 228 193 218 176 189 176 c 0
 164 176 144 212 144 284 c 0
 144 350 169 385 210 385 c 2
 265 385 l 1
 265 491 l 1
 205 491 l 2
229 236 m 1
 229 0 l 1
 349 0 l 1
 349 236 l 1
 229 236 l 1
209 686 m 1
 209 385 l 1
 329 385 l 1
 329 686 l 1
 209 686 l 1
-16 686 m 1
 -16 580 l 1
 410 580 l 1
 410 686 l 1
 -16 686 l 1
287 686 m 0
287 0 m 0
EndSplineSet
EndChar

StartChar: dagger
Encoding: 8224 8224 190
Width: 456
VWidth: 0
Flags: W
LayerCount: 2
Fore
SplineSet
281 686 m 1
 173 686 l 1
 190 503 l 1
 25 520 l 1
 25 407 l 1
 190 425 l 1
 170 -173 l 1
 284 -173 l 1
 264 425 l 1
 430 407 l 1
 430 520 l 1
 264 503 l 1
 281 686 l 1
EndSplineSet
EndChar

StartChar: daggerdbl
Encoding: 8225 8225 191
Width: 456
VWidth: 0
Flags: W
LayerCount: 2
Fore
SplineSet
281 686 m 1
 173 686 l 1
 190 503 l 1
 25 520 l 1
 25 407 l 1
 190 425 l 1
 170 260 l 1
 190 91 l 1
 25 109 l 1
 25 -4 l 1
 190 13 l 1
 173 -173 l 1
 281 -173 l 1
 264 13 l 1
 430 -4 l 1
 430 109 l 1
 264 91 l 1
 284 260 l 1
 264 425 l 1
 430 407 l 1
 430 520 l 1
 264 503 l 1
 281 686 l 1
EndSplineSet
EndChar

StartChar: dcaron
Encoding: 271 271 192
Width: 589
VWidth: 0
Flags: W
LayerCount: 2
Fore
SplineSet
446 723 m 1
 326 723 l 1
 326 472 l 1
 321 472 l 1
 302 514 257 538 204 538 c 0
 111 538 41 455 41 264 c 0
 41 73 106 -12 210 -12 c 0
 260 -12 303 14 329 65 c 1
 334 65 l 1
 346 0 l 1
 446 0 l 1
 446 723 l 1
326 280 m 2
 326 244 l 2
 326 149 304 97 246 97 c 0
 188 97 166 149 166 244 c 2
 166 282 l 2
 166 377 188 429 246 429 c 0
 304 429 326 375 326 280 c 2
615 686 m 1
 477 686 l 1
 477 549 l 1
 532 549 l 1
 477 393 l 1
 549 393 l 1
 615 561 l 1
 615 686 l 1
EndSplineSet
EndChar

StartChar: dcroat
Encoding: 273 273 193
Width: 504
VWidth: 0
Flags: W
LayerCount: 2
Fore
SplineSet
326 723 m 1
 326 670 l 1
 194 670 l 1
 194 583 l 1
 326 583 l 1
 326 472 l 1
 321 472 l 1
 302 514 257 538 204 538 c 0
 111 538 41 455 41 264 c 0
 41 73 106 -12 210 -12 c 0
 260 -12 303 14 329 65 c 1
 334 65 l 1
 346 0 l 1
 446 0 l 1
 446 583 l 1
 500 583 l 1
 500 670 l 1
 446 670 l 1
 446 723 l 1
 326 723 l 1
326 280 m 2
 326 244 l 2
 326 149 304 97 246 97 c 0
 188 97 166 149 166 244 c 2
 166 282 l 2
 166 377 188 429 246 429 c 0
 304 429 326 375 326 280 c 2
EndSplineSet
EndChar

StartChar: degree
Encoding: 176 176 194
Width: 400
VWidth: 0
Flags: W
LayerCount: 2
Fore
SplineSet
56 556 m 0
 56 477 119 414 198 414 c 0
 277 414 340 477 340 556 c 0
 340 635 277 698 198 698 c 0
 119 698 56 635 56 556 c 0
271 556 m 0
 271 515 239 482 198 482 c 0
 157 482 124 515 124 556 c 0
 124 597 157 629 198 629 c 0
 239 629 271 597 271 556 c 0
EndSplineSet
EndChar

StartChar: dieresis
Encoding: 168 168 195
Width: 273
VWidth: 0
Flags: W
LayerCount: 2
Fore
SplineSet
274 723 m 1
 174 723 l 1
 174 614 l 1
 274 614 l 1
 274 723 l 1
99 723 m 1
 -1 723 l 1
 -1 614 l 1
 99 614 l 1
 99 723 l 1
136.5 526 m 0
EndSplineSet
EndChar

StartChar: divide
Encoding: 247 247 196
Width: 549
VWidth: 0
Flags: W
LayerCount: 2
Fore
SplineSet
515 307 m 1
 33 307 l 1
 33 203 l 1
 515 203 l 1
 515 307 l 1
326 151 m 1
 222 151 l 1
 222 41 l 1
 326 41 l 1
 326 151 l 1
326 470 m 1
 222 470 l 1
 222 359 l 1
 326 359 l 1
 326 470 l 1
EndSplineSet
EndChar

StartChar: divisionslash
Encoding: 8725 8725 197
Width: 94
VWidth: 0
Flags: W
LayerCount: 2
Fore
SplineSet
297 698 m 1
 231 698 l 1
 -165 -12 l 1
 -98 -12 l 1
 297 698 l 1
EndSplineSet
EndChar

StartChar: dollar
Encoding: 36 36 198
Width: 456
VWidth: 0
Flags: W
LayerCount: 2
Fore
SplineSet
253 723 m 1
 198 723 l 1
 198 616 l 1
 108 607 41 554 41 458 c 0
 41 350 124 325 198 304 c 1
 198 161 l 1
 169 170 144 194 144 240 c 2
 144 247 l 1
 34 247 l 1
 34 247 33 240 33 235 c 0
 33 142 93 78 198 69 c 1
 198 -49 l 1
 253 -49 l 1
 253 69 l 1
 350 76 420 121 420 238 c 0
 420 353 329 377 253 397 c 1
 253 526 l 1
 279 516 295 493 296 454 c 1
 296 452 l 1
 406 452 l 1
 406 453 407 464 407 475 c 0
 407 557 341 609 253 617 c 1
 253 723 l 1
253 286 m 1
 286 273 310 256 310 223 c 0
 310 185 282 166 253 159 c 1
 253 286 l 1
198 414 m 1
 170 425 151 440 151 468 c 0
 151 496 170 517 198 526 c 1
 198 414 l 1
EndSplineSet
EndChar

StartChar: dotaccent
Encoding: 729 729 199
Width: 273
VWidth: 0
Flags: W
LayerCount: 2
Fore
SplineSet
190 723 m 1
 83 723 l 1
 83 608 l 1
 190 608 l 1
 190 723 l 1
136.5 526 m 0
EndSplineSet
EndChar

StartChar: dotlessi
Encoding: 305 305 200
Width: 228
VWidth: 0
Flags: W
LayerCount: 2
Fore
SplineSet
174 526 m 1
 54 526 l 1
 54 0 l 1
 174 0 l 1
 174 526 l 1
205 10 m 0
114 526 m 0
EndSplineSet
EndChar

StartChar: dottedcircle
Encoding: 9676 9676 201
Width: 496
VWidth: 0
Flags: W
LayerCount: 2
Fore
SplineSet
407 429 m 1
 366 463 319 481 269 485 c 1
 269 442 l 1
 309 438 344 424 376 401 c 1
 407 429 l 1
88 369 m 1
 58 401 l 1
 23 360 4 315 0 265 c 1
 43 265 l 1
 48 305 63 340 88 369 c 1
496 265 m 1
 491 316 471 362 437 401 c 1
 407 370 l 1
 433 341 449 306 452 265 c 1
 496 265 l 1
452 225 m 1
 449 183 433 146 410 114 c 1
 441 84 l 1
 474 123 492 171 496 225 c 1
 452 225 l 1
85 115 m 1
 60 148 46 184 43 225 c 1
 0 225 l 1
 4 168 23 122 55 84 c 1
 85 115 l 1
381 84 m 1
 347 58 309 42 269 39 c 1
 269 -4 l 1
 319 0 366 19 410 55 c 1
 381 84 l 1
227 39 m 1
 185 42 147 58 113 84 c 1
 85 55 l 1
 129 19 177 0 227 -4 c 1
 227 39 l 1
227 442 m 1
 227 485 l 1
 177 481 131 463 89 429 c 1
 121 401 l 1
 152 424 187 438 227 442 c 1
EndSplineSet
EndChar

StartChar: e
Encoding: 101 101 202
Width: 456
VWidth: 0
Flags: W
LayerCount: 2
Fore
SplineSet
31 263 m 0
 31 74 102 -12 237 -12 c 0
 344 -12 423 51 423 186 c 1
 304 186 l 1
 304 123 278 86 237 86 c 0
 178 86 157 139 156 233 c 1
 423 233 l 1
 423 263 l 2
 423 452 360 538 233 538 c 0
 103 538 31 452 31 263 c 0
297 320 m 1
 157 320 l 1
 161 396 182 440 233 440 c 0
 277 440 297 396 297 320 c 1
410 10 m 0
228 0 m 0
228 526 m 0
EndSplineSet
EndChar

StartChar: eacute
Encoding: 233 233 203
Width: 456
VWidth: 0
Flags: W
LayerCount: 2
Fore
SplineSet
31 263 m 0
 31 74 102 -12 237 -12 c 0
 344 -12 423 51 423 186 c 1
 304 186 l 1
 304 123 278 86 237 86 c 0
 178 86 157 139 156 233 c 1
 423 233 l 1
 423 263 l 2
 423 452 360 538 233 538 c 0
 103 538 31 452 31 263 c 0
297 320 m 1
 157 320 l 1
 161 396 182 440 233 440 c 0
 277 440 297 396 297 320 c 1
245 723 m 1
 159 591 l 1
 258 591 l 1
 366 720 l 1
 365 723 l 1
 245 723 l 1
EndSplineSet
EndChar

StartChar: ebreve
Encoding: 277 277 204
Width: 456
VWidth: 0
Flags: W
LayerCount: 2
Fore
SplineSet
31 263 m 0
 31 74 102 -12 237 -12 c 0
 344 -12 423 51 423 186 c 1
 304 186 l 1
 304 123 278 86 237 86 c 0
 178 86 157 139 156 233 c 1
 423 233 l 1
 423 263 l 2
 423 452 360 538 233 538 c 0
 103 538 31 452 31 263 c 0
297 320 m 1
 157 320 l 1
 161 396 182 440 233 440 c 0
 277 440 297 396 297 320 c 1
288 723 m 1
 286 709 262 690 228 690 c 0
 195 690 172 709 169 723 c 1
 95 723 l 1
 95 673 146 616 228 616 c 0
 311 616 362 673 362 723 c 1
 288 723 l 1
EndSplineSet
EndChar

StartChar: ecaron
Encoding: 283 283 205
Width: 456
VWidth: 0
Flags: W
LayerCount: 2
Fore
SplineSet
31 263 m 0
 31 74 102 -12 237 -12 c 0
 344 -12 423 51 423 186 c 1
 304 186 l 1
 304 123 278 86 237 86 c 0
 178 86 157 139 156 233 c 1
 423 233 l 1
 423 263 l 2
 423 452 360 538 233 538 c 0
 103 538 31 452 31 263 c 0
297 320 m 1
 157 320 l 1
 161 396 182 440 233 440 c 0
 277 440 297 396 297 320 c 1
363 723 m 1
 273 723 l 1
 229 654 l 1
 184 723 l 1
 94 723 l 1
 180 588 l 1
 278 588 l 1
 363 723 l 1
EndSplineSet
EndChar

StartChar: ecircumflex
Encoding: 234 234 206
Width: 456
VWidth: 0
Flags: W
LayerCount: 2
Fore
SplineSet
31 263 m 0
 31 74 102 -12 237 -12 c 0
 344 -12 423 51 423 186 c 1
 304 186 l 1
 304 123 278 86 237 86 c 0
 178 86 157 139 156 233 c 1
 423 233 l 1
 423 263 l 2
 423 452 360 538 233 538 c 0
 103 538 31 452 31 263 c 0
297 320 m 1
 157 320 l 1
 161 396 182 440 233 440 c 0
 277 440 297 396 297 320 c 1
278 723 m 1
 180 723 l 1
 94 588 l 1
 184 588 l 1
 229 657 l 1
 273 588 l 1
 363 588 l 1
 278 723 l 1
EndSplineSet
EndChar

StartChar: edieresis
Encoding: 235 235 207
Width: 456
VWidth: 0
Flags: W
LayerCount: 2
Fore
SplineSet
31 263 m 0
 31 74 102 -12 237 -12 c 0
 344 -12 423 51 423 186 c 1
 304 186 l 1
 304 123 278 86 237 86 c 0
 178 86 157 139 156 233 c 1
 423 233 l 1
 423 263 l 2
 423 452 360 538 233 538 c 0
 103 538 31 452 31 263 c 0
297 320 m 1
 157 320 l 1
 161 396 182 440 233 440 c 0
 277 440 297 396 297 320 c 1
91 723 m 1
 91 614 l 1
 191 614 l 1
 191 723 l 1
 91 723 l 1
266 723 m 1
 266 614 l 1
 366 614 l 1
 366 723 l 1
 266 723 l 1
EndSplineSet
EndChar

StartChar: edotaccent
Encoding: 279 279 208
Width: 456
VWidth: 0
Flags: W
LayerCount: 2
Fore
SplineSet
31 263 m 0
 31 74 102 -12 237 -12 c 0
 344 -12 423 51 423 186 c 1
 304 186 l 1
 304 123 278 86 237 86 c 0
 178 86 157 139 156 233 c 1
 423 233 l 1
 423 263 l 2
 423 452 360 538 233 538 c 0
 103 538 31 452 31 263 c 0
297 320 m 1
 157 320 l 1
 161 396 182 440 233 440 c 0
 277 440 297 396 297 320 c 1
282 723 m 1
 175 723 l 1
 175 608 l 1
 282 608 l 1
 282 723 l 1
EndSplineSet
EndChar

StartChar: egrave
Encoding: 232 232 209
Width: 456
VWidth: 0
Flags: W
LayerCount: 2
Fore
SplineSet
31 263 m 0
 31 74 102 -12 237 -12 c 0
 344 -12 423 51 423 186 c 1
 304 186 l 1
 304 123 278 86 237 86 c 0
 178 86 157 139 156 233 c 1
 423 233 l 1
 423 263 l 2
 423 452 360 538 233 538 c 0
 103 538 31 452 31 263 c 0
297 320 m 1
 157 320 l 1
 161 396 182 440 233 440 c 0
 277 440 297 396 297 320 c 1
91 723 m 1
 90 720 l 1
 198 591 l 1
 297 591 l 1
 211 723 l 1
 91 723 l 1
EndSplineSet
EndChar

StartChar: eight
Encoding: 56 56 210
Width: 456
VWidth: 0
Flags: W
LayerCount: 2
Fore
SplineSet
44 507 m 0
 44 442 68 385 118 352 c 1
 56 321 30 262 30 188 c 0
 30 78 88 -12 228 -12 c 0
 368 -12 426 78 426 188 c 0
 426 262 400 321 337 352 c 1
 387 385 412 442 412 507 c 0
 412 612 350 698 228 698 c 0
 106 698 44 612 44 507 c 0
302 194 m 0
 302 125 276 88 228 88 c 0
 180 88 154 125 154 194 c 0
 154 263 180 301 228 301 c 0
 276 301 302 263 302 194 c 0
291 499 m 0
 291 434 268 400 228 400 c 0
 188 400 166 434 166 499 c 0
 166 564 188 598 228 598 c 0
 268 598 291 564 291 499 c 0
EndSplineSet
EndChar

StartChar: ellipsis
Encoding: 8230 8230 211
Width: 820
VWidth: 0
Flags: W
LayerCount: 2
Fore
SplineSet
752 137 m 1
 614 137 l 1
 614 0 l 1
 752 0 l 1
 752 137 l 1
206 137 m 1
 68 137 l 1
 68 0 l 1
 206 0 l 1
 206 137 l 1
479 137 m 1
 341 137 l 1
 341 0 l 1
 479 0 l 1
 479 137 l 1
EndSplineSet
EndChar

StartChar: emacron
Encoding: 275 275 212
Width: 456
VWidth: 0
Flags: W
LayerCount: 2
Fore
SplineSet
31 263 m 0
 31 74 102 -12 237 -12 c 0
 344 -12 423 51 423 186 c 1
 304 186 l 1
 304 123 278 86 237 86 c 0
 178 86 157 139 156 233 c 1
 423 233 l 1
 423 263 l 2
 423 452 360 538 233 538 c 0
 103 538 31 452 31 263 c 0
297 320 m 1
 157 320 l 1
 161 396 182 440 233 440 c 0
 277 440 297 396 297 320 c 1
356 686 m 1
 101 686 l 1
 101 599 l 1
 356 599 l 1
 356 686 l 1
EndSplineSet
EndChar

StartChar: emdash
Encoding: 8212 8212 213
Width: 820
VWidth: 0
Flags: W
LayerCount: 2
Fore
SplineSet
820 319 m 1
 0 319 l 1
 0 221 l 1
 820 221 l 1
 820 319 l 1
EndSplineSet
EndChar

StartChar: endash
Encoding: 8211 8211 214
Width: 456
VWidth: 0
Flags: W
LayerCount: 2
Fore
SplineSet
456 319 m 1
 0 319 l 1
 0 221 l 1
 456 221 l 1
 456 319 l 1
EndSplineSet
EndChar

StartChar: eng
Encoding: 331 331 215
Width: 501
VWidth: 0
Flags: W
LayerCount: 2
Fore
SplineSet
173 461 m 1
 167 461 l 1
 155 526 l 1
 55 526 l 1
 55 0 l 1
 175 0 l 1
 175 324 l 2
 175 383 210 429 257 429 c 0
 300 429 326 404 326 336 c 2
 326 -33 l 2
 326 -64 310 -81 279 -81 c 2
 235 -81 l 1
 235 -170 l 1
 256 -176 294 -182 324 -182 c 0
 420 -182 446 -111 446 -41 c 2
 446 369 l 2
 446 493 387 538 306 538 c 0
 243 538 200 502 173 461 c 1
EndSplineSet
EndChar

StartChar: eogonek
Encoding: 281 281 216
Width: 456
VWidth: 0
Flags: W
LayerCount: 2
Fore
SplineSet
31 263 m 0
 31 74 102 -12 237 -12 c 0
 245 -12 254 -12 263 -11 c 1
 247 12 l 1
 220 -15 196 -43 196 -95 c 0
 196 -164 250 -185 295 -185 c 0
 317 -185 338 -180 361 -171 c 1
 361 -116 l 1
 339 -116 l 2
 306 -116 294 -91 294 -65 c 0
 294 -37 312 -9 324 5 c 1
 384 32 423 91 423 186 c 1
 304 186 l 1
 304 123 278 86 237 86 c 0
 178 86 157 139 156 233 c 1
 423 233 l 1
 423 263 l 2
 423 452 360 538 233 538 c 0
 103 538 31 452 31 263 c 0
297 320 m 1
 157 320 l 1
 161 396 182 440 233 440 c 0
 277 440 297 396 297 320 c 1
EndSplineSet
EndChar

StartChar: equal
Encoding: 61 61 217
Width: 479
VWidth: 0
Flags: W
LayerCount: 2
Fore
SplineSet
445 412 m 1
 33 412 l 1
 33 308 l 1
 445 308 l 1
 445 412 l 1
445 199 m 1
 33 199 l 1
 33 96 l 1
 445 96 l 1
 445 199 l 1
EndSplineSet
EndChar

StartChar: equivalence
Encoding: 8801 8801 218
Width: 478
VWidth: 0
Flags: W
LayerCount: 2
Fore
SplineSet
445 546 m 1
 33 546 l 1
 33 442 l 1
 445 442 l 1
 445 546 l 1
445 120 m 1
 33 120 l 1
 33 17 l 1
 445 17 l 1
 445 120 l 1
445 333 m 1
 33 333 l 1
 33 229 l 1
 445 229 l 1
 445 333 l 1
EndSplineSet
EndChar

StartChar: estimated
Encoding: 8494 8494 219
Width: 600
VWidth: 0
Flags: W
LayerCount: 2
Fore
SplineSet
45 263 m 0
 45 104 142 -12 302 -12 c 0
 406 -12 484 38 526 118 c 1
 492 139 l 1
 458 72 390 30 302 30 c 0
 240 30 190 49 153 83 c 1
 153 248 l 1
 559 248 l 1
 559 253 l 2
 559 418 461 538 302 538 c 0
 142 538 45 422 45 263 c 0
451 441 m 1
 451 290 l 1
 153 290 l 1
 153 442 l 1
 190 476 240 496 302 496 c 0
 363 496 413 476 451 441 c 1
EndSplineSet
EndChar

StartChar: eth
Encoding: 240 240 220
Width: 501
VWidth: 0
Flags: W
LayerCount: 2
Fore
SplineSet
132 723 m 1
 130 719 l 1
 143 706 163 687 183 664 c 1
 108 657 l 1
 108 584 l 1
 237 595 l 1
 251 575 265 553 275 534 c 1
 272 530 l 1
 257 535 238 538 223 538 c 0
 111 538 41 444 41 263 c 0
 41 74 111 -12 251 -12 c 0
 391 -12 461 74 461 263 c 0
 461 421 415 531 363 607 c 1
 438 614 l 1
 438 687 l 1
 308 675 l 1
 289 695 272 711 258 723 c 1
 132 723 l 1
336 282 m 2
 336 244 l 2
 336 143 313 89 251 89 c 0
 189 89 166 143 166 244 c 2
 166 282 l 2
 166 383 189 437 251 437 c 0
 313 437 336 383 336 282 c 2
EndSplineSet
EndChar

StartChar: exclam
Encoding: 33 33 221
Width: 273
VWidth: 0
Flags: W
LayerCount: 2
Fore
SplineSet
60 686 m 1
 72 523 83 360 95 197 c 1
 177 197 l 1
 189 360 201 523 213 686 c 1
 60 686 l 1
68 137 m 1
 68 0 l 1
 206 0 l 1
 206 137 l 1
 68 137 l 1
EndSplineSet
EndChar

StartChar: exclamdbl
Encoding: 8252 8252 222
Width: 546
VWidth: 0
Flags: W
LayerCount: 2
Fore
SplineSet
333 686 m 1
 345 523 356 360 368 197 c 1
 450 197 l 1
 462 360 474 523 486 686 c 1
 333 686 l 1
68 137 m 1
 68 0 l 1
 206 0 l 1
 206 137 l 1
 68 137 l 1
341 137 m 1
 341 0 l 1
 479 0 l 1
 479 137 l 1
 341 137 l 1
60 686 m 1
 72 523 83 360 95 197 c 1
 177 197 l 1
 189 360 201 523 213 686 c 1
 60 686 l 1
EndSplineSet
EndChar

StartChar: exclamdown
Encoding: 161 161 223
Width: 273
VWidth: 0
Flags: W
LayerCount: 2
Fore
SplineSet
95 329 m 1
 83 166 72 3 60 -160 c 1
 213 -160 l 1
 201 3 189 166 177 329 c 1
 95 329 l 1
68 526 m 1
 68 389 l 1
 206 389 l 1
 206 526 l 1
 68 526 l 1
EndSplineSet
EndChar

StartChar: f
Encoding: 102 102 224
Width: 273
VWidth: 0
Flags: W
LayerCount: 2
Fore
SplineSet
62 590 m 2
 62 526 l 1
 9 526 l 1
 9 425 l 1
 62 425 l 1
 62 0 l 1
 182 0 l 1
 182 425 l 1
 273 425 l 1
 273 526 l 1
 182 526 l 1
 182 587 l 2
 182 615 197 630 224 630 c 2
 273 630 l 1
 273 719 l 1
 253 725 214 731 186 731 c 0
 90 731 62 660 62 590 c 2
EndSplineSet
EndChar

StartChar: fi
Encoding: 64257 64257 225
Width: 501
VWidth: 0
Flags: W
LayerCount: 2
Fore
SplineSet
62 590 m 2
 62 526 l 1
 9 526 l 1
 9 425 l 1
 62 425 l 1
 62 0 l 1
 182 0 l 1
 182 425 l 1
 273 425 l 1
 273 526 l 1
 182 526 l 1
 182 587 l 2
 182 615 197 630 224 630 c 2
 273 630 l 1
 273 719 l 1
 253 725 214 731 186 731 c 0
 90 731 62 660 62 590 c 2
447 526 m 1
 327 526 l 1
 327 0 l 1
 447 0 l 1
 447 526 l 1
447 723 m 1
 327 723 l 1
 327 614 l 1
 447 614 l 1
 447 723 l 1
EndSplineSet
EndChar

StartChar: firsttonechinese
Encoding: 713 713 226
Width: 500
VWidth: 0
Flags: W
LayerCount: 2
Fore
SplineSet
500 860 m 1
 0 860 l 1
 0 791 l 1
 500 791 l 1
 500 860 l 1
EndSplineSet
EndChar

StartChar: five
Encoding: 53 53 227
Width: 456
VWidth: 0
Flags: W
LayerCount: 2
Fore
SplineSet
404 686 m 1
 72 686 l 1
 49 306 l 1
 165 290 l 1
 180 323 202 348 239 348 c 0
 279 348 309 304 309 224 c 0
 309 134 278 88 232 88 c 0
 183 88 155 137 155 213 c 1
 30 213 l 1
 30 73 110 -12 232 -12 c 0
 356 -12 433 73 433 224 c 0
 433 375 359 446 266 446 c 0
 218 446 188 428 168 412 c 1
 178 574 l 1
 404 574 l 1
 404 686 l 1
EndSplineSet
EndChar

StartChar: fiveeighths
Encoding: 8541 8541 228
Width: 684
VWidth: 0
Flags: W
LayerCount: 2
Fore
SplineSet
578 698 m 1
 512 698 l 1
 116 -12 l 1
 183 -12 l 1
 578 698 l 1
252 686 m 1
 50 686 l 1
 37 457 l 1
 112 445 l 1
 120 466 132 481 152 481 c 0
 172 481 187 456 187 413 c 0
 187 364 171 339 148 339 c 0
 122 339 108 364 108 402 c 1
 25 402 l 1
 25 321 74 272 148 272 c 0
 222 272 270 323 270 413 c 0
 270 503 224 546 167 546 c 0
 146 546 126 536 116 529 c 1
 120 611 l 1
 252 611 l 1
 252 686 l 1
575 112 m 0
 575 74 562 55 537 55 c 0
 513 55 499 74 499 112 c 0
 499 149 513 169 537 169 c 0
 562 169 575 149 575 112 c 0
425 293 m 0
 425 259 440 224 464 203 c 1
 432 183 417 149 417 108 c 0
 417 41 452 -13 537 -13 c 0
 622 -13 657 41 657 108 c 0
 657 149 642 184 610 204 c 1
 635 224 649 257 649 293 c 0
 649 357 611 409 537 409 c 0
 463 409 425 357 425 293 c 0
568 288 m 0
 568 254 558 236 537 236 c 0
 516 236 506 254 506 288 c 0
 506 324 516 341 537 341 c 0
 558 341 568 324 568 288 c 0
EndSplineSet
EndChar

StartChar: fl
Encoding: 64258 64258 229
Width: 501
VWidth: 0
Flags: W
LayerCount: 2
Fore
SplineSet
62 590 m 2
 62 526 l 1
 9 526 l 1
 9 425 l 1
 62 425 l 1
 62 0 l 1
 182 0 l 1
 182 425 l 1
 273 425 l 1
 273 526 l 1
 182 526 l 1
 182 587 l 2
 182 615 197 630 224 630 c 2
 273 630 l 1
 273 719 l 1
 253 725 214 731 186 731 c 0
 90 731 62 660 62 590 c 2
447 723 m 1
 327 723 l 1
 327 0 l 1
 447 0 l 1
 447 723 l 1
EndSplineSet
EndChar

StartChar: florin
Encoding: 402 402 230
Width: 456
VWidth: 0
Flags: W
LayerCount: 2
Fore
SplineSet
217 590 m 2
 203 487 l 1
 130 487 l 1
 116 386 l 1
 189 386 l 1
 129 -38 l 2
 125 -66 108 -81 81 -81 c 2
 32 -81 l 1
 19 -170 l 1
 38 -176 76 -182 104 -182 c 0
 200 -182 239 -111 249 -41 c 2
 309 386 l 1
 400 386 l 1
 414 487 l 1
 323 487 l 1
 337 587 l 2
 341 615 358 630 385 630 c 2
 434 630 l 1
 447 719 l 1
 428 725 390 731 362 731 c 0
 266 731 227 660 217 590 c 2
EndSplineSet
EndChar

StartChar: four
Encoding: 52 52 231
Width: 456
VWidth: 0
Flags: W
LayerCount: 2
Fore
SplineSet
181 698 m 1
 141 546 80 378 8 251 c 1
 8 155 l 1
 255 155 l 1
 255 0 l 1
 375 0 l 1
 375 155 l 1
 445 155 l 1
 445 256 l 1
 375 256 l 1
 375 596 l 1
 322 596 l 1
 309 543 281 462 255 410 c 1
 255 256 l 1
 112 256 l 1
 150 310 263 520 301 698 c 1
 181 698 l 1
EndSplineSet
EndChar

StartChar: fraction
Encoding: 8260 8260 232
Width: 137
VWidth: 0
Flags: W
LayerCount: 2
Fore
SplineSet
296 698 m 1
 230 698 l 1
 -166 -12 l 1
 -99 -12 l 1
 296 698 l 1
EndSplineSet
EndChar

StartChar: franc
Encoding: 8355 8355 233
Width: 504
VWidth: 0
Flags: W
LayerCount: 2
Fore
SplineSet
499 481 m 1
 499 481 488 489 469 489 c 0
 422 489 400 444 388 400 c 1
 382 400 l 1
 368 477 l 1
 268 477 l 1
 268 399 l 1
 168 399 l 1
 168 572 l 1
 393 572 l 1
 393 686 l 1
 40 686 l 1
 40 0 l 1
 168 0 l 1
 168 285 l 1
 268 285 l 1
 268 0 l 1
 388 0 l 1
 388 244 l 2
 388 337 434 365 486 365 c 2
 499 365 l 1
 499 481 l 1
EndSplineSet
EndChar

StartChar: g
Encoding: 103 103 234
Width: 501
VWidth: 0
Flags: W
LayerCount: 2
Fore
SplineSet
387 614 m 1
 387 595 376 552 336 523 c 1
 311 533 281 538 248 538 c 0
 122 538 54 467 54 359 c 0
 54 297 76 248 118 217 c 1
 76 202 41 171 41 125 c 0
 41 89 57 62 83 46 c 1
 45 25 16 -9 16 -61 c 0
 16 -133 68 -182 132 -182 c 2
 325 -182 l 2
 419 -182 495 -118 495 -20 c 0
 495 64 441 117 375 117 c 2
 193 117 l 2
 175 117 162 130 162 148 c 0
 162 166 177 180 198 180 c 2
 248 180 l 2
 375 180 443 251 443 359 c 0
 443 408 428 450 401 480 c 1
 454 496 486 539 486 614 c 1
 387 614 l 1
325 6 m 2
 352 6 374 -12 374 -42 c 0
 374 -72 350 -91 320 -91 c 2
 185 -91 l 2
 158 -91 137 -72 137 -42 c 0
 137 -16 158 6 185 6 c 2
 325 6 l 2
323 359 m 0
 323 303 298 269 248 269 c 0
 199 269 174 303 174 359 c 0
 174 415 199 449 248 449 c 0
 298 449 323 415 323 359 c 0
251 526 m 0
EndSplineSet
EndChar

StartChar: ga-deva
Encoding: 2327 2327 235
Width: 583
VWidth: 0
Flags: W
LayerCount: 2
Fore
SplineSet
-34 686 m 1
 -34 580 l 1
 488 580 l 1
 488 686 l 1
 -34 686 l 1
179 624 m 1
 179 237 l 2
 179 213 167 191 145 191 c 0
 123 191 111 208 111 237 c 0
 111 262 125 283 146 283 c 2
 241 283 l 1
 241 389 l 1
 146 389 l 2
 59 389 1 326 1 237 c 0
 1 139 51 85 145 85 c 0
 241 85 299 149 299 237 c 2
 299 624 l 1
 179 624 l 1
461 686 m 0
461 0 m 0
EndSplineSet
Refer: 411 2366 N 1 0 0 1 329 0 2
EndChar

StartChar: gbreve
Encoding: 287 287 236
Width: 501
VWidth: 0
Flags: W
LayerCount: 2
Fore
SplineSet
387 614 m 1
 387 595 376 552 336 523 c 1
 311 533 281 538 248 538 c 0
 122 538 54 467 54 359 c 0
 54 297 76 248 118 217 c 1
 76 202 41 171 41 125 c 0
 41 89 57 62 83 46 c 1
 45 25 16 -9 16 -61 c 0
 16 -133 68 -182 132 -182 c 2
 325 -182 l 2
 419 -182 495 -118 495 -20 c 0
 495 64 441 117 375 117 c 2
 193 117 l 2
 175 117 162 130 162 148 c 0
 162 166 177 180 198 180 c 2
 248 180 l 2
 375 180 443 251 443 359 c 0
 443 408 428 450 401 480 c 1
 454 496 486 539 486 614 c 1
 387 614 l 1
325 6 m 2
 352 6 374 -12 374 -42 c 0
 374 -72 350 -91 320 -91 c 2
 185 -91 l 2
 158 -91 137 -72 137 -42 c 0
 137 -16 158 6 185 6 c 2
 325 6 l 2
323 359 m 0
 323 303 298 269 248 269 c 0
 199 269 174 303 174 359 c 0
 174 415 199 449 248 449 c 0
 298 449 323 415 323 359 c 0
310 723 m 1
 308 709 284 690 250 690 c 0
 217 690 194 709 191 723 c 1
 117 723 l 1
 117 673 168 616 250 616 c 0
 333 616 384 673 384 723 c 1
 310 723 l 1
EndSplineSet
EndChar

StartChar: gcircumflex
Encoding: 285 285 237
Width: 501
VWidth: 0
Flags: W
LayerCount: 2
Fore
SplineSet
408 614 m 1
 408 595 410 526 336 523 c 1
 311 533 281 538 248 538 c 0
 122 538 54 467 54 359 c 0
 54 297 76 248 118 217 c 1
 76 202 41 171 41 125 c 0
 41 89 57 62 83 46 c 1
 45 25 16 -9 16 -61 c 0
 16 -133 68 -182 132 -182 c 2
 325 -182 l 2
 419 -182 495 -118 495 -20 c 0
 495 64 441 117 375 117 c 2
 193 117 l 2
 175 117 162 130 162 148 c 0
 162 166 177 180 198 180 c 2
 248 180 l 2
 375 180 443 251 443 359 c 0
 443 408 428 450 401 480 c 1
 454 496 486 539 486 614 c 1
 408 614 l 1
325 6 m 2
 352 6 374 -12 374 -42 c 0
 374 -72 350 -91 320 -91 c 2
 185 -91 l 2
 158 -91 137 -72 137 -42 c 0
 137 -16 158 6 185 6 c 2
 325 6 l 2
323 359 m 0
 323 303 298 269 248 269 c 0
 199 269 174 303 174 359 c 0
 174 415 199 449 248 449 c 0
 298 449 323 415 323 359 c 0
300 723 m 1
 202 723 l 1
 116 588 l 1
 206 588 l 1
 251 657 l 1
 295 588 l 1
 385 588 l 1
 300 723 l 1
EndSplineSet
EndChar

StartChar: gcommaaccent
Encoding: 291 291 238
Width: 501
VWidth: 0
Flags: W
LayerCount: 2
Fore
SplineSet
387 614 m 1
 387 595 376 552 336 523 c 1
 311 533 281 538 248 538 c 0
 122 538 54 467 54 359 c 0
 54 297 76 248 118 217 c 1
 76 202 41 171 41 125 c 0
 41 89 57 62 83 46 c 1
 45 25 16 -9 16 -61 c 0
 16 -133 68 -182 132 -182 c 2
 325 -182 l 2
 419 -182 495 -118 495 -20 c 0
 495 64 441 117 375 117 c 2
 193 117 l 2
 175 117 162 130 162 148 c 0
 162 166 177 180 198 180 c 2
 248 180 l 2
 375 180 443 251 443 359 c 0
 443 408 428 450 401 480 c 1
 454 496 486 539 486 614 c 1
 387 614 l 1
374 -42 m 0
 374 -72 350 -91 320 -91 c 2
 185 -91 l 2
 158 -91 137 -72 137 -42 c 0
 137 -16 158 6 185 6 c 2
 325 6 l 2
 352 6 374 -12 374 -42 c 0
323 359 m 0
 323 303 298 269 248 269 c 0
 199 269 174 303 174 359 c 0
 174 415 199 449 248 449 c 0
 298 449 323 415 323 359 c 0
223 798 m 1
 177 702 l 1
 177 590 l 1
 301 590 l 1
 301 713 l 1
 252 713 l 1
 288 798 l 1
 223 798 l 1
EndSplineSet
EndChar

StartChar: gdotaccent
Encoding: 289 289 239
Width: 501
VWidth: 0
Flags: W
LayerCount: 2
Fore
SplineSet
387 614 m 1
 387 595 376 552 336 523 c 1
 311 533 281 538 248 538 c 0
 122 538 54 467 54 359 c 0
 54 297 76 248 118 217 c 1
 76 202 41 171 41 125 c 0
 41 89 57 62 83 46 c 1
 45 25 16 -9 16 -61 c 0
 16 -133 68 -182 132 -182 c 2
 325 -182 l 2
 419 -182 495 -118 495 -20 c 0
 495 64 441 117 375 117 c 2
 193 117 l 2
 175 117 162 130 162 148 c 0
 162 166 177 180 198 180 c 2
 248 180 l 2
 375 180 443 251 443 359 c 0
 443 408 428 450 401 480 c 1
 454 496 486 539 486 614 c 1
 387 614 l 1
325 6 m 2
 352 6 374 -12 374 -42 c 0
 374 -72 350 -91 320 -91 c 2
 185 -91 l 2
 158 -91 137 -72 137 -42 c 0
 137 -16 158 6 185 6 c 2
 325 6 l 2
323 359 m 0
 323 303 298 269 248 269 c 0
 199 269 174 303 174 359 c 0
 174 415 199 449 248 449 c 0
 298 449 323 415 323 359 c 0
304 723 m 1
 197 723 l 1
 197 608 l 1
 304 608 l 1
 304 723 l 1
EndSplineSet
EndChar

StartChar: germandbls
Encoding: 223 223 240
Width: 501
VWidth: 0
Flags: W
LayerCount: 2
Fore
SplineSet
40 520 m 2
 40 0 l 1
 160 0 l 1
 160 528 l 2
 160 596 196 634 249 634 c 0
 303 634 331 597 331 545 c 0
 331 486 298 437 257 437 c 2
 208 437 l 1
 208 324 l 1
 260 324 l 2
 311 324 352 275 352 215 c 0
 352 154 311 102 260 102 c 2
 208 102 l 1
 208 0 l 1
 273 0 l 2
 385 0 473 85 473 214 c 0
 473 291 425 366 357 391 c 1
 357 395 l 1
 413 417 452 482 452 548 c 0
 452 665 368 735 254 735 c 0
 134 735 40 673 40 520 c 2
EndSplineSet
EndChar

StartChar: grave
Encoding: 96 96 241
Width: 273
VWidth: 0
Flags: W
LayerCount: 2
Fore
SplineSet
142 723 m 1
 22 723 l 1
 21 720 l 1
 129 591 l 1
 228 591 l 1
 142 723 l 1
124.5 526 m 0
EndSplineSet
EndChar

StartChar: greater
Encoding: 62 62 242
Width: 479
VWidth: 0
Flags: W
LayerCount: 2
Fore
SplineSet
34 531 m 1
 34 413 l 1
 345 261 l 1
 34 109 l 1
 34 -9 l 1
 446 197 l 1
 446 324 l 1
 34 531 l 1
EndSplineSet
EndChar

StartChar: greaterequal
Encoding: 8805 8805 243
Width: 549
VWidth: 0
Flags: W
LayerCount: 2
Fore
SplineSet
69 684 m 1
 69 566 l 1
 380 414 l 1
 69 262 l 1
 69 144 l 1
 481 350 l 1
 481 477 l 1
 69 684 l 1
481 103 m 1
 69 103 l 1
 69 0 l 1
 481 0 l 1
 481 103 l 1
EndSplineSet
EndChar

StartChar: guillemotleft
Encoding: 171 171 244
Width: 456
VWidth: 0
Flags: W
LayerCount: 2
Fore
SplineSet
429 526 m 1
 338 526 l 1
 202 326 l 1
 338 126 l 1
 429 126 l 1
 321 326 l 1
 429 526 l 1
246 526 m 1
 155 526 l 1
 19 326 l 1
 155 126 l 1
 246 126 l 1
 138 326 l 1
 246 526 l 1
EndSplineSet
EndChar

StartChar: guillemotright
Encoding: 187 187 245
Width: 456
VWidth: 0
Flags: W
LayerCount: 2
Fore
SplineSet
301 526 m 1
 210 526 l 1
 318 326 l 1
 210 126 l 1
 301 126 l 1
 437 326 l 1
 301 526 l 1
118 526 m 1
 27 526 l 1
 135 326 l 1
 27 126 l 1
 118 126 l 1
 254 326 l 1
 118 526 l 1
EndSplineSet
EndChar

StartChar: guilsinglleft
Encoding: 8249 8249 246
Width: 273
VWidth: 0
Flags: W
LayerCount: 2
Fore
SplineSet
246 526 m 1
 155 526 l 1
 19 326 l 1
 155 126 l 1
 246 126 l 1
 138 326 l 1
 246 526 l 1
EndSplineSet
EndChar

StartChar: guilsinglright
Encoding: 8250 8250 247
Width: 273
VWidth: 0
Flags: W
LayerCount: 2
Fore
SplineSet
118 526 m 1
 27 526 l 1
 135 326 l 1
 27 126 l 1
 118 126 l 1
 254 326 l 1
 118 526 l 1
EndSplineSet
EndChar

StartChar: h
Encoding: 104 104 248
Width: 501
VWidth: 0
Flags: W
LayerCount: 2
Fore
SplineSet
175 723 m 1
 55 723 l 1
 55 0 l 1
 175 0 l 1
 175 324 l 2
 175 383 210 429 257 429 c 0
 300 429 326 404 326 336 c 2
 326 0 l 1
 446 0 l 1
 446 369 l 2
 446 493 387 538 306 538 c 0
 244 538 202 503 179 470 c 1
 175 470 l 1
 175 723 l 1
251 263 m 0
251 526 m 0
EndSplineSet
EndChar

StartChar: hbar
Encoding: 295 295 249
Width: 501
VWidth: 0
Flags: W
LayerCount: 2
Fore
SplineSet
55 723 m 1
 55 670 l 1
 0 670 l 1
 0 583 l 1
 55 583 l 1
 55 0 l 1
 175 0 l 1
 175 324 l 2
 175 383 210 429 257 429 c 0
 300 429 326 404 326 336 c 2
 326 0 l 1
 446 0 l 1
 446 369 l 2
 446 493 387 538 306 538 c 0
 244 538 202 503 179 470 c 1
 175 470 l 1
 175 583 l 1
 306 583 l 1
 306 670 l 1
 175 670 l 1
 175 723 l 1
 55 723 l 1
EndSplineSet
EndChar

StartChar: hcircumflex
Encoding: 293 293 250
Width: 501
VWidth: 0
Flags: W
LayerCount: 2
Fore
SplineSet
175 723 m 1
 55 723 l 1
 55 0 l 1
 175 0 l 1
 175 324 l 2
 175 383 210 429 257 429 c 0
 300 429 326 404 326 336 c 2
 326 0 l 1
 446 0 l 1
 446 369 l 2
 446 493 387 538 306 538 c 0
 244 538 202 503 179 470 c 1
 175 470 l 1
 175 723 l 1
162 883 m 1
 64 883 l 1
 -22 748 l 1
 68 748 l 1
 113 817 l 1
 157 748 l 1
 247 748 l 1
 162 883 l 1
EndSplineSet
EndChar

StartChar: house
Encoding: 8962 8962 251
Width: 600
VWidth: 0
Flags: W
LayerCount: 2
Fore
SplineSet
300 563 m 1
 75 310 l 1
 75 0 l 1
 525 0 l 1
 525 310 l 1
 300 563 l 1
300 428 m 1
 433 277 l 1
 433 89 l 1
 167 89 l 1
 167 277 l 1
 300 428 l 1
EndSplineSet
EndChar

StartChar: hungarumlaut
Encoding: 733 733 252
Width: 273
VWidth: 0
Flags: W
LayerCount: 2
Fore
SplineSet
306 723 m 1
 206 723 l 1
 144 591 l 1
 223 591 l 1
 307 720 l 1
 306 723 l 1
166 723 m 1
 66 723 l 1
 4 591 l 1
 83 591 l 1
 167 720 l 1
 166 723 l 1
155.5 526 m 0
EndSplineSet
EndChar

StartChar: hyphen
Encoding: 45 45 253
Width: 273
VWidth: 0
Flags: W
LayerCount: 2
Fore
SplineSet
257 329 m 1
 16 329 l 1
 16 211 l 1
 257 211 l 1
 257 329 l 1
EndSplineSet
EndChar

StartChar: i
Encoding: 105 105 254
Width: 228
VWidth: 0
Flags: W
LayerCount: 2
Fore
SplineSet
174 526 m 1
 54 526 l 1
 54 0 l 1
 174 0 l 1
 174 526 l 1
174 723 m 1
 54 723 l 1
 54 614 l 1
 174 614 l 1
 174 723 l 1
EndSplineSet
EndChar

StartChar: iacute
Encoding: 237 237 255
Width: 228
VWidth: 0
Flags: W
LayerCount: 2
Fore
SplineSet
54 526 m 1
 54 0 l 1
 174 0 l 1
 174 526 l 1
 54 526 l 1
131 723 m 1
 45 591 l 1
 145 591 l 1
 252 720 l 1
 251 723 l 1
 131 723 l 1
EndSplineSet
EndChar

StartChar: ibreve
Encoding: 301 301 256
Width: 228
VWidth: 0
Flags: W
LayerCount: 2
Fore
SplineSet
174 526 m 1
 54 526 l 1
 54 0 l 1
 174 0 l 1
 174 526 l 1
174 723 m 1
 172 709 148 690 114 690 c 0
 81 690 58 709 55 723 c 1
 -20 723 l 1
 -20 673 32 616 114 616 c 0
 197 616 248 673 248 723 c 1
 174 723 l 1
EndSplineSet
EndChar

StartChar: icircumflex
Encoding: 238 238 257
Width: 228
VWidth: 0
Flags: W
LayerCount: 2
Fore
SplineSet
174 526 m 1
 54 526 l 1
 54 0 l 1
 174 0 l 1
 174 526 l 1
164 723 m 1
 66 723 l 1
 -21 588 l 1
 70 588 l 1
 115 657 l 1
 159 588 l 1
 249 588 l 1
 164 723 l 1
EndSplineSet
EndChar

StartChar: idieresis
Encoding: 239 239 258
Width: 228
VWidth: 0
Flags: W
LayerCount: 2
Fore
SplineSet
54 526 m 1
 54 0 l 1
 174 0 l 1
 174 526 l 1
 54 526 l 1
-23 723 m 1
 -23 614 l 1
 77 614 l 1
 77 723 l 1
 -23 723 l 1
152 723 m 1
 152 614 l 1
 252 614 l 1
 252 723 l 1
 152 723 l 1
EndSplineSet
EndChar

StartChar: igrave
Encoding: 236 236 259
Width: 228
VWidth: 0
Flags: W
LayerCount: 2
Fore
SplineSet
54 526 m 1
 54 0 l 1
 174 0 l 1
 174 526 l 1
 54 526 l 1
-23 723 m 1
 -24 720 l 1
 84 591 l 1
 183 591 l 1
 97 723 l 1
 -23 723 l 1
EndSplineSet
EndChar

StartChar: ij
Encoding: 307 307 260
Width: 456
VWidth: 0
Flags: W
LayerCount: 2
Fore
SplineSet
282 526 m 1
 282 -33 l 2
 282 -64 266 -81 235 -81 c 2
 191 -81 l 1
 191 -170 l 1
 212 -176 250 -182 280 -182 c 0
 376 -182 402 -111 402 -41 c 2
 402 526 l 1
 282 526 l 1
54 526 m 1
 54 0 l 1
 174 0 l 1
 174 526 l 1
 54 526 l 1
54 723 m 1
 54 614 l 1
 174 614 l 1
 174 723 l 1
 54 723 l 1
282 723 m 1
 282 614 l 1
 402 614 l 1
 402 723 l 1
 282 723 l 1
EndSplineSet
EndChar

StartChar: imacron
Encoding: 299 299 261
Width: 228
VWidth: 0
Flags: W
LayerCount: 2
Fore
SplineSet
174 526 m 1
 54 526 l 1
 54 0 l 1
 174 0 l 1
 174 526 l 1
242 686 m 1
 -14 686 l 1
 -14 599 l 1
 242 599 l 1
 242 686 l 1
EndSplineSet
EndChar

StartChar: infinity
Encoding: 8734 8734 263
Width: 713
VWidth: 0
Flags: W
LayerCount: 2
Fore
SplineSet
362 367 m 1
 319 426 271 457 204 457 c 0
 115 457 47 392 47 296 c 0
 47 199 118 138 196 138 c 0
 264 138 309 176 354 232 c 1
 412 149 471 138 512 138 c 0
 590 138 664 198 664 302 c 0
 664 399 594 457 512 457 c 0
 434 457 392 399 362 367 c 1
309 293 m 1
 285 258 251 221 209 221 c 0
 170 221 141 256 141 297 c 0
 141 348 171 375 206 375 c 0
 254 375 276 343 309 293 c 1
570 296 m 0
 570 264 548 221 508 221 c 0
 475 221 450 233 403 298 c 1
 436 340 463 375 503 375 c 0
 544 375 570 341 570 296 c 0
EndSplineSet
EndChar

StartChar: integral
Encoding: 8747 8747 264
Width: 274
VWidth: 0
Flags: W
LayerCount: 2
Fore
SplineSet
259 859 m 1
 158 859 71 841 71 747 c 0
 71 597 98 -13 98 -13 c 1
 98 -57 66 -71 23 -71 c 1
 23 -141 l 1
 124 -141 210 -124 210 -29 c 0
 210 120 182 733 182 733 c 1
 182 776 216 790 259 790 c 1
 259 859 l 1
EndSplineSet
EndChar

StartChar: integralbt
Encoding: 8993 8993 265
Width: 604
VWidth: 0
Flags: W
LayerCount: 2
Fore
SplineSet
237 859 m 1
 245 388 254 -124 254 -124 c 2
 254 -167 220 -181 177 -181 c 1
 177 -250 l 1
 278 -250 365 -232 365 -138 c 0
 365 -58 358 419 351 859 c 1
 237 859 l 1
EndSplineSet
EndChar

StartChar: integraltp
Encoding: 8992 8992 266
Width: 604
VWidth: 0
Flags: W
LayerCount: 2
Fore
SplineSet
427 859 m 1
 326 859 239 841 239 747 c 0
 239 667 246 190 253 -250 c 1
 367 -250 l 1
 359 221 350 733 350 733 c 2
 350 776 384 790 427 790 c 1
 427 859 l 1
EndSplineSet
EndChar

StartChar: intersection
Encoding: 8745 8745 267
Width: 722
VWidth: 0
Flags: W
LayerCount: 2
Fore
SplineSet
79 410 m 2
 79 0 l 1
 199 0 l 1
 199 410 l 2
 199 510 271 579 360 579 c 0
 449 579 521 510 521 410 c 2
 521 0 l 1
 639 0 l 1
 639 410 l 2
 639 568 515 686 359 686 c 0
 204 686 79 568 79 410 c 2
EndSplineSet
EndChar

StartChar: iogonek
Encoding: 303 303 268
Width: 228
VWidth: 0
Flags: W
LayerCount: 2
Fore
SplineSet
54 526 m 1
 54 0 l 1
 90 0 l 1
 66 -25 46 -53 46 -100 c 0
 46 -169 99 -190 145 -190 c 0
 167 -190 188 -185 211 -176 c 1
 211 -121 l 1
 189 -121 l 2
 156 -121 144 -96 144 -70 c 0
 144 -42 162 -14 174 0 c 1
 174 526 l 1
 54 526 l 1
61 723 m 1
 61 608 l 1
 168 608 l 1
 168 723 l 1
 61 723 l 1
EndSplineSet
EndChar

StartChar: itilde
Encoding: 297 297 269
Width: 228
VWidth: 0
Flags: W
LayerCount: 2
Fore
SplineSet
174 526 m 1
 54 526 l 1
 54 0 l 1
 174 0 l 1
 174 526 l 1
216 723 m 1
 212 695 199 686 178 686 c 0
 132 686 94 723 44 723 c 0
 -26 723 -54 656 -54 601 c 1
 13 601 l 1
 17 628 30 638 52 638 c 0
 97 638 136 601 184 601 c 0
 254 601 283 668 283 723 c 1
 216 723 l 1
EndSplineSet
EndChar

StartChar: j
Encoding: 106 106 270
Width: 228
VWidth: 0
Flags: W
LayerCount: 2
Fore
SplineSet
174 526 m 1
 54 526 l 1
 54 -33 l 2
 54 -64 38 -81 7 -81 c 2
 -37 -81 l 1
 -37 -170 l 1
 -16 -176 22 -182 52 -182 c 0
 148 -182 174 -111 174 -41 c 2
 174 526 l 1
174 723 m 1
 54 723 l 1
 54 614 l 1
 174 614 l 1
 174 723 l 1
EndSplineSet
EndChar

StartChar: jcircumflex
Encoding: 309 309 271
Width: 228
VWidth: 0
Flags: W
LayerCount: 2
Fore
SplineSet
174 526 m 1
 54 526 l 1
 54 -33 l 2
 54 -64 38 -81 7 -81 c 2
 -37 -81 l 1
 -37 -170 l 1
 -16 -176 22 -182 52 -182 c 0
 148 -182 174 -111 174 -41 c 2
 174 526 l 1
166 723 m 1
 67 723 l 1
 -19 588 l 1
 71 588 l 1
 116 657 l 1
 161 588 l 1
 250 588 l 1
 166 723 l 1
EndSplineSet
EndChar

StartChar: k
Encoding: 107 107 272
Width: 456
VWidth: 0
Flags: W
LayerCount: 2
Fore
SplineSet
174 723 m 1
 54 723 l 1
 54 0 l 1
 174 0 l 1
 174 164 l 1
 218 218 l 1
 324 0 l 1
 457 0 l 1
 293 312 l 1
 449 526 l 1
 321 526 l 1
 174 317 l 1
 174 723 l 1
228 0 m 0
EndSplineSet
EndChar

StartChar: ka-deva
Encoding: 2325 2325 273
Width: 642
VWidth: 0
Flags: W
LayerCount: 2
Fore
SplineSet
386 427 m 1
 382 427 l 1
 382 472 l 1
 262 472 l 1
 262 283 l 1
 382 283 l 1
 382 293 l 2
 382 350 394 382 437 382 c 0
 480 382 492 350 492 293 c 2
 492 269 l 2
 492 212 480 180 437 180 c 2
 431 180 l 1
 431 73 l 1
 437 72 443 71 448 71 c 0
 548 71 617 134 617 280 c 0
 617 426 563 491 478 491 c 0
 438 491 406 470 386 427 c 1
432 686 m 1
 432 580 l 1
 658 580 l 1
 658 686 l 1
 432 686 l 1
323 686 m 0
323 0 m 0
EndSplineSet
Refer: 426 2357 N 1 0 0 1 0 0 2
EndChar

StartChar: kcommaaccent
Encoding: 311 311 274
Width: 456
VWidth: 0
Flags: W
LayerCount: 2
Fore
SplineSet
174 723 m 1
 54 723 l 1
 54 0 l 1
 174 0 l 1
 174 164 l 1
 218 218 l 1
 324 0 l 1
 457 0 l 1
 293 312 l 1
 449 526 l 1
 321 526 l 1
 174 317 l 1
 174 723 l 1
290 -55 m 1
 167 -55 l 1
 167 -178 l 1
 215 -178 l 1
 180 -263 l 1
 245 -263 l 1
 290 -167 l 1
 290 -55 l 1
EndSplineSet
EndChar

StartChar: kgreenlandic
Encoding: 312 312 275
Width: 457
VWidth: 0
Flags: W
LayerCount: 2
Fore
SplineSet
449 526 m 1
 321 526 l 1
 174 317 l 1
 174 526 l 1
 54 526 l 1
 54 0 l 1
 174 0 l 1
 174 164 l 1
 218 218 l 1
 324 0 l 1
 457 0 l 1
 293 312 l 1
 449 526 l 1
EndSplineSet
EndChar

StartChar: l
Encoding: 108 108 276
Width: 228
VWidth: 0
Flags: W
LayerCount: 2
Fore
SplineSet
174 723 m 1
 54 723 l 1
 54 0 l 1
 174 0 l 1
 174 723 l 1
114 526 m 0
114 0 m 0
208 526 m 0
EndSplineSet
EndChar

StartChar: lacute
Encoding: 314 314 277
Width: 228
VWidth: 0
Flags: W
LayerCount: 2
Fore
SplineSet
54 723 m 1
 54 0 l 1
 174 0 l 1
 174 723 l 1
 54 723 l 1
131 883 m 1
 45 751 l 1
 145 751 l 1
 252 880 l 1
 251 883 l 1
 131 883 l 1
EndSplineSet
EndChar

StartChar: lcaron
Encoding: 318 318 278
Width: 316
VWidth: 0
Flags: W
LayerCount: 2
Fore
SplineSet
174 723 m 1
 54 723 l 1
 54 0 l 1
 174 0 l 1
 174 723 l 1
364 686 m 1
 226 686 l 1
 226 549 l 1
 281 549 l 1
 226 393 l 1
 298 393 l 1
 364 561 l 1
 364 686 l 1
EndSplineSet
EndChar

StartChar: lcommaaccent
Encoding: 316 316 279
Width: 228
VWidth: 0
Flags: W
LayerCount: 2
Fore
SplineSet
174 723 m 1
 54 723 l 1
 54 0 l 1
 174 0 l 1
 174 723 l 1
176 -55 m 1
 53 -55 l 1
 53 -178 l 1
 102 -178 l 1
 66 -263 l 1
 131 -263 l 1
 176 -167 l 1
 176 -55 l 1
EndSplineSet
EndChar

StartChar: ldot
Encoding: 320 320 280
Width: 334
VWidth: 0
Flags: W
LayerCount: 2
Fore
SplineSet
174 723 m 1
 54 723 l 1
 54 0 l 1
 174 0 l 1
 174 723 l 1
334 409 m 1
 213 409 l 1
 213 278 l 1
 334 278 l 1
 334 409 l 1
EndSplineSet
EndChar

StartChar: less
Encoding: 60 60 281
Width: 479
VWidth: 0
Flags: W
LayerCount: 2
Fore
SplineSet
446 531 m 1
 34 324 l 1
 34 197 l 1
 446 -9 l 1
 446 109 l 1
 135 261 l 1
 446 413 l 1
 446 531 l 1
EndSplineSet
EndChar

StartChar: lessequal
Encoding: 8804 8804 282
Width: 549
VWidth: 0
Flags: W
LayerCount: 2
Fore
SplineSet
481 684 m 1
 69 477 l 1
 69 350 l 1
 481 144 l 1
 481 262 l 1
 170 414 l 1
 481 566 l 1
 481 684 l 1
481 103 m 1
 69 103 l 1
 69 0 l 1
 481 0 l 1
 481 103 l 1
EndSplineSet
EndChar

StartChar: lira
Encoding: 8356 8356 283
Width: 456
VWidth: 0
Flags: W
LayerCount: 2
Fore
SplineSet
71 499 m 2
 71 434 l 1
 9 434 l 1
 9 349 l 1
 71 349 l 1
 71 308 l 1
 9 308 l 1
 9 223 l 1
 71 223 l 1
 71 108 l 1
 20 108 l 1
 20 0 l 1
 426 0 l 1
 426 108 l 1
 180 108 l 1
 191 223 l 1
 306 223 l 1
 306 308 l 1
 192 308 l 1
 192 349 l 1
 306 349 l 1
 306 434 l 1
 192 434 l 1
 192 525 l 2
 192 573 215 597 252 597 c 0
 290 597 314 570 314 517 c 2
 314 499 l 1
 433 499 l 1
 433 504 l 2
 433 633 362 698 252 698 c 0
 139 698 71 632 71 499 c 2
EndSplineSet
EndChar

StartChar: logicalnot
Encoding: 172 172 284
Width: 479
VWidth: 0
Flags: W
LayerCount: 2
Fore
SplineSet
445 463 m 1
 29 463 l 1
 29 350 l 1
 341 350 l 1
 341 187 l 1
 445 187 l 1
 445 463 l 1
EndSplineSet
EndChar

StartChar: longs
Encoding: 383 383 285
Width: 228
VWidth: 0
Flags: W
LayerCount: 2
Fore
SplineSet
62 590 m 2
 62 526 l 1
 9 526 l 1
 9 425 l 1
 62 425 l 1
 62 0 l 1
 182 0 l 1
 182 587 l 2
 182 615 197 630 224 630 c 2
 273 630 l 1
 273 719 l 1
 253 725 214 731 186 731 c 0
 90 731 62 660 62 590 c 2
EndSplineSet
EndChar

StartChar: lozenge
Encoding: 9674 9674 286
Width: 589
VWidth: 0
Flags: W
LayerCount: 2
Fore
SplineSet
365 686 m 1
 216 686 l 1
 105 342 l 1
 216 -2 l 1
 365 -2 l 1
 476 342 l 1
 365 686 l 1
289 143 m 1
 285 143 l 1
 224 342 l 1
 285 541 l 1
 289 541 l 1
 350 342 l 1
 289 143 l 1
EndSplineSet
EndChar

StartChar: lslash
Encoding: 322 322 287
Width: 228
VWidth: 0
Flags: W
LayerCount: 2
Fore
SplineSet
174 723 m 1
 54 723 l 1
 54 327 l 1
 -14 267 l 1
 -14 171 l 1
 54 231 l 1
 54 0 l 1
 174 0 l 1
 174 338 l 1
 253 408 l 1
 253 505 l 1
 174 434 l 1
 174 723 l 1
EndSplineSet
EndChar

StartChar: m
Encoding: 109 109 288
Width: 729
VWidth: 0
Flags: W
LayerCount: 2
Fore
SplineSet
411 461 m 1
 390 516 350 538 298 538 c 0
 240 538 198 502 173 461 c 1
 167 461 l 1
 155 526 l 1
 55 526 l 1
 55 0 l 1
 175 0 l 1
 175 324 l 2
 175 386 206 429 247 429 c 0
 287 429 307 404 307 336 c 2
 307 0 l 1
 425 0 l 1
 425 332 l 2
 425 390 459 429 498 429 c 0
 538 429 557 404 557 336 c 2
 557 0 l 1
 677 0 l 1
 677 369 l 2
 677 496 622 538 547 538 c 0
 484 538 438 502 411 461 c 1
EndSplineSet
EndChar

StartChar: macron
Encoding: 175 175 289
Width: 273
VWidth: 0
Flags: W
LayerCount: 2
Fore
SplineSet
264 686 m 1
 9 686 l 1
 9 599 l 1
 264 599 l 1
 264 686 l 1
136.5 526 m 0
EndSplineSet
EndChar

StartChar: madeva
Encoding: 2350 2350 290
Width: 594
VWidth: 0
Flags: W
LayerCount: 2
Fore
SplineSet
179 624 m 1
 179 223 l 2
 179 199 167 177 144 177 c 0
 122 177 110 194 110 223 c 0
 110 248 124 269 145 269 c 2
 423 269 l 1
 423 375 l 1
 145 375 l 2
 58 375 0 312 0 223 c 0
 0 125 50 71 144 71 c 0
 241 71 299 135 299 223 c 2
 299 624 l 1
 179 624 l 1
-36 686 m 1
 -36 580 l 1
 423 580 l 1
 423 686 l 1
 -36 686 l 1
472 686 m 0
472 0 m 0
EndSplineSet
Refer: 411 2366 N 1 0 0 1 340 0 2
EndChar

StartChar: minus
Encoding: 8722 8722 291
Width: 479
VWidth: 0
Flags: W
LayerCount: 2
Fore
SplineSet
445 307 m 1
 33 307 l 1
 33 203 l 1
 445 203 l 1
 445 307 l 1
EndSplineSet
EndChar

StartChar: minute
Encoding: 8242 8242 292
Width: 195
VWidth: 0
Flags: W
LayerCount: 2
Fore
SplineSet
158 686 m 1
 48 686 l 1
 23 506 l 1
 112 506 l 1
 159 683 l 1
 158 686 l 1
EndSplineSet
EndChar

StartChar: mu
Encoding: 956 956 293
Width: 501
VWidth: 0
Flags: W
LayerCount: 2
Fore
SplineSet
446 526 m 1
 326 526 l 1
 326 200 l 2
 326 141 291 97 244 97 c 0
 199 97 175 122 175 190 c 2
 175 526 l 1
 55 526 l 1
 55 -173 l 1
 175 -173 l 1
 175 -4 l 1
 187 -9 201 -12 215 -12 c 0
 268 -12 305 24 328 65 c 1
 334 65 l 1
 346 0 l 1
 446 0 l 1
 446 526 l 1
EndSplineSet
EndChar

StartChar: multiply
Encoding: 215 215 294
Width: 479
VWidth: 0
Flags: W
LayerCount: 2
Fore
SplineSet
246 328 m 1
 101 474 l 1
 29 402 l 1
 175 256 l 1
 29 111 l 1
 101 39 l 1
 246 185 l 1
 392 39 l 1
 464 111 l 1
 318 256 l 1
 464 402 l 1
 392 474 l 1
 246 328 l 1
EndSplineSet
EndChar

StartChar: n
Encoding: 110 110 295
Width: 501
VWidth: 0
Flags: W
LayerCount: 2
Fore
SplineSet
173 461 m 1
 167 461 l 1
 155 526 l 1
 55 526 l 1
 55 0 l 1
 175 0 l 1
 175 324 l 2
 175 383 210 429 257 429 c 0
 300 429 326 404 326 336 c 2
 326 0 l 1
 446 0 l 1
 446 369 l 2
 446 493 387 538 306 538 c 0
 243 538 200 502 173 461 c 1
251 526 m 0
251 0 m 0
EndSplineSet
EndChar

StartChar: nacute
Encoding: 324 324 296
Width: 501
VWidth: 0
Flags: W
LayerCount: 2
Fore
SplineSet
173 461 m 1
 167 461 l 1
 155 526 l 1
 55 526 l 1
 55 0 l 1
 175 0 l 1
 175 324 l 2
 175 383 210 429 257 429 c 0
 300 429 326 404 326 336 c 2
 326 0 l 1
 446 0 l 1
 446 369 l 2
 446 493 387 538 306 538 c 0
 243 538 200 502 173 461 c 1
268 723 m 1
 182 591 l 1
 281 591 l 1
 389 720 l 1
 388 723 l 1
 268 723 l 1
EndSplineSet
EndChar

StartChar: nadeva
Encoding: 2344 2344 297
Width: 556
VWidth: 0
Flags: W
LayerCount: 2
Fore
SplineSet
153 419 m 2
 66 419 8 356 8 267 c 0
 8 169 58 115 152 115 c 0
 249 115 307 179 307 267 c 2
 307 366 l 1
 187 366 l 1
 187 267 l 2
 187 243 175 221 152 221 c 0
 130 221 118 238 118 267 c 0
 118 292 132 313 153 313 c 2
 386 313 l 1
 386 419 l 1
 153 419 l 2
-37 686 m 1
 -37 580 l 1
 448 580 l 1
 448 686 l 1
 -37 686 l 1
433 686 m 0
433 0 m 0
EndSplineSet
Refer: 411 2366 N 1 0 0 1 303 0 2
EndChar

StartChar: napostrophe
Encoding: 329 329 298
Width: 676
VWidth: 0
Flags: W
LayerCount: 2
Fore
SplineSet
348 461 m 1
 342 461 l 1
 330 526 l 1
 230 526 l 1
 230 0 l 1
 350 0 l 1
 350 324 l 2
 350 383 385 429 432 429 c 0
 475 429 501 404 501 336 c 2
 501 0 l 1
 621 0 l 1
 621 369 l 2
 621 493 562 538 481 538 c 0
 418 538 375 502 348 461 c 1
67 686 m 1
 67 563 l 1
 116 563 l 1
 81 479 l 1
 146 479 l 1
 191 574 l 1
 191 686 l 1
 67 686 l 1
EndSplineSet
EndChar

StartChar: ncaron
Encoding: 328 328 299
Width: 501
VWidth: 0
Flags: W
LayerCount: 2
Fore
SplineSet
173 461 m 1
 167 461 l 1
 155 526 l 1
 55 526 l 1
 55 0 l 1
 175 0 l 1
 175 324 l 2
 175 383 210 429 257 429 c 0
 300 429 326 404 326 336 c 2
 326 0 l 1
 446 0 l 1
 446 369 l 2
 446 493 387 538 306 538 c 0
 243 538 200 502 173 461 c 1
385 723 m 1
 295 723 l 1
 251 654 l 1
 206 723 l 1
 116 723 l 1
 202 588 l 1
 300 588 l 1
 385 723 l 1
EndSplineSet
EndChar

StartChar: ncommaaccent
Encoding: 326 326 300
Width: 501
VWidth: 0
Flags: W
LayerCount: 2
Fore
SplineSet
173 461 m 1
 167 461 l 1
 155 526 l 1
 55 526 l 1
 55 0 l 1
 175 0 l 1
 175 324 l 2
 175 383 210 429 257 429 c 0
 300 429 326 404 326 336 c 2
 326 0 l 1
 446 0 l 1
 446 369 l 2
 446 493 387 538 306 538 c 0
 243 538 200 502 173 461 c 1
312 -55 m 1
 189 -55 l 1
 189 -178 l 1
 238 -178 l 1
 202 -263 l 1
 267 -263 l 1
 312 -167 l 1
 312 -55 l 1
EndSplineSet
EndChar

StartChar: nine
Encoding: 57 57 301
Width: 456
VWidth: 0
Flags: W
LayerCount: 2
Fore
SplineSet
30 476 m 0
 30 349 85 255 196 255 c 0
 240 255 279 275 302 309 c 1
 300 175 294 89 232 89 c 0
 186 89 171 134 171 211 c 1
 48 211 l 1
 48 84 101 -12 228 -12 c 0
 352 -12 426 77 426 363 c 0
 426 617 348 698 219 698 c 0
 110 698 30 613 30 476 c 0
295 476 m 0
 295 403 272 353 224 353 c 0
 176 353 154 403 154 476 c 0
 154 545 176 597 224 597 c 0
 272 597 295 545 295 476 c 0
EndSplineSet
EndChar

StartChar: notequal
Encoding: 8800 8800 302
Width: 549
VWidth: 0
Flags: W
LayerCount: 2
Fore
SplineSet
435 484 m 1
 354 484 l 1
 317 412 l 1
 72 412 l 1
 72 308 l 1
 265 308 l 1
 209 199 l 1
 72 199 l 1
 72 96 l 1
 157 96 l 1
 121 25 l 1
 202 25 l 1
 238 96 l 1
 484 96 l 1
 484 199 l 1
 290 199 l 1
 346 308 l 1
 484 308 l 1
 484 412 l 1
 398 412 l 1
 435 484 l 1
EndSplineSet
EndChar

StartChar: ntilde
Encoding: 241 241 303
Width: 501
VWidth: 0
Flags: W
LayerCount: 2
Fore
SplineSet
173 461 m 1
 167 461 l 1
 155 526 l 1
 55 526 l 1
 55 0 l 1
 175 0 l 1
 175 324 l 2
 175 383 210 429 257 429 c 0
 300 429 326 404 326 336 c 2
 326 0 l 1
 446 0 l 1
 446 369 l 2
 446 493 387 538 306 538 c 0
 243 538 200 502 173 461 c 1
353 723 m 1
 349 695 335 686 314 686 c 0
 269 686 230 723 181 723 c 0
 111 723 83 656 83 601 c 1
 149 601 l 1
 153 628 167 638 188 638 c 0
 233 638 272 601 320 601 c 0
 391 601 419 668 419 723 c 1
 353 723 l 1
EndSplineSet
EndChar

StartChar: numbersign
Encoding: 35 35 304
Width: 456
VWidth: 0
Flags: W
LayerCount: 2
Fore
SplineSet
432 698 m 1
 344 698 l 1
 300 504 l 1
 225 504 l 1
 269 698 l 1
 181 698 l 1
 137 504 l 1
 44 504 l 1
 44 420 l 1
 118 420 l 1
 87 279 l 1
 5 279 l 1
 5 195 l 1
 68 195 l 1
 24 0 l 1
 112 0 l 1
 156 195 l 1
 231 195 l 1
 187 0 l 1
 275 0 l 1
 319 195 l 1
 411 195 l 1
 411 279 l 1
 338 279 l 1
 369 420 l 1
 450 420 l 1
 450 504 l 1
 388 504 l 1
 432 698 l 1
281 420 m 1
 250 279 l 1
 175 279 l 1
 206 420 l 1
 281 420 l 1
EndSplineSet
EndChar

StartChar: o
Encoding: 111 111 305
Width: 501
VWidth: 0
Flags: W
LayerCount: 2
Fore
SplineSet
41 263 m 0
 41 74 111 -12 251 -12 c 0
 391 -12 461 74 461 263 c 0
 461 452 391 538 251 538 c 0
 111 538 41 452 41 263 c 0
336 282 m 2
 336 244 l 2
 336 143 313 89 251 89 c 0
 189 89 166 143 166 244 c 2
 166 282 l 2
 166 383 189 437 251 437 c 0
 313 437 336 383 336 282 c 2
251 526 m 0
EndSplineSet
EndChar

StartChar: oacute
Encoding: 243 243 306
Width: 501
VWidth: 0
Flags: W
LayerCount: 2
Fore
SplineSet
41 263 m 0
 41 74 111 -12 251 -12 c 0
 391 -12 461 74 461 263 c 0
 461 452 391 538 251 538 c 0
 111 538 41 452 41 263 c 0
336 282 m 2
 336 244 l 2
 336 143 313 89 251 89 c 0
 189 89 166 143 166 244 c 2
 166 282 l 2
 166 383 189 437 251 437 c 0
 313 437 336 383 336 282 c 2
268 723 m 1
 182 591 l 1
 281 591 l 1
 389 720 l 1
 388 723 l 1
 268 723 l 1
EndSplineSet
EndChar

StartChar: obreve
Encoding: 335 335 307
Width: 501
VWidth: 0
Flags: W
LayerCount: 2
Fore
SplineSet
41 263 m 0
 41 74 111 -12 251 -12 c 0
 391 -12 461 74 461 263 c 0
 461 452 391 538 251 538 c 0
 111 538 41 452 41 263 c 0
336 282 m 2
 336 244 l 2
 336 143 313 89 251 89 c 0
 189 89 166 143 166 244 c 2
 166 282 l 2
 166 383 189 437 251 437 c 0
 313 437 336 383 336 282 c 2
310 723 m 1
 308 709 284 690 250 690 c 0
 217 690 194 709 191 723 c 1
 117 723 l 1
 117 673 168 616 250 616 c 0
 333 616 384 673 384 723 c 1
 310 723 l 1
EndSplineSet
EndChar

StartChar: ocircumflex
Encoding: 244 244 308
Width: 501
VWidth: 0
Flags: W
LayerCount: 2
Fore
SplineSet
41 263 m 0
 41 74 111 -12 251 -12 c 0
 391 -12 461 74 461 263 c 0
 461 452 391 538 251 538 c 0
 111 538 41 452 41 263 c 0
336 282 m 2
 336 244 l 2
 336 143 313 89 251 89 c 0
 189 89 166 143 166 244 c 2
 166 282 l 2
 166 383 189 437 251 437 c 0
 313 437 336 383 336 282 c 2
300 723 m 1
 202 723 l 1
 116 588 l 1
 206 588 l 1
 251 657 l 1
 295 588 l 1
 385 588 l 1
 300 723 l 1
EndSplineSet
EndChar

StartChar: odieresis
Encoding: 246 246 309
Width: 501
VWidth: 0
Flags: W
LayerCount: 2
Fore
SplineSet
41 263 m 0
 41 74 111 -12 251 -12 c 0
 391 -12 461 74 461 263 c 0
 461 452 391 538 251 538 c 0
 111 538 41 452 41 263 c 0
336 282 m 2
 336 244 l 2
 336 143 313 89 251 89 c 0
 189 89 166 143 166 244 c 2
 166 282 l 2
 166 383 189 437 251 437 c 0
 313 437 336 383 336 282 c 2
113 723 m 1
 113 614 l 1
 213 614 l 1
 213 723 l 1
 113 723 l 1
288 723 m 1
 288 614 l 1
 388 614 l 1
 388 723 l 1
 288 723 l 1
EndSplineSet
EndChar

StartChar: oe
Encoding: 339 339 310
Width: 774
VWidth: 0
Flags: W
LayerCount: 2
Fore
SplineSet
398 472 m 1
 364 517 315 538 251 538 c 0
 111 538 41 452 41 263 c 0
 41 74 111 -12 251 -12 c 0
 315 -12 364 9 399 53 c 1
 433 9 481 -12 543 -12 c 0
 650 -12 729 51 729 186 c 1
 610 186 l 1
 610 123 584 86 543 86 c 0
 484 86 463 139 462 233 c 1
 729 233 l 1
 729 263 l 2
 729 452 666 538 539 538 c 0
 479 538 432 517 398 472 c 1
336 282 m 2
 336 244 l 2
 336 143 313 89 251 89 c 0
 189 89 166 143 166 244 c 2
 166 282 l 2
 166 383 189 437 251 437 c 0
 313 437 336 383 336 282 c 2
603 320 m 1
 463 320 l 1
 467 396 488 440 539 440 c 0
 583 440 603 396 603 320 c 1
387 526 m 0
EndSplineSet
EndChar

StartChar: ogonek
Encoding: 731 731 311
Width: 273
VWidth: 0
Flags: W
LayerCount: 2
Fore
SplineSet
188 12 m 1
 110 12 l 1
 85 -14 62 -43 62 -92 c 0
 62 -161 115 -182 161 -182 c 0
 183 -182 204 -177 227 -168 c 1
 227 -113 l 1
 205 -113 l 2
 172 -113 160 -88 160 -62 c 0
 160 -34 178 -6 190 8 c 1
 188 12 l 1
191 10 m 0
EndSplineSet
EndChar

StartChar: ograve
Encoding: 242 242 312
Width: 501
VWidth: 0
Flags: W
LayerCount: 2
Fore
SplineSet
41 263 m 0
 41 74 111 -12 251 -12 c 0
 391 -12 461 74 461 263 c 0
 461 452 391 538 251 538 c 0
 111 538 41 452 41 263 c 0
336 282 m 2
 336 244 l 2
 336 143 313 89 251 89 c 0
 189 89 166 143 166 244 c 2
 166 282 l 2
 166 383 189 437 251 437 c 0
 313 437 336 383 336 282 c 2
113 723 m 1
 112 720 l 1
 220 591 l 1
 319 591 l 1
 233 723 l 1
 113 723 l 1
EndSplineSet
EndChar

StartChar: ohungarumlaut
Encoding: 337 337 313
Width: 501
VWidth: 0
Flags: W
LayerCount: 2
Fore
SplineSet
41 263 m 0
 41 74 111 -12 251 -12 c 0
 391 -12 461 74 461 263 c 0
 461 452 391 538 251 538 c 0
 111 538 41 452 41 263 c 0
336 282 m 2
 336 244 l 2
 336 143 313 89 251 89 c 0
 189 89 166 143 166 244 c 2
 166 282 l 2
 166 383 189 437 251 437 c 0
 313 437 336 383 336 282 c 2
300 723 m 1
 200 723 l 1
 138 591 l 1
 217 591 l 1
 301 720 l 1
 300 723 l 1
440 723 m 1
 340 723 l 1
 278 591 l 1
 357 591 l 1
 441 720 l 1
 440 723 l 1
EndSplineSet
EndChar

StartChar: omacron
Encoding: 333 333 314
Width: 501
VWidth: 0
Flags: W
LayerCount: 2
Fore
SplineSet
41 263 m 0
 41 74 111 -12 251 -12 c 0
 391 -12 461 74 461 263 c 0
 461 452 391 538 251 538 c 0
 111 538 41 452 41 263 c 0
336 282 m 2
 336 244 l 2
 336 143 313 89 251 89 c 0
 189 89 166 143 166 244 c 2
 166 282 l 2
 166 383 189 437 251 437 c 0
 313 437 336 383 336 282 c 2
378 686 m 1
 123 686 l 1
 123 599 l 1
 378 599 l 1
 378 686 l 1
EndSplineSet
EndChar

StartChar: one
Encoding: 49 49 315
Width: 456
VWidth: 0
Flags: W
LayerCount: 2
Fore
SplineSet
314 686 m 1
 255 686 l 1
 191 646 95 615 39 609 c 1
 39 529 l 1
 194 529 l 1
 194 101 l 1
 40 101 l 1
 40 0 l 1
 455 0 l 1
 455 101 l 1
 314 101 l 1
 314 686 l 1
EndSplineSet
EndChar

StartChar: oneeighth
Encoding: 8539 8539 316
Width: 684
VWidth: 0
Flags: W
LayerCount: 2
Fore
SplineSet
584 698 m 1
 518 698 l 1
 122 -12 l 1
 189 -12 l 1
 584 698 l 1
187 686 m 1
 147 686 l 1
 114 664 62 645 32 641 c 1
 32 585 l 1
 107 585 l 1
 107 352 l 1
 33 352 l 1
 33 283 l 1
 253 283 l 1
 253 352 l 1
 187 352 l 1
 187 686 l 1
575 112 m 0
 575 74 562 55 537 55 c 0
 513 55 499 74 499 112 c 0
 499 149 513 169 537 169 c 0
 562 169 575 149 575 112 c 0
425 293 m 0
 425 259 440 224 464 203 c 1
 432 183 417 149 417 108 c 0
 417 41 452 -13 537 -13 c 0
 622 -13 657 41 657 108 c 0
 657 149 642 184 610 204 c 1
 635 224 649 257 649 293 c 0
 649 357 611 409 537 409 c 0
 463 409 425 357 425 293 c 0
568 288 m 0
 568 254 558 236 537 236 c 0
 516 236 506 254 506 288 c 0
 506 324 516 341 537 341 c 0
 558 341 568 324 568 288 c 0
EndSplineSet
EndChar

StartChar: onehalf
Encoding: 189 189 317
Width: 684
VWidth: 0
Flags: W
LayerCount: 2
Fore
SplineSet
587 698 m 1
 521 698 l 1
 125 -12 l 1
 192 -12 l 1
 587 698 l 1
187 686 m 1
 147 686 l 1
 114 664 62 645 32 641 c 1
 32 585 l 1
 107 585 l 1
 107 352 l 1
 33 352 l 1
 33 283 l 1
 253 283 l 1
 253 352 l 1
 187 352 l 1
 187 686 l 1
429 288 m 0
 429 274 432 261 432 261 c 1
 511 261 l 1
 511 289 l 2
 511 319 522 344 546 344 c 0
 571 344 578 324 578 307 c 0
 578 256 543 216 501 169 c 1
 464 126 425 82 425 18 c 2
 425 0 l 1
 663 0 l 1
 663 74 l 1
 525 74 l 1
 534 87 543 100 553 112 c 0
 602 171 661 226 661 306 c 0
 661 383 611 414 549 414 c 0
 485 414 429 378 429 288 c 0
EndSplineSet
EndChar

StartChar: onequarter
Encoding: 188 188 318
Width: 684
VWidth: 0
Flags: W
LayerCount: 2
Fore
SplineSet
592 698 m 1
 526 698 l 1
 130 -12 l 1
 197 -12 l 1
 592 698 l 1
187 686 m 1
 147 686 l 1
 114 664 62 645 32 641 c 1
 32 585 l 1
 107 585 l 1
 107 352 l 1
 33 352 l 1
 33 283 l 1
 253 283 l 1
 253 352 l 1
 187 352 l 1
 187 686 l 1
499 414 m 1
 474 323 438 223 397 150 c 1
 397 89 l 1
 540 89 l 1
 540 0 l 1
 619 0 l 1
 619 89 l 1
 661 89 l 1
 661 158 l 1
 619 158 l 1
 619 326 l 1
 592 326 l 1
 583 293 556 225 540 195 c 1
 540 158 l 1
 472 158 l 1
 498 197 556 312 578 414 c 1
 499 414 l 1
EndSplineSet
EndChar

StartChar: onesuperior
Encoding: 185 185 319
Width: 273
VWidth: 0
Flags: W
LayerCount: 2
Fore
SplineSet
187 723 m 1
 147 723 l 1
 114 701 62 682 32 678 c 1
 32 622 l 1
 107 622 l 1
 107 389 l 1
 33 389 l 1
 33 320 l 1
 253 320 l 1
 253 389 l 1
 187 389 l 1
 187 723 l 1
EndSplineSet
EndChar

StartChar: ordfeminine
Encoding: 170 170 320
Width: 303
VWidth: 0
Flags: W
LayerCount: 2
Fore
SplineSet
31 635 m 0
 31 629 31 625 32 621 c 1
 115 621 l 1
 115 631 l 2
 115 646 123 664 153 664 c 0
 181 664 186 646 186 624 c 2
 186 587 l 1
 85 587 14 558 14 463 c 0
 14 380 70 363 103 363 c 0
 150 363 173 381 193 409 c 1
 197 409 l 1
 205 382 227 363 259 363 c 0
 283 363 298 369 307 373 c 1
 307 435 l 1
 291 435 l 2
 281 435 272 442 272 459 c 2
 272 629 l 2
 272 696 233 734 151 734 c 0
 78 734 31 695 31 635 c 0
186 508 m 2
 186 468 172 434 137 434 c 0
 112 434 101 448 101 470 c 0
 101 516 143 528 186 528 c 1
 186 508 l 2
EndSplineSet
EndChar

StartChar: ordmasculine
Encoding: 186 186 321
Width: 299
VWidth: 0
Flags: W
LayerCount: 2
Fore
SplineSet
10 548 m 0
 10 420 57 362 152 362 c 0
 247 362 294 420 294 548 c 0
 294 676 247 734 152 734 c 0
 57 734 10 676 10 548 c 0
205 561 m 2
 205 535 l 2
 205 470 191 435 152 435 c 0
 113 435 99 470 99 535 c 2
 99 561 l 2
 99 626 113 661 152 661 c 0
 191 661 205 626 205 561 c 2
EndSplineSet
EndChar

StartChar: orthogonal
Encoding: 8735 8735 322
Width: 979
VWidth: 0
Flags: W
LayerCount: 2
Fore
SplineSet
275 625 m 1
 157 625 l 1
 157 0 l 1
 802 0 l 1
 802 110 l 1
 275 110 l 1
 275 625 l 1
EndSplineSet
EndChar

StartChar: oslash
Encoding: 248 248 323
Width: 501
VWidth: 0
Flags: W
LayerCount: 2
Fore
SplineSet
448 558 m 1
 373 558 l 1
 351 517 l 1
 323 531 290 538 251 538 c 0
 111 538 41 452 41 263 c 0
 41 165 60 95 97 50 c 1
 52 -32 l 1
 127 -32 l 1
 149 9 l 1
 178 -5 211 -12 251 -12 c 0
 391 -12 461 74 461 263 c 0
 461 361 442 432 404 477 c 1
 448 558 l 1
332 345 m 1
 334 326 336 305 336 282 c 2
 336 244 l 2
 336 143 313 89 251 89 c 0
 231 89 215 95 202 106 c 1
 332 345 l 1
298 421 m 1
 169 183 l 1
 167 201 166 221 166 244 c 2
 166 282 l 2
 166 383 189 437 251 437 c 0
 270 437 286 431 298 421 c 1
251 526 m 0
EndSplineSet
EndChar

StartChar: oslashacute
Encoding: 511 511 324
Width: 501
VWidth: 0
Flags: W
LayerCount: 2
Fore
SplineSet
373 558 m 1
 351 517 l 1
 323 531 290 538 251 538 c 0
 111 538 41 452 41 263 c 0
 41 165 60 95 97 50 c 1
 52 -32 l 1
 127 -32 l 1
 149 9 l 1
 178 -5 211 -12 251 -12 c 0
 391 -12 461 74 461 263 c 0
 461 361 442 432 404 477 c 1
 448 558 l 1
 373 558 l 1
336 282 m 2
 336 244 l 2
 336 143 313 89 251 89 c 0
 231 89 215 95 202 106 c 1
 332 345 l 1
 334 326 336 305 336 282 c 2
298 421 m 1
 169 183 l 1
 167 201 166 221 166 244 c 2
 166 282 l 2
 166 383 189 437 251 437 c 0
 270 437 286 431 298 421 c 1
268 723 m 1
 182 591 l 1
 281 591 l 1
 389 720 l 1
 388 723 l 1
 268 723 l 1
EndSplineSet
EndChar

StartChar: otilde
Encoding: 245 245 325
Width: 501
VWidth: 0
Flags: W
LayerCount: 2
Fore
SplineSet
41 263 m 0
 41 74 111 -12 251 -12 c 0
 391 -12 461 74 461 263 c 0
 461 452 391 538 251 538 c 0
 111 538 41 452 41 263 c 0
336 282 m 2
 336 244 l 2
 336 143 313 89 251 89 c 0
 189 89 166 143 166 244 c 2
 166 282 l 2
 166 383 189 437 251 437 c 0
 313 437 336 383 336 282 c 2
353 723 m 1
 349 695 335 686 314 686 c 0
 269 686 230 723 181 723 c 0
 111 723 83 656 83 601 c 1
 149 601 l 1
 153 628 167 638 188 638 c 0
 233 638 272 601 320 601 c 0
 391 601 419 668 419 723 c 1
 353 723 l 1
EndSplineSet
EndChar

StartChar: p
Encoding: 112 112 326
Width: 501
VWidth: 0
Flags: W
LayerCount: 2
Fore
SplineSet
172 461 m 1
 167 461 l 1
 155 526 l 1
 55 526 l 1
 55 -173 l 1
 175 -173 l 1
 175 54 l 1
 180 54 l 1
 199 12 244 -12 297 -12 c 0
 390 -12 460 71 460 262 c 0
 460 453 395 538 291 538 c 0
 241 538 198 512 172 461 c 1
335 282 m 2
 335 244 l 2
 335 149 313 97 255 97 c 0
 197 97 175 151 175 246 c 2
 175 282 l 2
 175 377 197 429 255 429 c 0
 313 429 335 377 335 282 c 2
EndSplineSet
EndChar

StartChar: pa-deva
Encoding: 2346 2346 327
Width: 459
VWidth: 0
Flags: W
LayerCount: 2
Fore
SplineSet
44 686 m 1
 44 297 l 2
 44 192 101 132 190 132 c 0
 283 132 342 196 342 307 c 2
 342 340 l 1
 272 340 l 1
 272 305 l 2
 272 262 249 234 218 234 c 0
 186 234 164 265 164 314 c 2
 164 686 l 1
 44 686 l 1
-6 686 m 1
 -6 580 l 1
 346 580 l 1
 346 686 l 1
 -6 686 l 1
335 686 m 0
335 0 m 0
EndSplineSet
Refer: 411 2366 N 1 0 0 1 205 0 2
EndChar

StartChar: paragraph
Encoding: 182 182 328
Width: 456
VWidth: 0
Flags: W
LayerCount: 2
Fore
SplineSet
449 686 m 1
 210 686 l 2
 103 686 18 588 18 467 c 0
 18 354 91 263 187 250 c 1
 187 -173 l 1
 267 -173 l 1
 267 610 l 1
 320 610 l 1
 320 -173 l 1
 401 -173 l 1
 401 610 l 1
 449 610 l 1
 449 686 l 1
EndSplineSet
EndChar

StartChar: parenleft
Encoding: 40 40 329
Width: 273
VWidth: 0
Flags: W
LayerCount: 2
Fore
SplineSet
179 735 m 1
 83 612 30 452 30 288 c 0
 30 124 83 -34 179 -157 c 1
 258 -157 l 1
 192 -35 140 134 140 290 c 0
 140 446 192 613 258 735 c 1
 179 735 l 1
EndSplineSet
EndChar

StartChar: parenright
Encoding: 41 41 330
Width: 273
VWidth: 0
Flags: W
LayerCount: 2
Fore
SplineSet
15 735 m 1
 81 613 133 446 133 290 c 0
 133 134 81 -35 15 -157 c 1
 94 -157 l 1
 190 -34 243 124 243 288 c 0
 243 452 190 612 94 735 c 1
 15 735 l 1
EndSplineSet
EndChar

StartChar: partialdiff
Encoding: 8706 8706 331
Width: 494
VWidth: 0
Flags: W
LayerCount: 2
Fore
SplineSet
94 706 m 1
 94 602 l 1
 119 620 154 636 202 636 c 0
 279 636 337 540 337 418 c 0
 337 409 337 390 336 384 c 1
 332 384 l 1
 320 408 283 449 225 449 c 0
 127 449 36 356 36 204 c 0
 36 88 97 -12 217 -12 c 0
 370 -12 456 136 456 383 c 0
 456 633 340 735 222 735 c 0
 166 735 125 722 94 706 c 1
329 279 m 1
 322 182 283 90 224 90 c 0
 184 90 161 135 161 201 c 0
 161 283 199 352 248 352 c 0
 292 352 320 312 329 279 c 1
EndSplineSet
EndChar

StartChar: percent
Encoding: 37 37 332
Width: 729
VWidth: 0
Flags: W
LayerCount: 2
Fore
SplineSet
532 686 m 1
 114 0 l 1
 199 0 l 1
 618 686 l 1
 532 686 l 1
35 517 m 0
 35 379 87 337 173 337 c 0
 259 337 311 378 311 517 c 0
 311 656 259 698 173 698 c 0
 87 698 35 656 35 517 c 0
222 525 m 2
 222 510 l 2
 222 451 213 410 173 410 c 0
 133 410 124 451 124 510 c 2
 124 525 l 2
 124 584 133 625 173 625 c 0
 213 625 222 584 222 525 c 2
419 168 m 0
 419 30 471 -12 557 -12 c 0
 643 -12 695 29 695 168 c 0
 695 307 643 349 557 349 c 0
 471 349 419 307 419 168 c 0
606 176 m 2
 606 161 l 2
 606 102 597 61 557 61 c 0
 517 61 508 102 508 161 c 2
 508 176 l 2
 508 235 517 276 557 276 c 0
 597 276 606 235 606 176 c 2
EndSplineSet
EndChar

StartChar: period
Encoding: 46 46 333
Width: 228
VWidth: 0
Flags: W
LayerCount: 2
Fore
SplineSet
183 137 m 1
 45 137 l 1
 45 0 l 1
 183 0 l 1
 183 137 l 1
EndSplineSet
EndChar

StartChar: periodcentered
Encoding: 183 183 334
Width: 228
VWidth: 0
Flags: W
LayerCount: 2
Fore
SplineSet
174 409 m 1
 53 409 l 1
 53 278 l 1
 174 278 l 1
 174 409 l 1
EndSplineSet
EndChar

StartChar: perthousand
Encoding: 8240 8240 335
Width: 820
VWidth: 0
Flags: W
LayerCount: 2
Fore
SplineSet
421 686 m 1
 351 686 l 1
 129 0 l 1
 198 0 l 1
 421 686 l 1
304 168 m 0
 304 30 350 -12 427 -12 c 0
 504 -12 550 29 550 168 c 0
 550 307 504 349 427 349 c 0
 350 349 304 307 304 168 c 0
461 176 m 2
 461 161 l 2
 461 89 455 61 427 61 c 0
 399 61 393 89 393 161 c 2
 393 176 l 2
 393 248 399 276 427 276 c 0
 455 276 461 248 461 176 c 2
2 517 m 0
 2 379 48 337 125 337 c 0
 202 337 248 378 248 517 c 0
 248 656 202 698 125 698 c 0
 48 698 2 656 2 517 c 0
159 525 m 2
 159 510 l 2
 159 438 153 410 125 410 c 0
 97 410 91 438 91 510 c 2
 91 525 l 2
 91 597 97 625 125 625 c 0
 153 625 159 597 159 525 c 2
574 168 m 0
 574 30 620 -12 697 -12 c 0
 774 -12 820 29 820 168 c 0
 820 307 774 349 697 349 c 0
 620 349 574 307 574 168 c 0
731 176 m 2
 731 161 l 2
 731 89 725 61 697 61 c 0
 669 61 663 89 663 161 c 2
 663 176 l 2
 663 248 669 276 697 276 c 0
 725 276 731 248 731 176 c 2
EndSplineSet
EndChar

StartChar: peseta
Encoding: 8359 8359 336
Width: 960
VWidth: 0
Flags: W
LayerCount: 2
Fore
SplineSet
50 686 m 1
 50 0 l 1
 178 0 l 1
 178 266 l 1
 206 266 l 2
 315 266 394 327 415 425 c 1
 436 425 l 1
 436 129 l 2
 436 59 464 -12 560 -12 c 0
 582 -12 612 -6 628 0 c 1
 628 43 l 1
 658 7 706 -12 769 -12 c 0
 873 -12 933 45 933 156 c 0
 933 333 718 293 718 396 c 0
 718 416 730 440 763 440 c 0
 790 440 804 418 805 385 c 1
 805 372 l 1
 921 372 l 1
 921 372 922 392 922 401 c 0
 922 463 872 538 767 538 c 0
 740 538 716 533 696 526 c 1
 552 526 l 1
 552 674 l 1
 465 674 l 1
 436 526 l 1
 417 526 l 1
 400 620 329 686 206 686 c 2
 50 686 l 1
289 480 m 0
 289 417 255 379 193 379 c 2
 178 379 l 1
 178 572 l 1
 193 572 l 2
 254 572 289 536 289 480 c 0
601 385 m 0
 601 194 815 246 815 135 c 0
 815 105 795 86 765 86 c 0
 731 86 712 113 712 150 c 2
 712 166 l 1
 596 166 l 1
 596 166 594 158 594 146 c 0
 594 125 597 106 602 89 c 1
 594 89 l 2
 567 89 552 104 552 132 c 2
 552 425 l 1
 606 425 l 1
 603 412 601 398 601 385 c 0
EndSplineSet
EndChar

StartChar: pi
Encoding: 960 960 337
Width: 628
VWidth: 0
Flags: W
LayerCount: 2
Fore
SplineSet
581 526 m 1
 180 526 l 2
 94 526 46 515 20 496 c 1
 32 412 l 1
 55 421 78 425 140 425 c 1
 137 305 109 100 76 0 c 1
 195 0 l 1
 227 83 253 305 260 425 c 1
 370 425 l 1
 370 147 l 2
 370 67 376 16 385 0 c 1
 503 0 l 1
 495 30 490 74 490 156 c 2
 490 425 l 1
 573 425 l 1
 581 526 l 1
EndSplineSet
EndChar

StartChar: plus
Encoding: 43 43 338
Width: 479
VWidth: 0
Flags: W
LayerCount: 2
Fore
SplineSet
290 511 m 1
 187 511 l 1
 187 307 l 1
 33 307 l 1
 33 203 l 1
 187 203 l 1
 187 0 l 1
 290 0 l 1
 290 203 l 1
 445 203 l 1
 445 307 l 1
 290 307 l 1
 290 511 l 1
EndSplineSet
EndChar

StartChar: plusminus
Encoding: 177 177 339
Width: 549
VWidth: 0
Flags: W
LayerCount: 2
Fore
SplineSet
325 595 m 1
 222 595 l 1
 222 421 l 1
 68 421 l 1
 68 317 l 1
 222 317 l 1
 222 144 l 1
 325 144 l 1
 325 317 l 1
 480 317 l 1
 480 421 l 1
 325 421 l 1
 325 595 l 1
480 103 m 1
 68 103 l 1
 68 0 l 1
 480 0 l 1
 480 103 l 1
EndSplineSet
EndChar

StartChar: product
Encoding: 8719 8719 340
Width: 823
VWidth: 0
Flags: W
LayerCount: 2
Fore
SplineSet
727 723 m 1
 96 723 l 1
 96 621 l 1
 178 621 l 1
 178 -128 l 1
 299 -128 l 1
 299 621 l 1
 523 621 l 1
 523 -128 l 1
 644 -128 l 1
 644 621 l 1
 727 621 l 1
 727 723 l 1
EndSplineSet
EndChar

StartChar: q
Encoding: 113 113 341
Width: 501
VWidth: 0
Flags: W
LayerCount: 2
Fore
SplineSet
41 262 m 0
 41 71 111 -12 204 -12 c 0
 257 -12 302 12 321 54 c 1
 326 54 l 1
 326 -173 l 1
 446 -173 l 1
 446 526 l 1
 346 526 l 1
 334 461 l 1
 329 461 l 1
 303 512 260 538 210 538 c 0
 106 538 41 453 41 262 c 0
326 282 m 2
 326 246 l 2
 326 151 304 97 246 97 c 0
 188 97 166 149 166 244 c 2
 166 282 l 2
 166 377 188 429 246 429 c 0
 304 429 326 377 326 282 c 2
EndSplineSet
EndChar

StartChar: question
Encoding: 63 63 342
Width: 501
VWidth: 0
Flags: W
LayerCount: 2
Fore
SplineSet
47 494 m 0
 47 482 50 459 50 459 c 1
 176 459 l 1
 176 459 175 470 175 486 c 0
 175 523 185 591 252 591 c 0
 314 591 322 529 322 509 c 0
 322 380 202 360 202 240 c 2
 202 197 l 1
 328 197 l 1
 328 225 l 2
 328 342 453 343 453 520 c 0
 453 625 379 698 260 698 c 0
 117 698 47 606 47 494 c 0
335 137 m 1
 197 137 l 1
 197 0 l 1
 335 0 l 1
 335 137 l 1
EndSplineSet
EndChar

StartChar: questiondown
Encoding: 191 191 343
Width: 501
VWidth: 0
Flags: W
LayerCount: 2
Fore
SplineSet
299 329 m 1
 173 329 l 1
 173 301 l 2
 173 184 48 183 48 6 c 0
 48 -99 122 -172 241 -172 c 0
 384 -172 454 -80 454 32 c 0
 454 44 451 67 451 67 c 1
 325 67 l 1
 325 67 326 56 326 40 c 0
 326 3 316 -65 249 -65 c 0
 187 -65 179 -3 179 17 c 0
 179 146 299 166 299 286 c 2
 299 329 l 1
304 526 m 1
 166 526 l 1
 166 389 l 1
 304 389 l 1
 304 526 l 1
EndSplineSet
EndChar

StartChar: quotedbl
Encoding: 34 34 344
Width: 389
VWidth: 0
Flags: W
LayerCount: 2
Fore
SplineSet
226 686 m 1
 226 539 l 1
 248 407 l 1
 327 407 l 1
 348 539 l 1
 348 686 l 1
 226 686 l 1
45 686 m 1
 45 539 l 1
 67 407 l 1
 146 407 l 1
 167 539 l 1
 167 686 l 1
 45 686 l 1
EndSplineSet
EndChar

StartChar: quotedblbase
Encoding: 8222 8222 345
Width: 410
VWidth: 0
Flags: W
LayerCount: 2
Fore
SplineSet
366 137 m 1
 228 137 l 1
 228 0 l 1
 283 0 l 1
 228 -156 l 1
 300 -156 l 1
 366 12 l 1
 366 137 l 1
183 137 m 1
 45 137 l 1
 45 0 l 1
 100 0 l 1
 45 -156 l 1
 117 -156 l 1
 183 12 l 1
 183 137 l 1
EndSplineSet
EndChar

StartChar: quotedblleft
Encoding: 8220 8220 346
Width: 410
VWidth: 0
Flags: W
LayerCount: 2
Fore
SplineSet
293 686 m 1
 227 518 l 1
 227 393 l 1
 365 393 l 1
 365 530 l 1
 310 530 l 1
 365 686 l 1
 293 686 l 1
110 686 m 1
 44 518 l 1
 44 393 l 1
 182 393 l 1
 182 530 l 1
 127 530 l 1
 182 686 l 1
 110 686 l 1
EndSplineSet
EndChar

StartChar: quotedblright
Encoding: 8221 8221 347
Width: 410
VWidth: 0
Flags: W
LayerCount: 2
Fore
SplineSet
366 686 m 1
 228 686 l 1
 228 549 l 1
 283 549 l 1
 228 393 l 1
 300 393 l 1
 366 561 l 1
 366 686 l 1
183 686 m 1
 45 686 l 1
 45 549 l 1
 100 549 l 1
 45 393 l 1
 117 393 l 1
 183 561 l 1
 183 686 l 1
EndSplineSet
EndChar

StartChar: quoteleft
Encoding: 8216 8216 348
Width: 228
VWidth: 0
Flags: W
LayerCount: 2
Fore
SplineSet
183 686 m 1
 111 686 l 1
 45 518 l 1
 45 393 l 1
 183 393 l 1
 183 530 l 1
 128 530 l 1
 183 686 l 1
EndSplineSet
EndChar

StartChar: quotereversed
Encoding: 8219 8219 349
Width: 228
VWidth: 0
Flags: W
LayerCount: 2
Fore
SplineSet
183 686 m 1
 45 686 l 1
 45 561 l 1
 111 393 l 1
 183 393 l 1
 128 549 l 1
 183 549 l 1
 183 686 l 1
EndSplineSet
EndChar

StartChar: quoteright
Encoding: 8217 8217 350
Width: 228
VWidth: 0
Flags: W
LayerCount: 2
Fore
SplineSet
183 686 m 1
 45 686 l 1
 45 549 l 1
 100 549 l 1
 45 393 l 1
 117 393 l 1
 183 561 l 1
 183 686 l 1
EndSplineSet
EndChar

StartChar: quotesinglbase
Encoding: 8218 8218 351
Width: 228
VWidth: 0
Flags: W
LayerCount: 2
Fore
SplineSet
183 137 m 1
 45 137 l 1
 45 0 l 1
 100 0 l 1
 45 -156 l 1
 117 -156 l 1
 183 12 l 1
 183 137 l 1
EndSplineSet
EndChar

StartChar: quotesingle
Encoding: 39 39 352
Width: 195
VWidth: 0
Flags: W
LayerCount: 2
Fore
SplineSet
37 686 m 1
 37 539 l 1
 59 407 l 1
 138 407 l 1
 159 539 l 1
 159 686 l 1
 37 686 l 1
EndSplineSet
EndChar

StartChar: r
Encoding: 114 114 353
Width: 319
VWidth: 0
Flags: W
LayerCount: 2
Fore
SplineSet
175 449 m 1
 169 449 l 1
 155 526 l 1
 55 526 l 1
 55 0 l 1
 175 0 l 1
 175 293 l 2
 175 386 221 414 273 414 c 2
 316 414 l 1
 316 530 l 1
 316 530 297 538 266 538 c 0
 213 538 189 493 175 449 c 1
160 526 m 0
160 0 m 0
EndSplineSet
EndChar

StartChar: racute
Encoding: 341 341 354
Width: 319
VWidth: 0
Flags: W
LayerCount: 2
Fore
SplineSet
175 449 m 1
 169 449 l 1
 155 526 l 1
 55 526 l 1
 55 0 l 1
 175 0 l 1
 175 293 l 2
 175 386 221 414 273 414 c 2
 316 414 l 1
 316 530 l 1
 316 530 297 538 266 538 c 0
 213 538 189 493 175 449 c 1
128 723 m 1
 42 591 l 1
 142 591 l 1
 250 720 l 1
 249 723 l 1
 128 723 l 1
EndSplineSet
EndChar

StartChar: radical
Encoding: 8730 8730 355
Width: 549
VWidth: 0
Flags: W
LayerCount: 2
Fore
SplineSet
558 857 m 1
 477 857 l 1
 340 -30 l 1
 335 -9 329 16 319 44 c 0
 277 160 233 275 192 391 c 1
 20 323 l 1
 40 263 l 1
 117 293 l 1
 173 146 229 -1 286 -148 c 1
 396 -148 l 1
 558 857 l 1
EndSplineSet
EndChar

StartChar: rcaron
Encoding: 345 345 356
Width: 319
VWidth: 0
Flags: W
LayerCount: 2
Fore
SplineSet
175 449 m 1
 169 449 l 1
 155 526 l 1
 55 526 l 1
 55 0 l 1
 175 0 l 1
 175 293 l 2
 175 386 221 414 273 414 c 2
 316 414 l 1
 316 530 l 1
 316 530 297 538 266 538 c 0
 213 538 189 493 175 449 c 1
246 723 m 1
 156 723 l 1
 112 654 l 1
 67 723 l 1
 -23 723 l 1
 63 588 l 1
 161 588 l 1
 246 723 l 1
EndSplineSet
EndChar

StartChar: rcommaaccent
Encoding: 343 343 357
Width: 319
VWidth: 0
Flags: W
LayerCount: 2
Fore
SplineSet
175 449 m 1
 169 449 l 1
 155 526 l 1
 55 526 l 1
 55 0 l 1
 175 0 l 1
 175 293 l 2
 175 386 221 414 273 414 c 2
 316 414 l 1
 316 530 l 1
 316 530 297 538 266 538 c 0
 213 538 189 493 175 449 c 1
183 -55 m 1
 59 -55 l 1
 59 -178 l 1
 108 -178 l 1
 72 -263 l 1
 137 -263 l 1
 183 -167 l 1
 183 -55 l 1
EndSplineSet
EndChar

StartChar: registered
Encoding: 174 174 358
Width: 604
VWidth: 0
Flags: W
LayerCount: 2
Fore
SplineSet
16 343 m 0
 16 127 124 -12 302 -12 c 0
 480 -12 588 127 588 343 c 0
 588 559 480 698 302 698 c 0
 124 698 16 559 16 343 c 0
532 343 m 0
 532 160 445 43 302 43 c 0
 159 43 72 160 72 343 c 0
 72 526 159 643 302 643 c 0
 445 643 532 526 532 343 c 0
174 546 m 1
 174 140 l 1
 260 140 l 1
 260 305 l 1
 296 305 l 2
 325 305 355 287 355 214 c 0
 355 152 393 137 431 137 c 0
 443 137 464 141 470 145 c 1
 470 165 l 1
 452 171 441 187 441 237 c 0
 441 315 402 338 382 345 c 1
 382 349 l 1
 417 362 445 391 445 444 c 0
 445 504 397 546 332 546 c 2
 174 546 l 1
304 468 m 2
 336 468 357 453 357 428 c 0
 357 401 334 382 301 382 c 2
 260 382 l 1
 260 468 l 1
 304 468 l 2
EndSplineSet
EndChar

StartChar: revlogicalnot
Encoding: 8976 8976 359
Width: 479
VWidth: 0
Flags: W
LayerCount: 2
Fore
SplineSet
450 463 m 1
 34 463 l 1
 34 187 l 1
 138 187 l 1
 138 350 l 1
 450 350 l 1
 450 463 l 1
EndSplineSet
EndChar

StartChar: ring
Encoding: 730 730 360
Width: 273
VWidth: 0
Flags: W
LayerCount: 2
Fore
SplineSet
43 657 m 0
 43 603 87 561 139 561 c 0
 192 561 235 604 235 657 c 0
 235 709 193 753 139 753 c 0
 86 753 43 710 43 657 c 0
185 657 m 0
 185 631 164 611 139 611 c 0
 113 611 93 631 93 657 c 0
 93 683 113 703 139 703 c 0
 164 703 185 683 185 657 c 0
139 526 m 0
EndSplineSet
EndChar

StartChar: s
Encoding: 115 115 361
Width: 456
VWidth: 0
Flags: W
LayerCount: 2
Fore
SplineSet
41 378 m 0
 41 175 298 254 298 143 c 0
 298 100 260 86 228 86 c 0
 194 86 157 104 156 160 c 1
 156 167 l 1
 34 167 l 1
 34 167 33 160 33 155 c 0
 33 55 103 -12 224 -12 c 0
 336 -12 420 30 420 158 c 0
 420 366 163 286 163 388 c 0
 163 420 188 440 225 440 c 0
 261 440 283 419 284 374 c 1
 284 372 l 1
 406 372 l 1
 406 373 407 384 407 395 c 0
 407 485 329 538 229 538 c 0
 124 538 41 485 41 378 c 0
228 526 m 0
228 0 m 0
EndSplineSet
EndChar

StartChar: sacute
Encoding: 347 347 362
Width: 456
VWidth: 0
Flags: W
LayerCount: 2
Fore
SplineSet
41 378 m 0
 41 175 298 254 298 143 c 0
 298 100 260 86 228 86 c 0
 194 86 157 104 156 160 c 1
 156 167 l 1
 34 167 l 1
 34 167 33 160 33 155 c 0
 33 55 103 -12 224 -12 c 0
 336 -12 420 30 420 158 c 0
 420 366 163 286 163 388 c 0
 163 420 188 440 225 440 c 0
 261 440 283 419 284 374 c 1
 284 372 l 1
 406 372 l 1
 406 373 407 384 407 395 c 0
 407 485 329 538 229 538 c 0
 124 538 41 485 41 378 c 0
245 723 m 1
 159 591 l 1
 258 591 l 1
 366 720 l 1
 365 723 l 1
 245 723 l 1
EndSplineSet
EndChar

StartChar: scaron
Encoding: 353 353 363
Width: 456
VWidth: 0
Flags: W
LayerCount: 2
Fore
SplineSet
41 378 m 0
 41 175 298 254 298 143 c 0
 298 100 260 86 228 86 c 0
 194 86 157 104 156 160 c 1
 156 167 l 1
 34 167 l 1
 34 167 33 160 33 155 c 0
 33 55 103 -12 224 -12 c 0
 336 -12 420 30 420 158 c 0
 420 366 163 286 163 388 c 0
 163 420 188 440 225 440 c 0
 261 440 283 419 284 374 c 1
 284 372 l 1
 406 372 l 1
 406 373 407 384 407 395 c 0
 407 485 329 538 229 538 c 0
 124 538 41 485 41 378 c 0
273 723 m 1
 229 654 l 1
 184 723 l 1
 94 723 l 1
 180 588 l 1
 278 588 l 1
 363 723 l 1
 273 723 l 1
EndSplineSet
EndChar

StartChar: scedilla
Encoding: 351 351 364
Width: 456
VWidth: 0
Flags: W
LayerCount: 2
Fore
SplineSet
41 378 m 0
 41 175 298 254 298 143 c 0
 298 100 260 86 228 86 c 0
 194 86 157 104 156 160 c 1
 156 167 l 1
 34 167 l 1
 34 167 33 160 33 155 c 0
 33 67 86 5 180 -9 c 1
 172 -77 l 1
 205 -77 l 2
 230 -77 239 -85 239 -101 c 0
 239 -120 225 -125 203 -125 c 2
 132 -125 l 1
 132 -174 l 1
 156 -179 187 -182 216 -182 c 0
 259 -182 325 -168 325 -101 c 0
 325 -55 289 -36 246 -33 c 1
 248 -11 l 1
 347 -5 420 39 420 158 c 0
 420 366 163 286 163 388 c 0
 163 420 188 440 225 440 c 0
 261 440 283 419 284 374 c 1
 284 372 l 1
 406 372 l 1
 406 373 407 384 407 395 c 0
 407 485 329 538 229 538 c 0
 124 538 41 485 41 378 c 0
EndSplineSet
EndChar

StartChar: scircumflex
Encoding: 349 349 365
Width: 456
VWidth: 0
Flags: W
LayerCount: 2
Fore
SplineSet
41 378 m 0
 41 175 298 254 298 143 c 0
 298 100 260 86 228 86 c 0
 194 86 157 104 156 160 c 1
 156 167 l 1
 34 167 l 1
 34 167 33 160 33 155 c 0
 33 55 103 -12 224 -12 c 0
 336 -12 420 30 420 158 c 0
 420 366 163 286 163 388 c 0
 163 420 188 440 225 440 c 0
 261 440 283 419 284 374 c 1
 284 372 l 1
 406 372 l 1
 406 373 407 384 407 395 c 0
 407 485 329 538 229 538 c 0
 124 538 41 485 41 378 c 0
180 723 m 1
 94 588 l 1
 184 588 l 1
 229 657 l 1
 273 588 l 1
 363 588 l 1
 278 723 l 1
 180 723 l 1
EndSplineSet
EndChar

StartChar: second
Encoding: 8243 8243 367
Width: 389
VWidth: 0
Flags: W
LayerCount: 2
Fore
SplineSet
309 686 m 1
 199 686 l 1
 174 506 l 1
 263 506 l 1
 310 683 l 1
 309 686 l 1
158 686 m 1
 48 686 l 1
 23 506 l 1
 112 506 l 1
 159 683 l 1
 158 686 l 1
EndSplineSet
EndChar

StartChar: section
Encoding: 167 167 368
Width: 456
VWidth: 0
Flags: W
LayerCount: 2
Fore
SplineSet
51 538 m 0
 51 479 72 440 102 411 c 1
 60 374 37 321 37 268 c 0
 37 67 295 102 295 -32 c 0
 295 -64 270 -84 233 -84 c 0
 197 -84 175 -64 174 -18 c 1
 174 -16 l 1
 52 -16 l 1
 52 -17 51 -28 51 -39 c 0
 51 -129 129 -182 229 -182 c 0
 336 -182 417 -129 417 -22 c 0
 417 36 396 75 366 105 c 1
 408 141 431 194 431 248 c 0
 431 449 173 414 173 548 c 0
 173 580 198 600 235 600 c 0
 270 600 293 580 294 534 c 1
 294 532 l 1
 416 532 l 1
 416 533 417 544 417 555 c 0
 417 645 339 698 239 698 c 0
 132 698 51 645 51 538 c 0
313 213 m 0
 313 192 304 172 291 156 c 1
 224 194 155 223 155 303 c 0
 155 323 164 343 176 359 c 1
 243 321 313 293 313 213 c 0
EndSplineSet
EndChar

StartChar: semicolon
Encoding: 59 59 369
Width: 273
VWidth: 0
Flags: W
LayerCount: 2
Fore
SplineSet
192 137 m 1
 54 137 l 1
 54 0 l 1
 109 0 l 1
 54 -156 l 1
 126 -156 l 1
 192 12 l 1
 192 137 l 1
193 526 m 1
 55 526 l 1
 55 389 l 1
 193 389 l 1
 193 526 l 1
EndSplineSet
EndChar

StartChar: seven
Encoding: 55 55 370
Width: 456
VWidth: 0
Flags: W
LayerCount: 2
Fore
SplineSet
433 686 m 1
 23 686 l 1
 23 574 l 1
 303 574 l 1
 198 435 99 220 99 0 c 1
 232 0 l 1
 231 24 231 32 231 51 c 0
 231 261 343 469 433 605 c 1
 433 686 l 1
EndSplineSet
EndChar

StartChar: seveneighths
Encoding: 8542 8542 371
Width: 684
VWidth: 0
Flags: W
LayerCount: 2
Fore
SplineSet
487 698 m 1
 91 -12 l 1
 158 -12 l 1
 553 698 l 1
 487 698 l 1
575 112 m 0
 575 74 562 55 537 55 c 0
 513 55 499 74 499 112 c 0
 499 149 513 169 537 169 c 0
 562 169 575 149 575 112 c 0
43 686 m 1
 43 611 l 1
 200 611 l 1
 141 529 87 411 87 283 c 1
 174 283 l 1
 173 294 173 306 173 317 c 0
 173 439 238 553 290 633 c 1
 290 686 l 1
 43 686 l 1
425 293 m 0
 425 259 440 224 464 203 c 1
 432 183 417 149 417 108 c 0
 417 41 452 -13 537 -13 c 0
 622 -13 657 41 657 108 c 0
 657 149 642 184 610 204 c 1
 635 224 649 257 649 293 c 0
 649 357 611 409 537 409 c 0
 463 409 425 357 425 293 c 0
568 288 m 0
 568 254 558 236 537 236 c 0
 516 236 506 254 506 288 c 0
 506 324 516 341 537 341 c 0
 558 341 568 324 568 288 c 0
EndSplineSet
EndChar

StartChar: six
Encoding: 54 54 372
Width: 456
VWidth: 0
Flags: W
LayerCount: 2
Fore
SplineSet
30 323 m 0
 30 69 108 -12 237 -12 c 0
 346 -12 426 73 426 210 c 0
 426 337 371 431 260 431 c 0
 216 431 177 411 154 377 c 1
 156 511 162 597 224 597 c 0
 270 597 285 552 285 475 c 1
 408 475 l 1
 408 602 355 698 228 698 c 0
 104 698 30 609 30 323 c 0
302 210 m 0
 302 141 280 89 232 89 c 0
 184 89 161 141 161 210 c 0
 161 283 184 333 232 333 c 0
 280 333 302 283 302 210 c 0
EndSplineSet
EndChar

StartChar: slash
Encoding: 47 47 373
Width: 228
VWidth: 0
Flags: W
LayerCount: 2
Fore
SplineSet
228 735 m 1
 143 735 l 1
 1 -49 l 1
 87 -49 l 1
 228 735 l 1
EndSplineSet
EndChar

StartChar: sterling
Encoding: 163 163 376
Width: 456
VWidth: 0
Flags: W
LayerCount: 2
Fore
SplineSet
71 499 m 2
 71 389 l 1
 9 389 l 1
 9 288 l 1
 71 288 l 1
 71 108 l 1
 20 108 l 1
 20 0 l 1
 426 0 l 1
 426 108 l 1
 180 108 l 1
 191 288 l 1
 312 288 l 1
 312 389 l 1
 192 389 l 1
 192 525 l 2
 192 573 215 597 252 597 c 0
 290 597 314 570 314 517 c 2
 314 491 l 1
 433 491 l 1
 433 504 l 2
 433 633 362 698 252 698 c 0
 139 698 71 632 71 499 c 2
EndSplineSet
EndChar

StartChar: summation
Encoding: 8721 8721 377
Width: 713
VWidth: 0
Flags: W
LayerCount: 2
Fore
SplineSet
655 723 m 1
 86 723 l 1
 86 656 l 1
 367 299 l 1
 77 -65 l 1
 77 -128 l 1
 672 -128 l 1
 672 -10 l 1
 255 -10 l 1
 255 -6 l 1
 508 315 l 1
 266 621 l 1
 266 625 l 1
 655 625 l 1
 655 723 l 1
EndSplineSet
EndChar

StartChar: t
Encoding: 116 116 378
Width: 273
VWidth: 0
Flags: W
LayerCount: 2
Fore
SplineSet
182 674 m 1
 80 674 l 1
 62 526 l 1
 9 526 l 1
 9 425 l 1
 62 425 l 1
 62 129 l 2
 62 59 90 -12 186 -12 c 0
 209 -12 241 -6 258 0 c 1
 258 89 l 1
 224 89 l 2
 197 89 182 104 182 132 c 2
 182 425 l 1
 258 425 l 1
 258 526 l 1
 182 526 l 1
 182 674 l 1
137 263 m 0
165 0 m 0
EndSplineSet
EndChar

StartChar: tbar
Encoding: 359 359 379
Width: 273
VWidth: 0
Flags: W
LayerCount: 2
Fore
SplineSet
80 674 m 1
 62 526 l 1
 9 526 l 1
 9 425 l 1
 62 425 l 1
 62 349 l 1
 11 349 l 1
 11 262 l 1
 62 262 l 1
 62 129 l 2
 62 59 90 -12 186 -12 c 0
 209 -12 241 -6 258 0 c 1
 258 89 l 1
 224 89 l 2
 197 89 182 104 182 132 c 2
 182 262 l 1
 254 262 l 1
 254 349 l 1
 182 349 l 1
 182 425 l 1
 258 425 l 1
 258 526 l 1
 182 526 l 1
 182 674 l 1
 80 674 l 1
EndSplineSet
EndChar

StartChar: tcaron
Encoding: 357 357 380
Width: 393
VWidth: 0
Flags: W
LayerCount: 2
Fore
SplineSet
182 674 m 1
 80 674 l 1
 62 526 l 1
 9 526 l 1
 9 425 l 1
 62 425 l 1
 62 129 l 2
 62 59 90 -12 186 -12 c 0
 209 -12 241 -6 258 0 c 1
 258 89 l 1
 224 89 l 2
 197 89 182 104 182 132 c 2
 182 425 l 1
 258 425 l 1
 258 526 l 1
 182 526 l 1
 182 674 l 1
438 686 m 1
 300 686 l 1
 300 549 l 1
 355 549 l 1
 312 425 l 1
 384 425 l 1
 438 561 l 1
 438 686 l 1
EndSplineSet
EndChar

StartChar: thorn
Encoding: 254 254 382
Width: 501
VWidth: 0
Flags: W
LayerCount: 2
Fore
SplineSet
55 723 m 1
 55 -173 l 1
 175 -173 l 1
 175 54 l 1
 180 54 l 1
 199 12 244 -12 297 -12 c 0
 390 -12 460 71 460 262 c 0
 460 453 395 538 291 538 c 0
 241 538 198 512 172 460 c 1
 175 459 l 1
 175 723 l 1
 55 723 l 1
335 282 m 2
 335 244 l 2
 335 149 313 97 255 97 c 0
 197 97 175 151 175 246 c 2
 175 282 l 2
 175 377 197 429 255 429 c 0
 313 429 335 377 335 282 c 2
EndSplineSet
EndChar

StartChar: three
Encoding: 51 51 383
Width: 456
VWidth: 0
Flags: W
LayerCount: 2
Fore
SplineSet
37 510 m 2
 37 482 l 1
 162 482 l 1
 162 501 l 2
 162 565 185 597 226 597 c 0
 265 597 289 569 289 505 c 0
 289 434 259 399 221 399 c 2
 186 399 l 1
 186 298 l 1
 219 298 l 2
 262 298 301 276 301 190 c 0
 301 121 271 89 226 89 c 0
 176 89 150 126 150 191 c 2
 150 212 l 1
 25 212 l 1
 25 194 l 2
 25 69 97 -12 228 -12 c 0
 344 -12 426 62 426 184 c 0
 426 275 383 330 325 352 c 1
 325 356 l 1
 376 385 414 429 414 510 c 0
 414 632 338 698 225 698 c 0
 115 698 37 624 37 510 c 2
EndSplineSet
EndChar

StartChar: threeeighths
Encoding: 8540 8540 384
Width: 684
VWidth: 0
Flags: W
LayerCount: 2
Fore
SplineSet
514 698 m 1
 118 -12 l 1
 185 -12 l 1
 580 698 l 1
 514 698 l 1
575 113 m 0
 575 75 562 56 537 56 c 0
 513 56 499 75 499 113 c 0
 499 150 513 170 537 170 c 0
 562 170 575 150 575 113 c 0
425 294 m 0
 425 260 440 225 464 204 c 1
 432 184 417 150 417 109 c 0
 417 42 452 -12 537 -12 c 0
 622 -12 657 42 657 109 c 0
 657 150 642 185 610 205 c 1
 635 225 649 258 649 294 c 0
 649 358 611 410 537 410 c 0
 463 410 425 358 425 294 c 0
568 289 m 0
 568 255 558 237 537 237 c 0
 516 237 506 255 506 289 c 0
 506 325 516 342 537 342 c 0
 558 342 568 325 568 289 c 0
30 572 m 2
 30 551 l 1
 112 551 l 1
 112 567 l 2
 112 601 124 617 145 617 c 0
 164 617 176 603 176 569 c 0
 176 531 160 512 142 512 c 2
 116 512 l 1
 116 445 l 1
 141 445 l 2
 162 445 183 433 183 387 c 0
 183 349 167 333 145 333 c 0
 118 333 105 352 105 387 c 2
 105 404 l 1
 23 404 l 1
 23 389 l 2
 23 313 67 264 146 264 c 0
 216 264 265 309 265 383 c 0
 265 433 240 466 208 482 c 1
 238 502 259 527 259 572 c 0
 259 646 212 686 144 686 c 0
 77 686 30 641 30 572 c 2
EndSplineSet
EndChar

StartChar: threequarters
Encoding: 190 190 385
Width: 684
VWidth: 0
Flags: W
LayerCount: 2
Fore
SplineSet
588 698 m 1
 522 698 l 1
 126 -12 l 1
 193 -12 l 1
 588 698 l 1
36 584 m 2
 36 563 l 1
 118 563 l 1
 118 579 l 2
 118 613 130 629 151 629 c 0
 170 629 182 615 182 581 c 0
 182 543 166 524 148 524 c 2
 122 524 l 1
 122 457 l 1
 147 457 l 2
 168 457 189 445 189 399 c 0
 189 361 173 345 151 345 c 0
 124 345 111 364 111 399 c 2
 111 416 l 1
 29 416 l 1
 29 401 l 2
 29 325 73 276 152 276 c 0
 222 276 271 321 271 395 c 0
 271 445 246 478 214 494 c 1
 244 514 265 539 265 584 c 0
 265 658 218 698 150 698 c 0
 83 698 36 653 36 584 c 2
496 414 m 1
 471 323 435 223 394 150 c 1
 394 89 l 1
 537 89 l 1
 537 0 l 1
 616 0 l 1
 616 89 l 1
 658 89 l 1
 658 158 l 1
 616 158 l 1
 616 326 l 1
 589 326 l 1
 580 293 553 225 537 195 c 1
 537 158 l 1
 469 158 l 1
 495 197 553 312 575 414 c 1
 496 414 l 1
EndSplineSet
EndChar

StartChar: threesuperior
Encoding: 179 179 386
Width: 273
VWidth: 0
Flags: W
LayerCount: 2
Fore
SplineSet
21 620 m 2
 21 599 l 1
 103 599 l 1
 103 615 l 2
 103 649 115 665 136 665 c 0
 155 665 167 651 167 617 c 0
 167 579 151 560 133 560 c 2
 107 560 l 1
 107 493 l 1
 132 493 l 2
 153 493 174 481 174 435 c 0
 174 397 158 381 136 381 c 0
 109 381 96 400 96 435 c 2
 96 452 l 1
 14 452 l 1
 14 437 l 2
 14 361 58 312 137 312 c 0
 207 312 256 357 256 431 c 0
 256 481 231 514 199 530 c 1
 229 550 250 575 250 620 c 0
 250 694 203 734 135 734 c 0
 68 734 21 689 21 620 c 2
EndSplineSet
EndChar

StartChar: tilde
Encoding: 732 732 387
Width: 273
VWidth: 0
Flags: W
LayerCount: 2
Fore
SplineSet
238 723 m 1
 234 695 220 686 199 686 c 0
 154 686 115 723 66 723 c 0
 -4 723 -32 656 -32 601 c 1
 34 601 l 1
 38 628 52 638 73 638 c 0
 118 638 157 601 205 601 c 0
 276 601 304 668 304 723 c 1
 238 723 l 1
136 526 m 0
EndSplineSet
EndChar

StartChar: trademark
Encoding: 8482 8482 388
Width: 820
VWidth: 0
Flags: W
LayerCount: 2
Fore
SplineSet
730 686 m 1
 626 686 l 1
 563 403 l 1
 559 403 l 1
 496 686 l 1
 385 686 l 1
 385 282 l 1
 451 282 l 1
 451 575 l 1
 456 575 l 1
 521 282 l 1
 588 282 l 1
 654 575 l 1
 658 575 l 1
 658 282 l 1
 730 282 l 1
 730 686 l 1
353 686 m 1
 77 686 l 1
 77 619 l 1
 177 619 l 1
 177 282 l 1
 252 282 l 1
 252 619 l 1
 353 619 l 1
 353 686 l 1
EndSplineSet
EndChar

StartChar: two
Encoding: 50 50 389
Width: 456
VWidth: 0
Flags: W
LayerCount: 2
Fore
SplineSet
39 490 m 0
 39 466 42 450 42 450 c 1
 165 450 l 1
 165 491 l 2
 165 547 184 595 234 595 c 0
 283 595 297 553 297 521 c 0
 297 364 114 273 53 123 c 0
 40 93 33 60 33 24 c 2
 33 0 l 1
 426 0 l 1
 426 112 l 1
 183 112 l 1
 190 126 202 142 216 160 c 0
 287 245 423 370 423 520 c 0
 423 646 341 698 239 698 c 0
 132 698 39 637 39 490 c 0
EndSplineSet
EndChar

StartChar: twosuperior
Encoding: 178 178 390
Width: 273
VWidth: 0
Flags: W
LayerCount: 2
Fore
SplineSet
19 608 m 0
 19 594 22 581 22 581 c 1
 101 581 l 1
 101 609 l 2
 101 639 112 664 136 664 c 0
 161 664 168 644 168 627 c 0
 168 576 133 536 91 489 c 1
 54 446 15 402 15 338 c 2
 15 320 l 1
 253 320 l 1
 253 394 l 1
 115 394 l 1
 124 408 135 421 145 435 c 1
 194 493 251 547 251 626 c 0
 251 703 201 734 139 734 c 0
 75 734 19 698 19 608 c 0
EndSplineSet
EndChar

StartChar: u
Encoding: 117 117 391
Width: 501
VWidth: 0
Flags: W
LayerCount: 2
Fore
SplineSet
446 526 m 1
 326 526 l 1
 326 200 l 2
 326 141 291 97 244 97 c 0
 199 97 175 122 175 190 c 2
 175 526 l 1
 55 526 l 1
 55 157 l 2
 55 33 114 -12 195 -12 c 0
 258 -12 301 24 328 65 c 1
 334 65 l 1
 346 0 l 1
 446 0 l 1
 446 526 l 1
451 10 m 0
251 526 m 0
EndSplineSet
EndChar

StartChar: uacute
Encoding: 250 250 392
Width: 501
VWidth: 0
Flags: W
LayerCount: 2
Fore
SplineSet
326 526 m 1
 326 200 l 2
 326 141 291 97 244 97 c 0
 199 97 175 122 175 190 c 2
 175 526 l 1
 55 526 l 1
 55 157 l 2
 55 33 114 -12 195 -12 c 0
 258 -12 301 24 328 65 c 1
 334 65 l 1
 346 0 l 1
 446 0 l 1
 446 526 l 1
 326 526 l 1
268 723 m 1
 182 591 l 1
 281 591 l 1
 389 720 l 1
 388 723 l 1
 268 723 l 1
EndSplineSet
EndChar

StartChar: ubreve
Encoding: 365 365 393
Width: 501
VWidth: 0
Flags: W
LayerCount: 2
Fore
SplineSet
446 526 m 1
 326 526 l 1
 326 200 l 2
 326 141 291 97 244 97 c 0
 199 97 175 122 175 190 c 2
 175 526 l 1
 55 526 l 1
 55 157 l 2
 55 33 114 -12 195 -12 c 0
 258 -12 301 24 328 65 c 1
 334 65 l 1
 346 0 l 1
 446 0 l 1
 446 526 l 1
310 723 m 1
 308 709 284 690 250 690 c 0
 217 690 194 709 191 723 c 1
 117 723 l 1
 117 673 168 616 250 616 c 0
 333 616 384 673 384 723 c 1
 310 723 l 1
EndSplineSet
EndChar

StartChar: ucircumflex
Encoding: 251 251 394
Width: 501
VWidth: 0
Flags: W
LayerCount: 2
Fore
SplineSet
446 526 m 1
 326 526 l 1
 326 200 l 2
 326 141 291 97 244 97 c 0
 199 97 175 122 175 190 c 2
 175 526 l 1
 55 526 l 1
 55 157 l 2
 55 33 114 -12 195 -12 c 0
 258 -12 301 24 328 65 c 1
 334 65 l 1
 346 0 l 1
 446 0 l 1
 446 526 l 1
300 723 m 1
 202 723 l 1
 116 588 l 1
 206 588 l 1
 251 657 l 1
 295 588 l 1
 385 588 l 1
 300 723 l 1
EndSplineSet
EndChar

StartChar: udieresis
Encoding: 252 252 395
Width: 501
VWidth: 0
Flags: W
LayerCount: 2
Fore
SplineSet
326 526 m 1
 326 200 l 2
 326 141 291 97 244 97 c 0
 199 97 175 122 175 190 c 2
 175 526 l 1
 55 526 l 1
 55 157 l 2
 55 33 114 -12 195 -12 c 0
 258 -12 301 24 328 65 c 1
 334 65 l 1
 346 0 l 1
 446 0 l 1
 446 526 l 1
 326 526 l 1
113 723 m 1
 113 614 l 1
 213 614 l 1
 213 723 l 1
 113 723 l 1
288 723 m 1
 288 614 l 1
 388 614 l 1
 388 723 l 1
 288 723 l 1
EndSplineSet
EndChar

StartChar: ugrave
Encoding: 249 249 396
Width: 501
VWidth: 0
Flags: W
LayerCount: 2
Fore
SplineSet
326 526 m 1
 326 200 l 2
 326 141 291 97 244 97 c 0
 199 97 175 122 175 190 c 2
 175 526 l 1
 55 526 l 1
 55 157 l 2
 55 33 114 -12 195 -12 c 0
 258 -12 301 24 328 65 c 1
 334 65 l 1
 346 0 l 1
 446 0 l 1
 446 526 l 1
 326 526 l 1
113 723 m 1
 112 720 l 1
 220 591 l 1
 319 591 l 1
 233 723 l 1
 113 723 l 1
EndSplineSet
EndChar

StartChar: uhungarumlaut
Encoding: 369 369 397
Width: 501
VWidth: 0
Flags: W
LayerCount: 2
Fore
SplineSet
326 526 m 1
 326 200 l 2
 326 141 291 97 244 97 c 0
 199 97 175 122 175 190 c 2
 175 526 l 1
 55 526 l 1
 55 157 l 2
 55 33 114 -12 195 -12 c 0
 258 -12 301 24 328 65 c 1
 334 65 l 1
 346 0 l 1
 446 0 l 1
 446 526 l 1
 326 526 l 1
200 723 m 1
 138 591 l 1
 217 591 l 1
 301 720 l 1
 300 723 l 1
 200 723 l 1
340 723 m 1
 278 591 l 1
 357 591 l 1
 441 720 l 1
 440 723 l 1
 340 723 l 1
EndSplineSet
EndChar

StartChar: umacron
Encoding: 363 363 398
Width: 501
VWidth: 0
Flags: W
LayerCount: 2
Fore
SplineSet
446 526 m 1
 326 526 l 1
 326 200 l 2
 326 141 291 97 244 97 c 0
 199 97 175 122 175 190 c 2
 175 526 l 1
 55 526 l 1
 55 157 l 2
 55 33 114 -12 195 -12 c 0
 258 -12 301 24 328 65 c 1
 334 65 l 1
 346 0 l 1
 446 0 l 1
 446 526 l 1
378 686 m 1
 123 686 l 1
 123 599 l 1
 378 599 l 1
 378 686 l 1
EndSplineSet
EndChar

StartChar: underscore
Encoding: 95 95 399
Width: 456
VWidth: 0
Flags: W
LayerCount: 2
Fore
SplineSet
455 -63 m 1
 0 -63 l 1
 0 -132 l 1
 455 -132 l 1
 455 -63 l 1
EndSplineSet
EndChar

StartChar: underscoredbl
Encoding: 8215 8215 400
Width: 500
VWidth: 0
Flags: W
LayerCount: 2
Fore
SplineSet
500 -88 m 1
 0 -88 l 1
 0 -139 l 1
 500 -139 l 1
 500 -88 l 1
500 -175 m 1
 0 -175 l 1
 0 -226 l 1
 500 -226 l 1
 500 -175 l 1
EndSplineSet
EndChar

StartChar: uni021A
Encoding: 538 538 403
Width: 501
VWidth: 0
Flags: W
LayerCount: 2
Fore
SplineSet
17 686 m 1
 17 572 l 1
 187 572 l 1
 187 0 l 1
 315 0 l 1
 315 572 l 1
 485 572 l 1
 485 686 l 1
 17 686 l 1
189 -55 m 1
 189 -178 l 1
 238 -178 l 1
 202 -263 l 1
 267 -263 l 1
 312 -167 l 1
 312 -55 l 1
 189 -55 l 1
EndSplineSet
EndChar

StartChar: uni021B
Encoding: 539 539 404
Width: 273
VWidth: 0
Flags: W
LayerCount: 2
Fore
SplineSet
182 674 m 1
 80 674 l 1
 62 526 l 1
 9 526 l 1
 9 425 l 1
 62 425 l 1
 62 129 l 2
 62 59 90 -12 186 -12 c 0
 209 -12 241 -6 258 0 c 1
 258 89 l 1
 224 89 l 2
 197 89 182 104 182 132 c 2
 182 425 l 1
 258 425 l 1
 258 526 l 1
 182 526 l 1
 182 674 l 1
199 -55 m 1
 75 -55 l 1
 75 -178 l 1
 124 -178 l 1
 88 -263 l 1
 153 -263 l 1
 199 -167 l 1
 199 -55 l 1
EndSplineSet
EndChar

StartChar: uni092A094D
Encoding: 65538 -1 405
Width: 262
VWidth: 0
Flags: W
LayerCount: 2
Fore
SplineSet
34 686 m 1
 34 297 l 2
 34 192 91 132 180 132 c 0
 273 132 332 196 332 307 c 2
 332 340 l 1
 262 340 l 1
 262 305 l 2
 262 262 239 234 208 234 c 0
 176 234 154 265 154 314 c 2
 154 686 l 1
 34 686 l 1
-16 686 m 1
 -16 580 l 1
 336 580 l 1
 336 686 l 1
 -16 686 l 1
88 686 m 0
185 0 m 0
EndSplineSet
EndChar

StartChar: uni092B
Encoding: 2347 2347 406
Width: 642
VWidth: 0
Flags: W
LayerCount: 2
Fore
SplineSet
396 427 m 1
 392 427 l 1
 392 472 l 1
 272 472 l 1
 272 283 l 1
 392 283 l 1
 392 293 l 2
 392 350 404 382 447 382 c 0
 490 382 502 350 502 293 c 2
 502 269 l 2
 502 212 490 180 447 180 c 2
 441 180 l 1
 441 73 l 1
 447 72 453 71 458 71 c 0
 558 71 627 134 627 280 c 0
 627 426 573 491 488 491 c 0
 448 491 416 470 396 427 c 1
442 686 m 1
 442 580 l 1
 668 580 l 1
 668 686 l 1
 442 686 l 1
324 686 m 0
324 0 m 0
EndSplineSet
Refer: 327 2346 N 1 0 0 1 0 0 2
EndChar

StartChar: uni092E094D
Encoding: 65539 -1 407
Width: 378
VWidth: 0
Flags: W
LayerCount: 2
Fore
SplineSet
199 624 m 1
 199 223 l 2
 199 199 187 177 164 177 c 0
 142 177 130 194 130 223 c 0
 130 248 144 269 165 269 c 2
 443 269 l 1
 443 375 l 1
 165 375 l 2
 78 375 20 312 20 223 c 0
 20 125 70 71 164 71 c 0
 261 71 319 135 319 223 c 2
 319 624 l 1
 199 624 l 1
-16 686 m 1
 -16 580 l 1
 443 580 l 1
 443 686 l 1
 -16 686 l 1
261 686 m 0
172 0 m 0
EndSplineSet
EndChar

StartChar: uni092F
Encoding: 2351 2351 408
Width: 504
VWidth: 0
Flags: W
LayerCount: 2
Fore
SplineSet
317 345 m 1
 317 270 284 218 234 218 c 0
 181 218 146 273 140 333 c 1
 15 358 l 1
 23 204 103 117 213 117 c 0
 290 117 348 163 362 257 c 1
 317 240 l 1
 317 112 l 1
 402 112 l 1
 402 375 l 1
 317 345 l 1
14 580 m 1
 31 580 l 2
 76 580 115 533 115 471 c 0
 115 384 59 358 15 358 c 1
 71 281 l 1
 165 295 231 359 231 454 c 0
 231 526 193 583 142 604 c 1
 14 580 l 1
-23 686 m 1
 -23 580 l 1
 334 580 l 1
 334 686 l 1
 -23 686 l 1
379 686 m 0
379 0 m 0
EndSplineSet
Refer: 411 2366 N 1 0 0 1 250 0 2
EndChar

StartChar: uni0930
Encoding: 2352 2352 409
Width: 350
VWidth: 0
Flags: W
LayerCount: 2
Fore
SplineSet
165 686 m 1
 165 482 l 2
 165 421 139 389 91 389 c 2
 34 389 l 1
 34 310 l 1
 97 310 l 2
 219 310 285 373 285 492 c 2
 285 686 l 1
 165 686 l 1
-17 686 m 1
 -17 580 l 1
 366 580 l 1
 366 686 l 1
 -17 686 l 1
34 310 m 1
 185 0 l 1
 318 0 l 1
 126 366 l 1
 34 310 l 1
224 686 m 0
241 0 m 0
EndSplineSet
EndChar

StartChar: uni0935094D
Encoding: 65540 -1 410
Width: 262
VWidth: 0
Flags: W
LayerCount: 2
Fore
SplineSet
27 282 m 0
 27 136 80 71 166 71 c 0
 205 71 237 92 257 135 c 1
 262 135 l 1
 262 90 l 1
 278 90 l 1
 278 454 l 1
 262 454 l 1
 262 441 l 1
 258 441 l 1
 242 473 205 491 161 491 c 0
 83 491 27 428 27 282 c 0
262 291 m 2
 262 269 l 2
 262 212 250 180 206 180 c 0
 163 180 151 212 151 269 c 2
 151 293 l 2
 151 350 163 382 206 382 c 0
 250 382 262 349 262 291 c 2
-16 686 m 1
 -16 580 l 1
 278 580 l 1
 278 686 l 1
 -16 686 l 1
315 686 m 0
315 0 m 0
EndSplineSet
EndChar

StartChar: uni093E
Encoding: 2366 2366 411
Width: 254
VWidth: 0
Flags: W
LayerCount: 2
Fore
SplineSet
67 0 m 1
 187 0 l 1
 187 686 l 1
 67 686 l 1
 67 0 l 1
-16 580 m 1
 270 580 l 1
 270 686 l 1
 -16 686 l 1
 -16 580 l 1
129 686 m 0
129 0 m 0
EndSplineSet
EndChar

StartChar: uni093F
Encoding: 2367 2367 412
Width: 254
VWidth: 0
Flags: W
LayerCount: 2
Fore
SplineSet
67 729 m 2
 67 549 l 1
 187 549 l 1
 187 709 l 2
 187 772 201 830 320 830 c 0
 372 830 473 819 635 761 c 1
 635 864 l 1
 505 918 403 936 337 936 c 0
 96 936 67 784 67 729 c 2
129 686 m 0
129 0 m 0
EndSplineSet
Refer: 411 2366 N 1 0 0 1 0 0 2
EndChar

StartChar: uni0940
Encoding: 2368 2368 413
Width: 253
VWidth: 0
Flags: W
LayerCount: 2
Fore
SplineSet
188 623 m 1
 188 766 l 2
 188 873 130 936 -4 936 c 0
 -116 936 -185 876 -185 784 c 0
 -185 775 -185 767 -184 761 c 1
 -68 761 l 1
 -68 777 l 2
 -68 805 -53 838 7 838 c 0
 60 838 67 803 67 759 c 2
 67 623 l 1
 188 623 l 1
131 686 m 0
131 0 m 0
EndSplineSet
Refer: 411 2366 N 1 0 0 1 0 0 2
EndChar

StartChar: uni2015
Encoding: 8213 8213 414
Width: 820
VWidth: 0
Flags: W
LayerCount: 2
Fore
SplineSet
715 318 m 1
 102 318 l 1
 102 223 l 1
 715 223 l 1
 715 318 l 1
EndSplineSet
EndChar

StartChar: uni203E
Encoding: 8254 8254 415
Width: 500
VWidth: 0
Flags: W
LayerCount: 2
Fore
SplineSet
500 860 m 1
 0 860 l 1
 0 791 l 1
 500 791 l 1
 500 860 l 1
EndSplineSet
EndChar

StartChar: uni207F
Encoding: 8319 8319 416
Width: 325
VWidth: 0
Flags: W
LayerCount: 2
Fore
SplineSet
115 683 m 1
 111 683 l 1
 103 726 l 1
 31 726 l 1
 31 372 l 1
 117 372 l 1
 117 590 l 2
 117 628 138 657 167 657 c 0
 193 657 208 641 208 598 c 2
 208 372 l 1
 294 372 l 1
 294 620 l 2
 294 704 255 734 200 734 c 0
 159 734 132 710 115 683 c 1
EndSplineSet
EndChar

StartChar: uni2105
Encoding: 8453 8453 417
Width: 790
VWidth: 0
Flags: W
LayerCount: 2
Fore
SplineSet
542 698 m 1
 126 -12 l 1
 203 -12 l 1
 618 698 l 1
 542 698 l 1
39 504 m 0
 39 371 83 310 179 310 c 0
 257 310 306 354 306 458 c 1
 222 458 l 1
 222 407 210 381 179 381 c 0
 141 381 127 419 127 491 c 2
 127 517 l 2
 127 589 141 627 177 627 c 0
 205 627 220 602 220 550 c 1
 306 550 l 1
 306 654 256 698 177 698 c 0
 85 698 39 637 39 504 c 0
428 181 m 0
 428 48 477 -13 576 -13 c 0
 675 -13 724 48 724 181 c 0
 724 314 675 375 576 375 c 0
 477 375 428 314 428 181 c 0
636 194 m 2
 636 168 l 2
 636 96 620 58 576 58 c 0
 532 58 516 96 516 168 c 2
 516 194 l 2
 516 266 532 304 576 304 c 0
 620 304 636 266 636 194 c 2
EndSplineSet
EndChar

StartChar: uni2113
Encoding: 8467 8467 418
Width: 490
VWidth: 0
Flags: W
LayerCount: 2
Fore
SplineSet
108 508 m 2
 108 263 l 1
 89 247 71 233 55 221 c 1
 55 132 l 1
 83 151 108 172 139 191 c 1
 108 208 l 1
 108 167 l 1
 109 67 162 -12 292 -12 c 0
 336 -12 370 -3 404 14 c 1
 404 117 l 1
 376 99 344 87 305 87 c 0
 263 87 228 117 228 198 c 2
 228 272 l 1
 337 376 419 491 419 582 c 0
 419 682 365 735 275 735 c 0
 189 735 108 679 108 508 c 2
330 583 m 0
 330 520 285 447 228 381 c 1
 228 508 l 2
 228 615 259 651 288 651 c 0
 317 651 330 626 330 583 c 0
EndSplineSet
EndChar

StartChar: uni2116
Encoding: 8470 8470 419
Width: 914
VWidth: 0
Flags: W
LayerCount: 2
Fore
SplineSet
418 686 m 1
 418 304 l 2
 418 293 419 247 419 247 c 1
 416 244 l 1
 416 244 396 291 385 308 c 1
 173 686 l 1
 60 686 l 1
 60 0 l 1
 173 0 l 1
 173 382 l 2
 173 400 171 439 171 439 c 1
 175 442 l 1
 175 442 198 392 206 378 c 2
 418 0 l 1
 532 0 l 1
 532 686 l 1
 418 686 l 1
606 264 m 1
 606 180 l 1
 853 180 l 1
 853 264 l 1
 606 264 l 1
777 514 m 2
 777 488 l 2
 777 421 762 384 729 384 c 0
 697 384 681 421 681 488 c 2
 681 514 l 2
 681 581 697 618 729 618 c 0
 762 618 777 581 777 514 c 2
589 501 m 0
 589 365 638 304 729 304 c 0
 820 304 869 365 869 501 c 0
 869 637 820 698 729 698 c 0
 638 698 589 637 589 501 c 0
EndSplineSet
EndChar

StartChar: uogonek
Encoding: 371 371 420
Width: 501
VWidth: 0
Flags: W
LayerCount: 2
Fore
SplineSet
326 526 m 1
 326 200 l 2
 326 141 291 97 244 97 c 0
 199 97 175 122 175 190 c 2
 175 526 l 1
 55 526 l 1
 55 157 l 2
 55 33 114 -12 195 -12 c 0
 258 -12 301 24 328 65 c 1
 334 65 l 1
 346 0 l 1
 368 0 l 1
 366 5 l 1
 340 -22 318 -50 318 -100 c 0
 318 -169 371 -190 417 -190 c 0
 439 -190 460 -185 483 -176 c 1
 483 -121 l 1
 461 -121 l 2
 428 -121 416 -96 416 -70 c 0
 416 -42 434 -14 446 0 c 1
 446 526 l 1
 326 526 l 1
EndSplineSet
EndChar

StartChar: uring
Encoding: 367 367 421
Width: 501
VWidth: 0
Flags: W
LayerCount: 2
Fore
SplineSet
446 526 m 1
 326 526 l 1
 326 200 l 2
 326 141 291 97 244 97 c 0
 199 97 175 122 175 190 c 2
 175 526 l 1
 55 526 l 1
 55 157 l 2
 55 33 114 -12 195 -12 c 0
 258 -12 301 24 328 65 c 1
 334 65 l 1
 346 0 l 1
 446 0 l 1
 446 526 l 1
155 657 m 0
 155 603 199 561 251 561 c 0
 304 561 347 604 347 657 c 0
 347 709 305 753 251 753 c 0
 198 753 155 710 155 657 c 0
297 657 m 0
 297 631 276 611 251 611 c 0
 225 611 205 631 205 657 c 0
 205 683 225 703 251 703 c 0
 276 703 297 683 297 657 c 0
EndSplineSet
EndChar

StartChar: utilde
Encoding: 361 361 422
Width: 501
VWidth: 0
Flags: W
LayerCount: 2
Fore
SplineSet
446 526 m 1
 326 526 l 1
 326 200 l 2
 326 141 291 97 244 97 c 0
 199 97 175 122 175 190 c 2
 175 526 l 1
 55 526 l 1
 55 157 l 2
 55 33 114 -12 195 -12 c 0
 258 -12 301 24 328 65 c 1
 334 65 l 1
 346 0 l 1
 446 0 l 1
 446 526 l 1
353 723 m 1
 349 695 335 686 314 686 c 0
 269 686 230 723 181 723 c 0
 111 723 83 656 83 601 c 1
 149 601 l 1
 153 628 167 638 188 638 c 0
 233 638 272 601 320 601 c 0
 391 601 419 668 419 723 c 1
 353 723 l 1
EndSplineSet
EndChar

StartChar: uuvowelsigndeva
Encoding: 2370 2370 423
Width: 0
VWidth: 0
Flags: W
LayerCount: 2
Fore
SplineSet
-90 -247 m 1
 -90 -11 -210 55 -316 55 c 0
 -409 55 -488 1 -488 -96 c 0
 -488 -194 -420 -247 -346 -247 c 0
 -316 -247 -295 -242 -269 -233 c 1
 -269 -131 l 1
 -282 -137 -304 -143 -324 -143 c 0
 -349 -143 -368 -128 -368 -98 c 0
 -368 -72 -349 -51 -316 -51 c 0
 -246 -51 -213 -102 -213 -247 c 1
 -90 -247 l 1
-315 0 m 0
EndSplineSet
EndChar

StartChar: uvowelsigndeva
Encoding: 2369 2369 424
Width: 0
VWidth: 0
Flags: W
LayerCount: 2
Fore
SplineSet
-383 -143 m 1
 -315 -205 -236 -247 -163 -247 c 0
 -70 -247 9 -193 9 -96 c 0
 9 2 -74 55 -163 55 c 0
 -193 55 -217 50 -244 38 c 1
 -244 -64 l 1
 -226 -56 -199 -49 -171 -49 c 0
 -134 -49 -111 -64 -111 -94 c 0
 -111 -120 -130 -141 -163 -141 c 0
 -233 -141 -315 -74 -383 0 c 1
 -383 -143 l 1
-138 0 m 0
EndSplineSet
EndChar

StartChar: v
Encoding: 118 118 425
Width: 456
VWidth: 0
Flags: W
LayerCount: 2
Fore
SplineSet
332 526 m 1
 265 300 l 2
 250 248 245 195 235 142 c 1
 231 142 l 1
 220 195 214 248 198 300 c 2
 130 526 l 1
 4 526 l 1
 167 0 l 1
 289 0 l 1
 452 526 l 1
 332 526 l 1
EndSplineSet
EndChar

StartChar: vadeva
Encoding: 2357 2357 426
Width: 449
VWidth: 0
Flags: W
LayerCount: 2
Fore
SplineSet
27 282 m 0
 27 136 80 71 166 71 c 0
 205 71 237 92 257 135 c 1
 262 135 l 1
 262 90 l 1
 382 90 l 1
 382 454 l 1
 262 454 l 1
 262 441 l 1
 258 441 l 1
 242 473 205 491 161 491 c 0
 83 491 27 428 27 282 c 0
262 291 m 2
 262 269 l 2
 262 212 250 180 206 180 c 0
 163 180 151 212 151 269 c 2
 151 293 l 2
 151 350 163 382 206 382 c 0
 250 382 262 349 262 291 c 2
-16 686 m 1
 -16 580 l 1
 262 580 l 1
 262 686 l 1
 -16 686 l 1
325 686 m 0
325 0 m 0
EndSplineSet
Refer: 411 2366 N 1 0 0 1 195 0 2
EndChar

StartChar: w
Encoding: 119 119 427
Width: 638
VWidth: 0
Flags: W
LayerCount: 2
Fore
SplineSet
637 526 m 1
 526 526 l 1
 480 308 l 2
 468 249 454 145 454 145 c 1
 450 145 l 1
 450 145 439 257 428 308 c 2
 383 526 l 1
 263 526 l 1
 218 309 l 2
 203 234 196 145 196 145 c 1
 192 145 l 1
 192 145 187 239 171 310 c 2
 121 526 l 1
 1 526 l 1
 129 0 l 1
 250 0 l 1
 301 252 l 2
 312 306 316 381 316 381 c 1
 322 381 l 1
 322 381 326 304 337 251 c 2
 389 0 l 1
 510 0 l 1
 637 526 l 1
319 526 m 0
EndSplineSet
EndChar

StartChar: wacute
Encoding: 7811 7811 428
Width: 638
VWidth: 0
Flags: W
LayerCount: 2
Fore
SplineSet
526 526 m 1
 480 308 l 2
 468 249 454 145 454 145 c 1
 450 145 l 1
 450 145 439 257 428 308 c 2
 383 526 l 1
 263 526 l 1
 218 309 l 2
 203 234 196 145 196 145 c 1
 192 145 l 1
 192 145 187 239 171 310 c 2
 121 526 l 1
 1 526 l 1
 129 0 l 1
 250 0 l 1
 301 252 l 2
 312 306 316 381 316 381 c 1
 322 381 l 1
 322 381 326 304 337 251 c 2
 389 0 l 1
 510 0 l 1
 637 526 l 1
 526 526 l 1
336 723 m 1
 250 591 l 1
 350 591 l 1
 458 720 l 1
 457 723 l 1
 336 723 l 1
EndSplineSet
EndChar

StartChar: wcircumflex
Encoding: 373 373 429
Width: 638
VWidth: 0
Flags: W
LayerCount: 2
Fore
SplineSet
637 526 m 1
 526 526 l 1
 480 308 l 2
 468 249 454 145 454 145 c 1
 450 145 l 1
 450 145 439 257 428 308 c 2
 383 526 l 1
 263 526 l 1
 218 309 l 2
 203 234 196 145 196 145 c 1
 192 145 l 1
 192 145 187 239 171 310 c 2
 121 526 l 1
 1 526 l 1
 129 0 l 1
 250 0 l 1
 301 252 l 2
 312 306 316 381 316 381 c 1
 322 381 l 1
 322 381 326 304 337 251 c 2
 389 0 l 1
 510 0 l 1
 637 526 l 1
369 723 m 1
 271 723 l 1
 185 588 l 1
 275 588 l 1
 320 657 l 1
 364 588 l 1
 454 588 l 1
 369 723 l 1
EndSplineSet
EndChar

StartChar: wdieresis
Encoding: 7813 7813 430
Width: 638
VWidth: 0
Flags: W
LayerCount: 2
Fore
SplineSet
526 526 m 1
 480 308 l 2
 468 249 454 145 454 145 c 1
 450 145 l 1
 450 145 439 257 428 308 c 2
 383 526 l 1
 263 526 l 1
 218 309 l 2
 203 234 196 145 196 145 c 1
 192 145 l 1
 192 145 187 239 171 310 c 2
 121 526 l 1
 1 526 l 1
 129 0 l 1
 250 0 l 1
 301 252 l 2
 312 306 316 381 316 381 c 1
 322 381 l 1
 322 381 326 304 337 251 c 2
 389 0 l 1
 510 0 l 1
 637 526 l 1
 526 526 l 1
182 723 m 1
 182 614 l 1
 282 614 l 1
 282 723 l 1
 182 723 l 1
357 723 m 1
 357 614 l 1
 457 614 l 1
 457 723 l 1
 357 723 l 1
EndSplineSet
EndChar

StartChar: wgrave
Encoding: 7809 7809 431
Width: 638
VWidth: 0
Flags: W
LayerCount: 2
Fore
SplineSet
526 526 m 1
 480 308 l 2
 468 249 454 145 454 145 c 1
 450 145 l 1
 450 145 439 257 428 308 c 2
 383 526 l 1
 263 526 l 1
 218 309 l 2
 203 234 196 145 196 145 c 1
 192 145 l 1
 192 145 187 239 171 310 c 2
 121 526 l 1
 1 526 l 1
 129 0 l 1
 250 0 l 1
 301 252 l 2
 312 306 316 381 316 381 c 1
 322 381 l 1
 322 381 326 304 337 251 c 2
 389 0 l 1
 510 0 l 1
 637 526 l 1
 526 526 l 1
182 723 m 1
 181 720 l 1
 289 591 l 1
 388 591 l 1
 302 723 l 1
 182 723 l 1
EndSplineSet
EndChar

StartChar: x
Encoding: 120 120 432
Width: 456
VWidth: 0
Flags: W
LayerCount: 2
Fore
SplineSet
314 526 m 1
 236 373 l 1
 231 373 l 1
 153 526 l 1
 17 526 l 1
 157 272 l 1
 5 0 l 1
 133 0 l 1
 222 174 l 1
 227 174 l 1
 316 0 l 1
 451 0 l 1
 301 275 l 1
 443 526 l 1
 314 526 l 1
EndSplineSet
EndChar

StartChar: y
Encoding: 121 121 433
Width: 456
VWidth: 0
Flags: W
LayerCount: 2
Fore
SplineSet
332 526 m 1
 267 278 l 2
 255 234 250 187 242 142 c 1
 238 142 l 1
 229 188 224 234 210 279 c 2
 131 526 l 1
 4 526 l 1
 179 0 l 1
 165 -58 132 -81 98 -81 c 2
 44 -81 l 1
 44 -173 l 2
 44 -174 74 -182 122 -182 c 0
 223 -182 275 -87 308 27 c 2
 452 526 l 1
 332 526 l 1
228 526 m 0
EndSplineSet
EndChar

StartChar: yacute
Encoding: 253 253 434
Width: 456
VWidth: 0
Flags: W
LayerCount: 2
Fore
SplineSet
332 526 m 1
 267 278 l 2
 255 234 250 187 242 142 c 1
 238 142 l 1
 229 188 224 234 210 279 c 2
 131 526 l 1
 4 526 l 1
 179 0 l 1
 165 -58 132 -81 98 -81 c 2
 44 -81 l 1
 44 -173 l 2
 44 -174 74 -182 122 -182 c 0
 223 -182 275 -87 308 27 c 2
 452 526 l 1
 332 526 l 1
245 723 m 1
 159 591 l 1
 258 591 l 1
 366 720 l 1
 365 723 l 1
 245 723 l 1
EndSplineSet
EndChar

StartChar: ycircumflex
Encoding: 375 375 435
Width: 456
VWidth: 0
Flags: W
LayerCount: 2
Fore
SplineSet
278 723 m 1
 180 723 l 1
 94 588 l 1
 184 588 l 1
 229 657 l 1
 273 588 l 1
 363 588 l 1
 278 723 l 1
332 526 m 1
 267 278 l 2
 255 234 250 187 242 142 c 1
 238 142 l 1
 229 188 224 234 210 279 c 2
 131 526 l 1
 4 526 l 1
 179 0 l 1
 165 -58 132 -81 98 -81 c 2
 44 -81 l 1
 44 -173 l 2
 44 -174 74 -182 122 -182 c 0
 223 -182 275 -87 308 27 c 2
 452 526 l 1
 332 526 l 1
EndSplineSet
EndChar

StartChar: ydieresis
Encoding: 255 255 436
Width: 456
VWidth: 0
Flags: W
LayerCount: 2
Fore
SplineSet
332 526 m 1
 267 278 l 2
 255 234 250 187 242 142 c 1
 238 142 l 1
 229 188 224 234 210 279 c 2
 131 526 l 1
 4 526 l 1
 179 0 l 1
 165 -58 132 -81 98 -81 c 2
 44 -81 l 1
 44 -173 l 2
 44 -174 74 -182 122 -182 c 0
 223 -182 275 -87 308 27 c 2
 452 526 l 1
 332 526 l 1
91 723 m 1
 91 614 l 1
 191 614 l 1
 191 723 l 1
 91 723 l 1
266 723 m 1
 266 614 l 1
 366 614 l 1
 366 723 l 1
 266 723 l 1
EndSplineSet
EndChar

StartChar: yen
Encoding: 165 165 437
Width: 456
VWidth: 0
Flags: W
LayerCount: 2
Fore
SplineSet
451 686 m 1
 326 686 l 1
 233 423 l 1
 229 423 l 1
 135 686 l 1
 4 686 l 1
 133 385 l 1
 28 385 l 1
 28 304 l 1
 167 304 l 1
 167 234 l 1
 28 234 l 1
 28 153 l 1
 168 153 l 1
 168 0 l 1
 288 0 l 1
 288 153 l 1
 428 153 l 1
 428 234 l 1
 288 234 l 1
 288 303 l 1
 428 303 l 1
 428 385 l 1
 323 385 l 1
 451 686 l 1
EndSplineSet
EndChar

StartChar: ygrave
Encoding: 7923 7923 438
Width: 456
VWidth: 0
Flags: W
LayerCount: 2
Fore
SplineSet
332 526 m 1
 267 278 l 2
 255 234 250 187 242 142 c 1
 238 142 l 1
 229 188 224 234 210 279 c 2
 131 526 l 1
 4 526 l 1
 179 0 l 1
 165 -58 132 -81 98 -81 c 2
 44 -81 l 1
 44 -173 l 2
 44 -174 74 -182 122 -182 c 0
 223 -182 275 -87 308 27 c 2
 452 526 l 1
 332 526 l 1
91 723 m 1
 90 720 l 1
 198 591 l 1
 297 591 l 1
 211 723 l 1
 91 723 l 1
EndSplineSet
EndChar

StartChar: z
Encoding: 122 122 439
Width: 410
VWidth: 0
Flags: W
LayerCount: 2
Fore
SplineSet
385 526 m 1
 30 526 l 1
 30 425 l 1
 222 425 l 1
 18 51 l 1
 18 0 l 1
 392 0 l 1
 392 101 l 1
 180 101 l 1
 385 476 l 1
 385 526 l 1
205 526 m 0
EndSplineSet
EndChar

StartChar: zacute
Encoding: 378 378 440
Width: 410
VWidth: 0
Flags: W
LayerCount: 2
Fore
SplineSet
30 526 m 1
 30 425 l 1
 222 425 l 1
 18 51 l 1
 18 0 l 1
 392 0 l 1
 392 101 l 1
 180 101 l 1
 385 476 l 1
 385 526 l 1
 30 526 l 1
222 723 m 1
 136 591 l 1
 235 591 l 1
 343 720 l 1
 342 723 l 1
 222 723 l 1
EndSplineSet
EndChar

StartChar: zcaron
Encoding: 382 382 441
Width: 410
VWidth: 0
Flags: W
LayerCount: 2
Fore
SplineSet
385 526 m 1
 30 526 l 1
 30 425 l 1
 222 425 l 1
 18 51 l 1
 18 0 l 1
 392 0 l 1
 392 101 l 1
 180 101 l 1
 385 476 l 1
 385 526 l 1
340 723 m 1
 250 723 l 1
 206 654 l 1
 161 723 l 1
 71 723 l 1
 157 588 l 1
 255 588 l 1
 340 723 l 1
EndSplineSet
EndChar

StartChar: zdotaccent
Encoding: 380 380 442
Width: 410
VWidth: 0
Flags: W
LayerCount: 2
Fore
SplineSet
385 526 m 1
 30 526 l 1
 30 425 l 1
 222 425 l 1
 18 51 l 1
 18 0 l 1
 392 0 l 1
 392 101 l 1
 180 101 l 1
 385 476 l 1
 385 526 l 1
259 723 m 1
 152 723 l 1
 152 608 l 1
 259 608 l 1
 259 723 l 1
EndSplineSet
EndChar

StartChar: zero
Encoding: 48 48 443
Width: 456
VWidth: 0
Flags: W
LayerCount: 2
Fore
SplineSet
30 343 m 0
 30 64 104 -12 228 -12 c 0
 351 -12 426 64 426 343 c 0
 426 622 351 698 228 698 c 0
 104 698 30 622 30 343 c 0
301 378 m 2
 301 308 l 2
 301 158 289 89 228 89 c 0
 167 89 155 158 155 308 c 2
 155 378 l 2
 155 528 167 597 228 597 c 0
 289 597 301 528 301 378 c 2
EndSplineSet
EndChar
